<svg width="5251" height="3884" viewBox="0 0 5251 3884" fill="none" xmlns="http://www.w3.org/2000/svg">
<path d="M4115.71 3319.1C3489.99 3319.1 2980.94 2810.05 2980.94 2184.34C2980.94 2063.49 2999.83 1944.67 3037.08 1831.23C3081.67 1693.9 3151.82 1567.56 3245.57 1455.74C3388.97 1284.68 3576.94 1160.77 3789.2 1097.4C3894.21 1065.67 4004.09 1049.58 4115.71 1049.58C4178.12 1049.58 4239.91 1054.59 4299.37 1064.51C4850.45 1154.06 5250.49 1625.01 5250.49 2184.33C5250.49 2400.86 5189.38 2611.14 5073.78 2792.41C4967.66 2959.84 4818.32 3097.33 4641.93 3189.95C4480.6 3274.43 4298.64 3319.09 4115.71 3319.09V3319.1ZM4115.71 1096.31C4008.67 1096.31 3903.33 1111.73 3802.64 1142.15C3599.11 1202.92 3418.89 1321.73 3281.37 1485.77C3191.51 1592.96 3124.26 1714.08 3081.5 1845.73C3045.77 1954.55 3027.67 2068.45 3027.67 2184.34C3027.67 2784.28 3515.77 3272.37 4115.71 3272.37C4293.62 3272.37 4463.37 3230.72 4620.22 3148.56C4789.36 3059.76 4932.57 2927.93 5034.35 2767.35C5145.19 2593.53 5203.76 2391.95 5203.76 2184.34C5203.76 1648.04 4820.22 1196.49 4291.78 1110.62C4234.77 1101.11 4175.55 1096.31 4115.71 1096.31Z" fill="#111010"/>
<path d="M4900.46 1934.52L4772.83 1628.2L4443.74 1585.57L4242.27 1849.27L4369.9 2155.59L4699 2198.21L4900.46 1934.52Z" fill="#111010"/>
<path d="M3671.58 1813.33L3470.1 2077.1L3140.79 2034.59L3059.27 1838.52C3103.42 1702.58 3173.56 1578 3263.47 1470.76L3543.76 1507.05L3671.58 1813.34V1813.33Z" fill="#111010"/>
<path d="M4201.22 2523.95L3899.15 2386.56L3629.12 2579.47L3661.18 2909.77L3963.26 3047.15L4233.27 2854.24L4201.22 2523.95Z" fill="#111010"/>
<path d="M4295.53 1087.56L4017.95 1247.88L3795.88 1119.8C3897.17 1089.19 4004.41 1072.95 4115.71 1072.95C4176.91 1072.95 4237.04 1077.82 4295.53 1087.57L4295.53 1087.56Z" fill="#111010"/>
<path d="M5054.07 2779.85C4950.08 2943.96 4803.84 3078.55 4631.06 3169.27L4605.34 3140.02L4711.22 2825.61L5036.46 2759.8L5054.07 2779.85Z" fill="#111010"/>
<path d="M3347.7 2988.48C3215.65 2870.19 3116.52 2718.32 3060.86 2549.17L3091.06 2530.41L3358.1 2673.02L3368.39 2975.65L3347.7 2988.48V2988.48Z" fill="#111010"/>
<path d="M4503.5 1794.21C4492.94 1794.21 4483.38 1787.01 4480.8 1776.31C4344.59 1209.53 4143.57 1094.65 4141.55 1093.56C4130.27 1087.44 4125.97 1073.33 4132.01 1061.99C4138.02 1050.68 4152 1046.24 4163.37 1052.25C4172.32 1056.93 4384.03 1173.66 4526.22 1765.38C4529.25 1777.93 4521.52 1790.54 4508.97 1793.56C4507.13 1794 4505.31 1794.21 4503.49 1794.21L4503.5 1794.21Z" fill="#111010"/>
<path d="M4753.78 1678C4746 1678 4738.4 1674.1 4733.96 1667.03C4727.12 1656.11 4730.43 1641.69 4741.33 1634.83C4742.48 1634.11 4855.87 1561.56 4908.78 1420.64C4913.29 1408.55 4926.8 1402.42 4938.86 1406.99C4950.94 1411.52 4957.06 1425 4952.52 1437.07C4893.86 1593.33 4771.3 1671.22 4766.11 1674.46C4762.28 1676.86 4758 1678 4753.78 1678Z" fill="#111010"/>
<path d="M3543.84 1530.51C3540.78 1530.51 3537.66 1529.9 3534.66 1528.63C3522.8 1523.56 3517.29 1509.84 3522.36 1497.97C3528.84 1482.82 3683.95 1126.34 3954.25 1067.78C3966.67 1064.98 3979.28 1073.04 3982.03 1085.66C3984.76 1098.27 3976.75 1110.72 3964.14 1113.44C3717.53 1166.86 3566.82 1512.85 3565.33 1516.34C3561.54 1525.2 3552.9 1530.52 3543.84 1530.52V1530.51Z" fill="#111010"/>
<path d="M3668.35 2646.4C3661.87 2646.4 3655.42 2643.73 3650.82 2638.5C3430 2388.03 3417.9 1999.83 3417.49 1983.43C3417.17 1970.53 3427.38 1959.83 3440.27 1959.51C3453.26 1958.02 3463.87 1969.37 3464.22 1982.26C3464.31 1986.12 3476.47 2370.07 3685.86 2607.59C3694.4 2617.28 3693.47 2632.03 3683.79 2640.57C3679.35 2644.49 3673.83 2646.4 3668.35 2646.4Z" fill="#111010"/>
<path d="M4152.53 2587.92C4147.61 2587.92 4142.65 2586.38 4138.44 2583.19C4128.15 2575.4 4126.12 2560.75 4133.91 2550.46C4222.16 2433.83 4358.81 2116.56 4360.19 2113.37C4365.26 2101.51 4378.94 2095.98 4390.87 2101.12C4402.72 2106.21 4408.21 2119.94 4403.11 2131.81C4397.44 2145.05 4262.82 2457.53 4171.17 2578.66C4166.58 2584.73 4159.6 2587.92 4152.53 2587.92V2587.92Z" fill="#111010"/>
<path d="M5225.28 2145.95C5218.78 2145.95 5212.33 2143.26 5207.71 2138.01C5093.68 2008.22 4857.07 1941.03 4854.7 1940.36C4842.27 1936.89 4835.01 1924.01 4838.49 1911.58C4841.94 1899.14 4854.83 1891.81 4867.27 1895.37C4877.52 1898.23 5119.73 1967.06 5242.81 2107.17C5251.33 2116.87 5250.37 2131.63 5240.69 2140.15C5236.24 2144.04 5230.75 2145.96 5225.27 2145.96L5225.28 2145.95Z" fill="#111010"/>
<path d="M4360.56 1882.74C4359.31 1882.74 4358.05 1882.65 4356.78 1882.43C3790.55 1790.64 3530.55 1855.34 3528 1855.98C3515.52 1859.19 3502.75 1851.73 3499.51 1839.27C3496.25 1826.8 3503.69 1814.05 3516.16 1810.77C3526.92 1807.94 3786.43 1742.64 4364.27 1836.31C4377 1838.38 4385.65 1850.36 4383.59 1863.11C4381.73 1874.58 4371.81 1882.74 4360.56 1882.74Z" fill="#111010"/>
<path d="M5054.02 2803.26C5043.6 2803.26 5034.11 2796.27 5031.4 2785.71C4915.1 2332.72 4652.99 2163.56 4650.36 2161.9C4639.44 2155.04 4636.14 2140.62 4642.97 2129.7C4649.85 2118.78 4664.24 2115.46 4675.13 2122.28C4686.52 2129.38 4955.4 2301.69 5076.67 2774.09C5079.88 2786.59 5072.35 2799.32 5059.85 2802.54C5057.9 2803.04 5055.94 2803.27 5054.02 2803.27L5054.02 2803.26Z" fill="#111010"/>
<path d="M4636.74 3182.61C4633.82 3182.61 4630.86 3182.06 4627.97 3180.89C4406.72 3091.12 4171.63 2849.38 4161.73 2839.13C4152.77 2829.85 4153.03 2815.07 4162.3 2806.11C4171.59 2797.12 4186.37 2797.42 4195.34 2806.67C4197.7 2809.11 4433.53 3051.57 4645.55 3137.6C4657.51 3142.45 4663.26 3156.08 4658.41 3168.04C4654.72 3177.1 4645.98 3182.61 4636.74 3182.61Z" fill="#111010"/>
<path d="M3593.6 3182.61C3579.23 3181.74 3569.44 3170.64 3570.27 3157.76C3580.35 2999.82 3684.28 2860.96 3688.7 2855.13C3696.47 2844.86 3711.14 2842.87 3721.4 2850.6C3731.7 2858.39 3733.72 2873.04 3725.95 2883.33C3724.95 2884.64 3626.08 3017.09 3616.9 3160.74C3616.11 3173.1 3605.84 3182.61 3593.6 3182.61Z" fill="#111010"/>
<path d="M3019.21 2390.09C3018.17 2390.09 3017.14 2390.03 3016.09 2389.89C3003.29 2388.17 2994.31 2376.43 2996.01 2363.64C3023.29 2159.08 3117.97 2026.38 3121.99 2020.82C3129.55 2010.39 3144.16 2008.05 3154.59 2015.61C3165.04 2023.15 3167.4 2037.75 3159.85 2048.2C3158.94 2049.48 3067.98 2177.51 3042.35 2369.81C3040.78 2381.55 3030.73 2390.09 3019.21 2390.09Z" fill="#111010"/>
<path d="M4045.73 3316.91C4037.91 3316.91 4030.26 3312.99 4025.85 3305.83C3928.81 3149.01 3939.55 3048.57 3940.05 3044.37C3941.59 3031.55 3953.11 3022.18 3966.04 3023.96C3978.8 3025.5 3987.91 3037.04 3986.46 3049.79C3986.33 3051.14 3978.36 3140.28 4065.58 3281.26C4072.38 3292.22 4068.98 3306.63 4058 3313.41C4054.17 3315.79 4049.92 3316.91 4045.73 3316.91Z" fill="#111010"/>
<path d="M867.302 1085.95C859.423 1085.95 851.755 1081.98 847.345 1074.77C840.619 1063.76 844.087 1049.38 855.088 1042.64C856.396 1041.85 987.364 960.748 1068.15 831.486C1150.34 699.988 1326.08 236.278 1376.42 18.1027C1379.33 5.52325 1391.88 -2.24995 1404.45 0.581675C1417.02 3.48848 1424.86 16.0379 1421.97 28.6023C1369.75 254.882 1193.57 718.987 1107.79 856.249C1020.98 995.139 885.189 1079.03 879.44 1082.53C875.651 1084.85 871.441 1085.95 867.302 1085.95Z" fill="#111010"/>
<path d="M2468.12 2438.26C2463.04 2438.26 2457.5 2437.85 2451.49 2436.86C2368.52 2423.31 2260.58 2310.4 2139.37 2110.33C1896.57 1709.5 1796.07 1543.6 1895.12 1458.06C1925.08 1432.17 1957.27 1422.44 1990.52 1429.13C2070.26 1445.09 2159.02 1558.62 2278.35 1797.28C2311.87 1864.35 2344.01 1926.47 2373.46 1983.37C2501.57 2230.97 2572.13 2367.37 2511.11 2424.6C2507.31 2427.84 2493.48 2438.25 2468.12 2438.25L2468.12 2438.26ZM1970.38 1473.85C1955.41 1473.85 1940.96 1480.22 1925.66 1493.42C1856.51 1553.14 1964.4 1731.27 2179.35 2086.11C2326.49 2328.99 2414.79 2380.64 2454.31 2389.81C2469.75 2393.37 2477.91 2390.48 2480.32 2389.3C2512.41 2353.64 2428.71 2191.84 2331.96 2004.85C2302.42 1947.76 2270.17 1885.44 2236.54 1818.18C2127.33 1599.72 2043.85 1487.44 1981.36 1474.96C1977.66 1474.21 1974 1473.85 1970.38 1473.85Z" fill="#111010"/>
<path d="M1910.37 1499.11C1905.62 1499.11 1900.84 1497.68 1896.7 1494.69C1888.24 1488.59 1816.19 1429.71 1888.63 1244.66C2081.7 751.188 2237.63 453.492 2352.05 359.883C2362.06 351.713 2376.74 353.172 2384.94 363.17C2393.11 373.164 2391.63 387.888 2381.65 396.057C2307.3 456.869 2168.95 656.441 1932.13 1261.7C1873.44 1411.64 1923.52 1456.42 1924.05 1456.81C1934.51 1464.36 1936.87 1478.96 1929.31 1489.43C1924.75 1495.76 1917.6 1499.11 1910.36 1499.11H1910.37Z" fill="#111010"/>
<path d="M3046.22 3380.02C3040.32 3380.02 3034.28 3379.9 3028.04 3379.67C2678.82 3366.5 2185.48 3272.32 1818.25 2898.52C1459.79 2533.6 1192 2368.55 863.165 2309.83C541.083 2252.32 193.856 2038.76 148.679 1870.37C102.285 1697.44 293.736 1383.07 584.42 1255.48C593.316 1213.94 629.611 1088.42 748.791 1049.88C887.793 1004.91 921.257 1105.58 967.636 1244.91C972.137 1258.42 976.823 1272.52 981.815 1287.14C1038.26 1452.68 1191.73 1588.89 1372.8 1634.18C1560.05 1681.04 1864.11 1580.97 1867.15 1579.97C1879.41 1575.89 1892.63 1582.52 1896.71 1594.75C1900.78 1606.98 1894.17 1620.21 1881.94 1624.29C1868.96 1628.62 1561.92 1729.64 1361.47 1679.5C1165.4 1630.48 999.015 1482.38 937.575 1302.23C932.554 1287.49 927.828 1273.28 923.292 1259.67C873.72 1110.77 853.728 1065.04 763.18 1094.32C650.099 1130.9 628.423 1273.92 628.228 1275.35C627.055 1283.51 621.687 1290.44 614.095 1293.61C320.744 1416.21 156.904 1720.67 193.826 1858.27C229.921 1992.81 549.663 2206.39 871.38 2263.85C1210.79 2324.45 1485.61 2493.21 1851.59 2865.79C2208.05 3228.64 2689.06 3320.13 3029.81 3332.99C3092.43 3335.42 3172.31 3325.23 3197.94 3263.56C3235.72 3172.62 3146.49 3001.39 2980.93 2847.18C2709.82 2594.66 2483.56 2428.05 2481.3 2426.41C2470.9 2418.77 2468.65 2404.15 2476.27 2393.75C2483.92 2383.3 2498.58 2381.12 2508.92 2388.71C2511.2 2390.39 2739.54 2558.47 3012.78 2812.98C3198.02 2985.53 3287.64 3169.43 3241.08 3281.5C3222.13 3327.08 3172.85 3380.03 3046.22 3380.03L3046.22 3380.02Z" fill="#111010"/>
<path d="M148.608 1788.86C148.608 1788.86 -2.29211 1819.05 39.2055 2060.48C80.7031 2301.92 669.218 2479.22 982.334 2535.81C1295.46 2592.4 1574.62 2811.2 1827.38 3045.09C2080.14 3278.99 2163.13 3437.43 2612.06 3494.02C3060.99 3550.61 3198.7 3460.85 3211.96 3287.32C3211.96 3287.32 3207.66 3435.75 2634.47 3306.44C2061.28 3177.13 1852.68 2894.51 1757.71 2805.35C1662.75 2716.2 1329.2 2398.7 1020.15 2323.05C711.111 2247.41 235.377 2177.42 148.608 1788.86V1788.86Z" fill="#111010"/>
<path d="M2847.9 3534.36C2778.85 3534.36 2699.57 3528.61 2609.14 3517.21C2226.77 3469.01 2100.23 3344.31 1925.11 3171.71C1889.72 3136.83 1853.13 3100.77 1811.51 3062.25C1577.21 2845.43 1294.99 2616.07 978.173 2558.83C665.096 2502.23 61.13 2326.07 16.1692 2064.44C-28.6563 1803.61 142.301 1766.31 144.035 1765.96C156.309 1763.53 168.633 1771.36 171.415 1783.77C246.511 2120.08 625.894 2207.66 930.746 2278.03C963.648 2285.61 995.468 2292.96 1025.71 2300.37C1334.92 2376.05 1660.98 2682.41 1768.11 2783.08L1773.69 2788.33C1785.76 2799.65 1799.62 2814.02 1815.75 2830.77C1922.49 2941.52 2144.59 3171.98 2639.61 3283.66C3006.89 3366.49 3129.87 3333.23 3170.52 3306.04C3185.9 3295.74 3188.39 3286.75 3188.68 3285.38C3189.73 3272.82 3200.39 3263.69 3213.2 3264C3225.87 3264.66 3235.7 3275.33 3235.32 3288.01C3235.32 3288.44 3235.27 3289.06 3235.21 3289.82C3229.45 3363.38 3202.98 3418.46 3154.3 3458.18C3091.75 3509.24 2992.22 3534.36 2847.9 3534.36ZM132.307 1820.04C97.4104 1838.51 34.4522 1894.94 62.2276 2056.53C99.6005 2273.99 648.973 2451.83 986.477 2512.83C1315.12 2572.23 1603.99 2806.57 1843.24 3027.97C1885.4 3066.97 1922.26 3103.29 1957.9 3138.43C2132.78 3310.77 2248.3 3424.64 2614.98 3470.85C2877.22 3503.9 3043.98 3487.95 3124.75 3421.98C3146.22 3404.47 3162.02 3383.42 3172.67 3357.77C3079.81 3398.46 2893.69 3388.88 2629.32 3329.24C2120.64 3214.48 1891.99 2977.22 1782.1 2863.18C1766.6 2847.09 1753.29 2833.28 1741.71 2822.4L1736.12 2817.14C1631.19 2718.54 1311.87 2418.52 1014.6 2345.76C984.548 2338.4 952.923 2331.12 920.231 2323.56C626.655 2255.79 227.221 2163.6 132.302 1820.04H132.307Z" fill="#111010"/>
<path d="M49.6094 2128.5L35.7869 2172.5C7.54547 2262.41 28.3694 2346.91 87.5837 2382.68C147.269 2418.74 232.55 2397.22 299.147 2329.31L331.964 2295.84L49.6094 2128.5V2128.5Z" fill="#111010"/>
<path d="M152.008 2423.37C124.689 2423.37 98.5875 2416.62 75.5132 2402.68C6.88172 2361.21 -18.0369 2265.91 13.5123 2165.51L27.3097 2121.49C29.4548 2114.68 34.582 2109.23 41.2426 2106.68C47.8732 2104.11 55.3608 2104.73 61.5203 2108.4L343.885 2275.75C350.059 2279.4 354.214 2285.7 355.141 2292.81C356.068 2299.93 353.683 2307.08 348.661 2312.21L315.833 2345.67C266.172 2396.31 206.677 2423.37 152.008 2423.37ZM63.0689 2163.62L58.0923 2179.5C33.1135 2258.96 49.8328 2332.57 99.665 2362.68C149.983 2393.08 223.471 2373.13 282.46 2312.95L294.433 2300.75L63.0689 2163.62Z" fill="#111010"/>
<path d="M371.944 2323.73L362.817 2368.94C344.173 2461.32 373.758 2543.16 436.405 2572.51C499.544 2602.1 582.098 2571.75 641.192 2497.22L670.316 2460.49L371.944 2323.73Z" fill="#111010"/>
<path d="M487.915 2607.12C466.605 2607.12 445.841 2602.74 426.491 2593.67C353.905 2559.66 319.098 2467.48 339.907 2364.32L349.033 2319.12C350.447 2312.12 354.982 2306.16 361.337 2302.92C367.712 2299.71 375.195 2299.53 381.675 2302.51L680.042 2439.27C686.568 2442.25 691.359 2448.07 693.033 2455.05C694.707 2462.04 693.078 2469.4 688.622 2475.01L659.509 2511.73C610.864 2573.09 547.295 2607.12 487.91 2607.12H487.915ZM389.013 2357.26L385.725 2373.57C369.251 2455.2 393.603 2526.65 446.327 2551.35C499.583 2576.3 570.545 2548.74 622.883 2482.71L633.498 2469.32L389.008 2357.27L389.013 2357.26Z" fill="#111010"/>
<path d="M2018.65 3249.73L2009.53 3294.94C1990.88 3387.32 2020.47 3469.16 2083.12 3498.51C2146.25 3528.1 2228.81 3497.75 2287.9 3423.22L2317.03 3386.49L2018.65 3249.73Z" fill="#111010"/>
<path d="M2134.61 3533.12C2113.32 3533.12 2092.55 3528.74 2073.2 3519.68C2000.6 3485.65 1965.79 3393.49 1986.62 3290.33L1995.74 3245.1C1997.16 3238.11 2001.69 3232.14 2008.05 3228.91C2014.44 3225.68 2021.91 3225.5 2028.39 3228.5L2326.75 3365.26C2333.28 3368.24 2338.07 3374.06 2339.74 3381.04C2341.42 3388.01 2339.79 3395.37 2335.33 3401L2306.22 3437.73C2257.57 3499.08 2194.01 3533.12 2134.61 3533.12ZM2035.72 3283.25L2032.44 3299.57C2015.95 3381.21 2040.3 3452.65 2093.04 3477.36C2146.31 3502.31 2217.25 3474.73 2269.59 3408.71L2280.21 3395.31L2035.72 3283.25Z" fill="#111010"/>
<path d="M2389.55 3391.25L2388.73 3437.38C2387.04 3531.6 2430.9 3606.76 2497.81 3624.34C2565.25 3642.06 2640.98 3597.32 2685.67 3513.35L2707.69 3471.98L2389.55 3391.25Z" fill="#111010"/>
<path d="M2527.81 3651.57C2515.74 3651.57 2503.72 3650.05 2491.88 3646.94C2414.31 3626.56 2363.48 3542.17 2365.36 3436.94L2366.19 3390.83C2366.32 3383.7 2369.7 3377.01 2375.37 3372.67C2381.02 3368.34 2388.35 3366.86 2395.3 3368.6L2713.44 3449.32C2720.39 3451.08 2726.16 3455.95 2729.06 3462.53C2731.97 3469.08 2731.7 3476.61 2728.32 3482.95L2706.29 3524.33C2663.88 3604.01 2595.4 3651.57 2527.8 3651.57L2527.81 3651.57ZM2412.38 3421.15L2412.09 3437.78C2410.6 3521.06 2447.43 3586.95 2503.74 3601.74C2560.64 3616.74 2625.45 3576.74 2665.04 3502.36L2673.07 3487.29L2412.38 3421.15L2412.38 3421.15Z" fill="#111010"/>
<path d="M2745.95 3495.98L2761.38 3539.45C2792.89 3628.27 2860.35 3683.25 2929.17 3676.21C2998.54 3669.12 3053.73 3600.64 3066.09 3506.33L3072.18 3459.85L2745.95 3495.98V3495.98Z" fill="#111010"/>
<path d="M2917.31 3700.18C2842.73 3700.18 2772.47 3640.54 2739.35 3547.28L2723.93 3503.81C2721.55 3497.07 2722.36 3489.63 2726.15 3483.57C2729.95 3477.54 2736.29 3473.55 2743.38 3472.76L3069.6 3436.62C3076.72 3435.81 3083.83 3438.35 3088.86 3443.5C3093.88 3448.62 3096.27 3455.77 3095.34 3462.88L3089.26 3509.36C3075.43 3614.83 3012.04 3691.22 2931.55 3699.45C2926.8 3699.94 2922.04 3700.19 2917.31 3700.19V3700.18ZM2777.84 3515.96L2783.41 3531.64C2811.26 3610.15 2869.06 3658.89 2926.8 3652.97C2985.31 3646.99 3031.98 3586.84 3042.93 3503.29L3045.15 3486.35L2777.84 3515.96Z" fill="#111010"/>
<path d="M986.103 1721.7C981.858 1721.7 977.583 1720.56 973.739 1718.16C699.038 1546.45 588.197 1291.96 583.601 1281.22C578.549 1269.36 584.057 1255.63 595.92 1250.57C607.753 1245.51 621.505 1251.02 626.572 1262.86C627.655 1265.37 736.747 1514.91 998.502 1678.51C1009.44 1685.36 1012.77 1699.78 1005.94 1710.71C1001.5 1717.8 993.892 1721.7 986.103 1721.7Z" fill="#111010"/>
<path d="M1590.39 1833.16C1463.9 1833.16 1377.53 1813.13 1371.12 1811.59C1358.57 1808.6 1350.85 1795.99 1353.83 1783.45C1356.82 1770.9 1369.37 1763.07 1381.97 1766.14C1384.7 1766.79 1658.51 1829.94 1946.88 1726.71C1958.96 1722.39 1972.41 1728.68 1976.76 1740.83C1981.11 1752.99 1974.78 1766.36 1962.64 1770.71C1826.19 1819.55 1694.65 1833.16 1590.39 1833.16Z" fill="#111010"/>
<path d="M687.201 1412.25C687.201 1412.25 580.886 1614.66 670.327 1779.1C759.762 1943.54 958.885 2123.2 940.843 2323.73L1279.91 2433.35C1279.91 2433.35 1201.15 2154.8 986.115 1951.09C771.079 1747.38 791.797 1617.13 811.619 1559.65L687.201 1412.25Z" fill="#111010"/>
<path d="M1518.03 1809.48C1518.03 1809.48 1789.66 1964.51 1914.14 2323.73C2038.64 2682.94 1954.77 3039.44 1954.77 3039.44L2195.39 3192.22C2195.39 3192.22 2195.73 2539.92 2004 2209.66C1812.28 1879.4 1738.71 1800.06 1738.71 1800.06L1518.03 1809.48Z" fill="#111010"/>
<path d="M2449.83 2819.24C2447.17 2819.24 2444.48 2818.55 2442.01 2817.12C2434.58 2812.8 2432.05 2803.27 2436.39 2795.83C2533.27 2629.21 2734.86 2593.92 2743.39 2592.5C2751.79 2591.01 2759.88 2596.82 2761.31 2605.29C2762.72 2613.78 2756.99 2621.8 2748.52 2623.22C2746.57 2623.55 2552.7 2657.74 2463.31 2811.49C2460.42 2816.46 2455.2 2819.24 2449.83 2819.24Z" fill="#111010"/>
<path d="M2215.95 3173.85C2213.91 3173.85 2211.84 3173.46 2209.85 3172.6C2201.94 3169.24 2198.24 3160.1 2201.62 3152.18C2204.25 3145.96 2267 2998.91 2320.14 2922.99C2325.08 2915.95 2334.79 2914.22 2341.83 2919.16C2348.89 2924.08 2350.59 2933.81 2345.67 2940.85C2294.39 3014.09 2230.91 3162.87 2230.28 3164.38C2227.77 3170.29 2222 3173.85 2215.95 3173.85Z" fill="#111010"/>
<path d="M513.788 1665.81C506.06 1665.81 499.354 1660.08 498.346 1652.21C474.771 1467.26 380.96 1427.11 380.018 1426.73C372.094 1423.51 368.185 1414.47 371.348 1406.51C374.525 1398.59 383.381 1394.65 391.41 1397.72C395.96 1399.5 503.123 1443.37 529.254 1648.26C530.337 1656.81 524.297 1664.6 515.777 1665.69C515.106 1665.77 514.439 1665.81 513.783 1665.81H513.788Z" fill="#111010"/>
<path d="M477.044 2177.71C474.247 2177.71 471.431 2176.96 468.875 2175.39C461.558 2170.87 459.292 2161.27 463.808 2153.96C541.857 2027.61 498.976 1805.34 498.535 1803.1C496.861 1794.67 502.339 1786.47 510.778 1784.8C519.158 1782.99 527.387 1788.59 529.076 1797.03C530.991 1806.62 574.834 2033.5 490.305 2170.32C487.368 2175.1 482.261 2177.71 477.039 2177.71H477.044Z" fill="#111010"/>
<path d="M2497.22 2383.44C2496 2383.44 2494.77 2383.38 2493.52 2383.26C2374.84 2371.51 1927.24 1597.57 1876.58 1509.37C1872.29 1501.9 1874.88 1492.39 1882.33 1488.1C1889.81 1483.84 1899.32 1486.38 1903.59 1493.85C2148.33 1920.11 2445.46 2369.52 2497.91 2352.22C2503.56 2345.73 2513.52 2344.95 2519.98 2350.63C2526.46 2356.3 2527.23 2366.02 2521.57 2372.5C2515.35 2379.61 2506.8 2383.43 2497.22 2383.43V2383.44Z" fill="#111010"/>
<path d="M2707.71 3265.3C2706.91 3265.3 2706.08 3265.24 2705.26 3265.11C2394.92 3215.93 2041.17 2997.13 1878.46 2814.01C1727.43 2644.05 1371.74 2415.38 1368.17 2413.09C1360.91 2408.45 1358.81 2398.82 1363.45 2391.58C1368.09 2384.29 1377.69 2382.19 1384.96 2386.86C1399.71 2396.31 1747.88 2620.17 1901.73 2793.32C2060.83 2972.34 2406.7 3186.25 2710.13 3234.34C2718.64 3235.68 2724.43 3243.67 2723.08 3252.16C2721.86 3259.84 2715.24 3265.3 2707.71 3265.3V3265.3Z" fill="#111010"/>
<path d="M986.117 1357.41C982.574 1357.41 979.015 1356.2 976.094 1353.76C969.508 1348.22 968.656 1338.4 974.194 1331.81C976.279 1329.32 1183.7 1080.52 1322.53 741.755C1462.11 401.253 1541.98 145.755 1542.78 143.214C1545.35 135.015 1554.03 130.454 1562.28 132.96C1570.49 135.516 1575.09 144.247 1572.53 152.461C1571.74 155.017 1491.49 411.718 1351.36 753.557C1210.61 1097.02 1000.15 1349.34 998.05 1351.85C994.963 1355.52 990.548 1357.41 986.117 1357.41Z" fill="#111010"/>
<path d="M1621.98 1665.81C1613.07 1665.63 1606.24 1658.52 1606.4 1649.91C1606.55 1642.51 1612.18 1463.84 1798.28 1080.38C1983.46 698.814 2238.45 340.425 2241 336.852C2246 329.856 2255.74 328.227 2262.72 333.234C2269.72 338.225 2271.35 347.958 2266.34 354.954C2263.8 358.513 2010.3 714.846 1826.29 1093.98C1643.18 1471.34 1637.58 1648.81 1637.55 1650.56C1637.39 1659.05 1630.43 1665.81 1621.98 1665.81Z" fill="#111010"/>
<path d="M1399.18 1665.81C1396.95 1665.81 1394.68 1665.34 1392.53 1664.31C1384.76 1660.63 1381.43 1651.35 1385.13 1643.57C1387.2 1639.18 1595.94 1199.48 1843.21 768.226C2091.31 335.519 2180.95 247.628 2184.65 244.1C2190.87 238.136 2200.65 238.412 2206.62 244.571C2212.56 250.761 2212.36 260.604 2206.2 266.583C2205.32 267.435 2114.65 357.455 1870.23 783.713C1623.57 1213.92 1415.36 1652.52 1413.27 1656.9C1410.61 1662.53 1405.02 1665.81 1399.18 1665.81Z" fill="#111010"/>
<path d="M1211.29 1608.37C1207.82 1608.37 1204.34 1607.21 1201.45 1604.86C1194.79 1599.41 1193.8 1589.59 1199.24 1582.94C1370.01 1374.2 1810.34 260.855 1814.77 249.628C1817.93 241.63 1826.94 237.751 1834.98 240.853C1842.98 244.015 1846.91 253.066 1843.76 261.07C1825.6 307.068 1397.17 1390.17 1223.37 1602.65C1220.28 1606.43 1215.81 1608.37 1211.29 1608.37Z" fill="#111010"/>
<path d="M912.579 1175.24C907.622 1175.24 902.736 1172.87 899.708 1168.45C894.857 1161.35 896.681 1151.66 903.768 1146.81C905.076 1145.9 1036.78 1054.07 1172.61 822.764C1249.08 692.575 1265.79 612.427 1276.87 559.383C1286.1 515.105 1292.78 483.1 1327.36 456.207C1379.3 415.822 1436.17 176.888 1453.69 88.2209C1455.37 79.7962 1463.63 74.3785 1472 75.9623C1480.43 77.6362 1485.92 85.8353 1484.26 94.2751C1477.57 128.059 1416.96 425.996 1346.49 480.789C1320.92 500.671 1316.1 523.79 1307.36 565.743C1295.87 620.777 1278.51 703.937 1199.46 838.552C1059.72 1076.48 926.908 1168.71 921.324 1172.52C918.648 1174.35 915.591 1175.23 912.564 1175.23L912.579 1175.24Z" fill="#111010"/>
<path d="M1092.2 1517.19C1089.08 1517.19 1085.92 1516.24 1083.18 1514.29C1076.18 1509.31 1074.54 1499.57 1079.53 1492.57C1080.09 1491.78 1137.27 1410.63 1289.29 1128.83C1293.37 1121.25 1302.86 1118.41 1310.39 1122.52C1317.97 1126.59 1320.8 1136.04 1316.71 1143.62C1163.35 1427.93 1107.22 1507.4 1104.9 1510.66C1101.86 1514.92 1097.07 1517.19 1092.2 1517.19H1092.2Z" fill="#111010"/>
<path d="M2745.98 2347.09C2744.29 2347.09 2742.58 2346.91 2740.86 2346.53C2728.28 2343.72 2720.35 2331.23 2723.15 2318.65C2723.77 2315.82 2783.71 2032.56 2579.89 1785.73C2574.4 1779.08 2573.02 1769.96 2576.29 1761.98C2579.56 1754.02 2586.94 1748.49 2595.51 1747.61C2605.48 1746.5 2842.44 1715.85 2885.85 1339.17C2913.51 1099.19 2882.92 909.41 2855.02 798.275C2829.64 734.571 2819.58 685.821 2819.28 684.298C2816.97 672.585 2823.84 661.024 2835.23 657.465C2846.64 653.877 2858.85 659.505 2863.63 670.456C2865.52 674.806 2884.35 719.054 2903.27 796.45C2954.53 920.541 3064.74 1089.58 3279.32 1049.99C3610.88 988.58 3682.35 793.639 3685.22 785.364C3689.43 773.211 3702.68 766.746 3714.9 770.9C3727.07 775.085 3733.58 788.271 3729.46 800.455C3726.29 809.761 3648.02 1029.23 3287.84 1095.93C3115.33 1127.95 3001.92 1041.19 2929.97 939.224C2944.48 1047.42 2950.7 1184.71 2932.28 1344.52C2894.66 1670.89 2718.56 1761.18 2639.05 1785.49C2830.17 2042.45 2771.45 2316.89 2768.76 2328.88C2766.31 2339.74 2756.68 2347.1 2745.99 2347.1L2745.98 2347.09Z" fill="#111010"/>
<path d="M4571.35 976.157C4567.16 976.157 4562.94 975.045 4559.12 972.689C4354.12 846.439 4325.83 656.815 4334.44 529.502C4237.91 676.957 4154.78 730.182 4097.95 747.597C4037.83 766.036 4000.9 747.748 3996.9 745.633C3985.51 739.549 3981.2 725.4 3987.28 714.024C3993.31 702.752 4007.21 698.387 4018.56 704.226C4021.79 705.654 4163.72 765.815 4360.98 391.595C4366.7 380.749 4379.84 376.203 4391.11 381.13C4402.34 386.117 4407.79 398.957 4403.6 410.504C4398.61 424.226 4284.78 748.86 4583.61 932.896C4594.6 939.667 4598.03 954.055 4591.26 965.036C4586.85 972.218 4579.18 976.157 4571.35 976.157Z" fill="#111010"/>
<path d="M3671.55 3883.32C3661.47 3883.32 3652.45 3876.81 3649.33 3867.13C3559.64 3588.78 3328.4 3411.65 3326.07 3409.9C3315.77 3402.11 3313.73 3387.46 3321.51 3377.16C3329.3 3366.85 3343.95 3364.84 3354.24 3372.6C3363.59 3379.65 3570.64 3538.32 3674.24 3798.48C3713.56 3736.13 3810.38 3639.96 4041.97 3602.54C4305.75 3559.91 4463.06 3613.39 4523.91 3641.85C4540.49 3580.58 4590.43 3443.61 4720.03 3358.45C4833.03 3284.21 4977.98 3268.24 5150.92 3311.01C5163.44 3314.11 5171.08 3326.77 5167.98 3339.3C5164.89 3351.82 5152.28 3359.5 5139.69 3356.37C4979.97 3316.88 4847.39 3330.72 4745.69 3397.51C4595.26 3496.32 4563.17 3678.84 4562.86 3680.68C4561.56 3688.48 4556.38 3695.1 4549.11 3698.25C4541.81 3701.4 4533.44 3700.64 4526.87 3696.27C4525.41 3695.33 4370.29 3596.9 4049.43 3648.66C3733.18 3699.77 3694.76 3863.2 3694.41 3864.84C3692.2 3875.19 3683.32 3882.76 3672.75 3883.29C3672.35 3883.31 3671.95 3883.32 3671.55 3883.32Z" fill="#111010"/>
</svg>
