<svg width="6246" height="4163" viewBox="0 0 6246 4163" fill="none" xmlns="http://www.w3.org/2000/svg">
<path d="M5112.03 3351.47C5085.75 3351.47 5059.47 3350.56 5033.18 3348.7C4409.97 3305.08 3938.42 2762.53 3982.05 2139.27C3990.48 2018.92 4017.58 1901.89 4062.61 1791.46C4116.61 1657.82 4195.28 1536.86 4296.43 1432.03C4451.22 1271.61 4647.11 1161.3 4862.93 1113.02C4969.74 1088.74 5080.3 1080.35 5191.53 1088.14C5253.71 1092.52 5314.92 1101.83 5373.42 1115.82C5916.1 1243.44 6281.68 1740.48 6242.65 2297.6C6227.53 2513.32 6152.02 2718.52 6024.22 2890.95C5906.85 3050.33 5748.5 3176.83 5566.36 3256.77C5423.77 3319.2 5268.13 3351.47 5112.03 3351.47ZM5111.21 1132.02C5030.68 1132.02 4950.92 1140.91 4873.22 1158.58C4666.29 1204.88 4478.48 1310.66 4330.08 1464.45C4233.1 1564.96 4157.68 1680.9 4105.9 1809.04C4062.73 1914.94 4036.75 2027.13 4028.66 2142.55C3986.83 2740.11 4438.94 3260.26 5036.47 3302.09C5213.65 3314.44 5385.62 3284.84 5547.59 3213.96C5722.25 3137.32 5874.09 3016 5986.65 2863.19C6109.16 2697.85 6181.57 2501.14 6196.05 2294.3C6233.47 1760.18 5882.97 1283.65 5362.62 1161.29C5306.53 1147.85 5247.9 1138.93 5188.24 1134.73C5162.51 1132.94 5136.83 1132.02 5111.21 1132.02Z" fill="#111010"/>
<path d="M5911.43 2024.34L5805.67 1710.33L5480.85 1644.92L5261.79 1893.51L5367.55 2207.52L5692.37 2272.93L5911.43 2024.34Z" fill="#111010"/>
<path d="M4695.88 1817.91L4476.79 2066.57L4151.76 2001.26L4084.24 1800.28C4137.69 1667.96 4216.24 1548.77 4313.28 1448.23L4589.92 1503.92L4695.88 1817.91Z" fill="#111010"/>
<path d="M5173.84 2562.66L4882.54 2404.74L4600.14 2578.05L4609.03 2909.27L4900.32 3067.18L5182.72 2893.87L5173.84 2562.66Z" fill="#111010"/>
<path d="M5367.97 1138.54L5080.31 1278.86L4868.06 1135.79C4971.08 1112.37 5079.03 1103.67 5189.89 1111.43C5250.85 1115.7 5310.39 1124.75 5367.97 1138.54Z" fill="#111010"/>
<path d="M6005.47 2877.02C5890.44 3033.22 5735.39 3157.08 5556.97 3235.39L5533.38 3204.46L5660.78 2898.69L5989.33 2855.83L6005.46 2877.02H6005.47Z" fill="#111010"/>
<path d="M4291.32 2965.8C4168.04 2838.77 4079.89 2680.59 4036.26 2508.23L4067.64 2491.66L4323.68 2652.33L4312.82 2954.47L4291.32 2965.81L4291.32 2965.8Z" fill="#111010"/>
<path d="M5527.46 1856.98C5516.26 1856.98 5506.35 1848.89 5504.46 1837.48C5408.29 1263.48 5216.12 1135.03 5214.17 1133.82C5203.34 1126.92 5200.05 1112.53 5206.87 1101.67C5213.68 1090.84 5227.92 1087.37 5238.84 1094.12C5247.42 1099.42 5450.16 1230.48 5550.52 1829.76C5552.68 1842.47 5544.07 1854.52 5531.36 1856.65C5530.05 1856.9 5528.74 1856.99 5527.46 1856.99V1856.98Z" fill="#111010"/>
<path d="M5784.83 1758.69C5776.46 1758.69 5768.4 1754.19 5764.21 1746.31C5758.15 1734.93 5762.44 1720.78 5773.82 1714.7C5775.01 1714.06 5893.01 1649.72 5955.53 1513.06C5960.92 1501.29 5974.82 1496.12 5986.47 1501.53C5998.21 1506.88 6003.38 1520.76 5998 1532.47C5928.67 1684.06 5801.17 1753.09 5795.75 1755.95C5792.28 1757.81 5788.51 1758.69 5784.83 1758.69Z" fill="#111010"/>
<path d="M4589.96 1527.39C4586.37 1527.39 4582.75 1526.56 4579.31 1524.8C4567.84 1518.93 4563.3 1504.84 4569.21 1493.38C4576.69 1478.74 4756.09 1134.46 5029.41 1095C5042.06 1093.38 5054.05 1102.02 5055.88 1114.77C5057.73 1127.55 5048.88 1139.42 5036.1 1141.24C4786.76 1177.23 4612.5 1511.33 4610.77 1514.71C4606.63 1522.77 4598.44 1527.39 4589.96 1527.39Z" fill="#111010"/>
<path d="M4636.19 2647.56C4629.13 2647.56 4622.2 2644.4 4617.6 2638.37C4415.11 2373.49 4430.14 1985.97 4430.9 1969.6C4431.44 1956.7 4443.92 1946.12 4455.27 1947.34C4468.17 1947.91 4478.14 1958.83 4477.56 1971.71C4477.41 1975.57 4462.69 2358.8 4654.72 2610.02C4662.56 2620.28 4660.58 2634.94 4650.34 2642.76C4646.11 2646.01 4641.12 2647.56 4636.19 2647.56Z" fill="#111010"/>
<path d="M5122.53 2623.07C5117.05 2623.07 5111.58 2621.19 5107.17 2617.32C5097.43 2608.83 5096.46 2594.05 5104.92 2584.34C5200.96 2474.34 5359.19 2167.87 5360.77 2164.79C5366.67 2153.33 5380.78 2148.73 5392.23 2154.69C5403.72 2160.6 5408.23 2174.68 5402.33 2186.15C5395.73 2198.96 5239.87 2500.84 5140.14 2615.07C5135.52 2620.36 5129.04 2623.07 5122.53 2623.07Z" fill="#111010"/>
<path d="M6221.85 2257.67C6214.8 2257.67 6207.83 2254.51 6203.23 2248.46C6098.88 2111.47 5867.73 2027.84 5865.42 2026.98C5853.28 2022.66 5846.93 2009.31 5851.28 1997.14C5855.63 1985 5869.04 1978.61 5881.12 1982.99C5891.13 1986.55 6127.57 2072 6240.41 2220.16C6248.23 2230.41 6246.25 2245.08 6235.97 2252.9C6231.74 2256.12 6226.78 2257.67 6221.85 2257.67Z" fill="#111010"/>
<path d="M5378.91 1935.2C5377.14 1935.2 5375.32 1935.01 5373.52 1934.59C4815.87 1803.62 4552.51 1849.9 4549.86 1850.41C4537.45 1852.82 4525.01 1844.42 4522.63 1831.74C4520.26 1819.08 4528.56 1806.88 4541.22 1804.48C4552.17 1802.47 4815.23 1755.5 5384.23 1889.08C5396.76 1892.03 5404.58 1904.63 5401.63 1917.19C5399.1 1927.93 5389.49 1935.2 5378.91 1935.2Z" fill="#111010"/>
<path d="M6005.39 2900.43C5994.35 2900.43 5984.52 2892.55 5982.45 2881.29C5898.18 2422.01 5648.93 2235.22 5646.44 2233.39C5636.03 2225.79 5633.72 2211.18 5641.33 2200.75C5648.9 2190.35 5663.47 2188.07 5673.91 2195.58C5684.77 2203.46 5940.53 2393.87 6028.39 2872.83C6030.73 2885.55 6022.34 2897.72 6009.65 2900.03C6008.22 2900.31 6006.79 2900.43 6005.39 2900.43Z" fill="#111010"/>
<path d="M5563.29 3249.16C5559.85 3249.16 5556.35 3248.4 5553.03 3246.78C5338.95 3141.92 5121.64 2884.76 5112.52 2873.87C5104.21 2863.98 5105.49 2849.26 5115.38 2840.95C5125.24 2832.68 5139.99 2833.9 5148.3 2843.82C5150.49 2846.4 5368.47 3104.35 5573.6 3204.8C5585.2 3210.49 5589.97 3224.49 5584.31 3236.08C5580.23 3244.35 5571.93 3249.16 5563.29 3249.16Z" fill="#111010"/>
<path d="M4524.33 3176.42C4523.3 3176.42 4522.23 3176.36 4521.2 3176.21C4508.39 3174.51 4499.42 3162.74 4501.15 3149.96C4522.21 2993.32 4635.44 2862.23 4640.24 2856.75C4648.73 2847.05 4663.45 2845.98 4673.19 2854.53C4682.9 2862.99 4683.9 2877.74 4675.44 2887.48C4674.34 2888.73 4566.59 3013.73 4547.46 3156.17C4545.87 3167.91 4535.86 3176.43 4524.34 3176.43L4524.33 3176.42Z" fill="#111010"/>
<path d="M4007.48 2346.96C4005.93 2346.96 4004.35 2346.81 4002.77 2346.48C3990.11 2343.89 3981.96 2331.54 3984.57 2318.91C4026.01 2117.03 4129.56 1991.48 4133.95 1986.22C4142.25 1976.36 4156.95 1975.08 4166.84 1983.3C4176.72 1991.54 4178.06 2006.27 4169.82 2016.19C4168.82 2017.4 4069.3 2138.54 4030.33 2328.29C4028.08 2339.36 4018.34 2346.96 4007.48 2346.96Z" fill="#111010"/>
<path d="M4965.31 3341.7C4956.92 3341.7 4948.79 3337.17 4944.59 3329.2C4858.86 3166.23 4876.6 3066.93 4877.39 3062.76C4879.79 3050.11 4891.99 3041.65 4904.74 3044.23C4917.36 3046.64 4925.64 3058.81 4923.3 3071.43C4922.99 3073.28 4909.15 3161.42 4985.97 3307.48C4991.96 3318.88 4987.59 3333 4976.17 3339.03C4972.67 3340.85 4968.96 3341.7 4965.31 3341.7Z" fill="#111010"/>
<path d="M3718.66 1297.76C3712.66 1297.76 3706.61 1297.64 3700.46 1297.37C3423.41 1285.44 3359.21 1233.12 3352.79 1227.18C3343.33 1218.42 3342.76 1203.64 3351.52 1194.15C3360.34 1184.69 3375.09 1184.17 3384.55 1192.87C3384.58 1192.87 3444.85 1239.6 3702.47 1250.7C3830.48 1255.75 3918.29 1196.03 4003.17 1137.81C4092.91 1076.32 4177.7 1018.34 4289.41 1064.37C4457.16 1133.64 4526.74 1117.67 4545.99 1101.06C4524.09 1073.37 4418.34 1004.1 4324.82 951.079C4314.05 944.964 4309.92 931.518 4315.42 920.412C4320.9 909.306 4334.04 904.44 4345.5 909.246C4348.73 910.644 4674.31 1046.69 5008.26 979.46C5369.52 906.905 5453.74 1136.1 5454.56 1138.42C5458.82 1150.62 5452.37 1163.94 5440.2 1168.17C5427.97 1172.37 5414.8 1166.01 5410.48 1153.93C5407.61 1146 5336.94 960.937 5017.48 1025.28C4823.86 1064.28 4636.62 1039.18 4506.01 1008.21C4610.82 1081.89 4598.71 1104.68 4591.98 1117.31C4579.45 1140.95 4519.39 1209.94 4271.57 1107.58C4183.11 1071.01 4115.42 1117.52 4029.6 1176.36C3946.36 1233.43 3852.45 1297.77 3718.65 1297.77L3718.66 1297.76Z" fill="#111010"/>
<path d="M3623.38 1515.83C3619.15 1515.83 3614.86 1514.67 3611.03 1512.27C3458.98 1417.18 3236.01 1416.81 3205.22 1426.64C3195.06 1432.42 3181.92 1429.68 3174.89 1419.98C3167.29 1409.54 3169.63 1394.94 3180.06 1387.37C3209.06 1366.25 3466.22 1366.62 3635.79 1472.67C3646.74 1479.52 3650.06 1493.94 3643.21 1504.86C3638.77 1511.94 3631.17 1515.83 3623.38 1515.83Z" fill="#111010"/>
<path d="M3604 2100.78C3596.75 2100.78 3589.63 2097.44 3585.07 2091.14C3582.42 2087.67 3514.98 2002.13 3332.53 2053.99C3156.05 2104.07 3096.7 2048 2998.22 1955.03C2975.07 1933.16 2948.81 1908.36 2917.91 1881.87C2880.64 1849.89 2840.84 1836.17 2800.11 1840.89C2708.72 1851.53 2636.65 1949.07 2635.92 1950.07C2628.95 1959.59 2616.02 1962.42 2605.67 1956.73C2595.39 1951.01 2590.95 1938.51 2595.36 1927.59C2654.44 1781.23 2928.95 1609.77 3142.93 1682.78C3184.01 1696.8 3221.09 1716.24 3260.37 1736.84C3361.43 1789.87 3465.87 1844.78 3646.21 1800.73C3688.01 1790.54 3712.96 1773.59 3720.41 1750.38C3733.43 1709.92 3694.49 1652.39 3678.37 1633.65C3669.97 1623.88 3671.07 1609.13 3680.84 1600.73C3690.6 1592.31 3705.33 1593.4 3713.75 1603.14C3716.83 1606.67 3788.53 1690.78 3764.95 1764.53C3752.24 1804.35 3716 1831.79 3657.29 1846.12C3459.94 1894.25 3342.38 1832.61 3238.64 1778.21C3201.04 1758.5 3165.51 1739.85 3127.84 1727.01C3013.33 1687.98 2875.8 1730.18 2774.18 1797.99C2780.81 1796.5 2787.57 1795.31 2794.47 1794.49C2848.87 1788.13 2900.71 1805.57 2948.32 1846.39C2980.05 1873.59 3006.76 1898.81 3030.31 1921.05C3128.33 2013.56 3168.82 2051.89 3319.75 2009.03C3535.63 1947.7 3619.41 2058.92 3622.85 2063.7C3630.45 2074.13 3628.14 2088.74 3617.68 2096.31C3613.54 2099.32 3608.73 2100.78 3603.99 2100.78L3604 2100.78Z" fill="#111010"/>
<path d="M3581.84 2544.64C3506.15 2544.64 3391.19 2531.07 3343.18 2454.74C3289 2368.59 3241.96 2378.24 3239.98 2378.75C3231.86 2380.64 3223.01 2378.12 3217.29 2372C3211.6 2365.89 3209.26 2357.28 3211.72 2349.31C3228.61 2294.03 3325.66 2246.39 3505.43 2265.04C3536.79 2268.29 3577.65 2267.29 3594.6 2244.32C3613.67 2218.43 3599.77 2170.36 3592.77 2154.03C3587.72 2142.2 3593.2 2128.45 3605.03 2123.36C3616.8 2118.44 3630.58 2123.7 3635.7 2135.53C3637.15 2138.91 3671.11 2219.04 3632.32 2271.89C3608.25 2304.74 3563.96 2317.97 3500.62 2311.52C3383.64 2299.42 3314.31 2317.58 3280.79 2337.9C3309.59 2347.82 3346.56 2372.37 3382.73 2429.87C3430.04 2505.01 3589.48 2501.81 3646.92 2494.24C3659.51 2492.33 3671.44 2501.51 3673.14 2514.32C3674.85 2527.1 3665.87 2538.84 3653.07 2540.55C3649.78 2541 3621.09 2544.66 3581.85 2544.66L3581.84 2544.64Z" fill="#111010"/>
<path d="M3876.1 3513.1C3875.55 3513.1 3875 3513.07 3874.42 3513.04C3665.09 3498.38 3537.77 3338.27 3532.48 3331.45C3524.75 3321.57 3526.21 3307.36 3535.76 3299.24C3545.28 3291.14 3559.58 3292.03 3568.07 3301.25C3569.23 3302.47 3691.68 3429.23 3989.18 3410.71C4088.81 3404.62 4161.92 3366.45 4184.7 3308.58C4196.84 3277.79 4191.73 3245.33 4171.35 3223.86C4144.66 3195.66 4098 3190.12 4043.39 3208.31C3812.24 3285.71 3433.42 3138.89 3179.27 2989.73C2953.45 2857.3 2820.81 3007.01 2815.27 3013.43C2806.87 3023.2 2792.12 3024.32 2782.38 3016.02C2772.58 3007.65 2771.34 2993.02 2779.64 2983.19C2866.35 2880.54 3180.16 2743.13 3436.25 2763.14C3544.16 2771.63 3634.61 2802.02 3707.26 2826.42C3817.42 2863.41 3857.66 2872.48 3877.99 2829.34C3885.2 2814.01 3885.53 2799.95 3879.02 2785.08C3855.48 2731.23 3751.89 2688.28 3713.98 2676.26C3701.66 2672.37 3694.84 2659.26 3698.74 2646.96C3702.6 2634.67 3715.62 2627.67 3728.04 2631.72C3744.04 2636.77 3885.5 2683.44 3921.79 2766.28C3933.63 2793.29 3933.11 2821.95 3920.28 2849.24C3880.42 2933.93 3797.46 2906.01 3692.38 2870.72C3622.16 2847.14 3534.76 2817.75 3432.6 2809.75C3290.41 2798.55 3135.68 2838.01 3015.06 2889.21C3069.7 2891.55 3132.7 2908.22 3202.94 2949.44C3467.95 3104.93 3825.87 3231.61 4028.61 3164.01C4101.14 3139.74 4165.54 3149.8 4205.24 3191.7C4238.25 3226.5 4247.04 3277.85 4228.18 3325.7C4198.55 3400.94 4110.26 3450.13 3992.04 3457.37C3906.92 3462.49 3835.21 3456.77 3775.56 3445.2C3806.74 3456.06 3840.9 3463.85 3877.72 3466.44C3890.59 3467.35 3900.29 3478.52 3899.38 3491.39C3898.53 3503.71 3888.24 3513.11 3876.1 3513.11L3876.1 3513.1Z" fill="#111010"/>
<path d="M4121.85 3709.23C4118.14 3709.23 4114.4 3708.35 4110.96 3706.52C4101.31 3701.41 4096.45 3690.37 4099.27 3679.84C4125.65 3581.7 4196.62 3460.35 4385.06 3439.57C4426.99 3434.94 4442.62 3427.86 4447.98 3424.42C4444.17 3419.43 4434.9 3411.79 4426.47 3407.05C4415.24 3400.69 4411.25 3386.45 4417.55 3375.22C4423.88 3363.97 4438.15 3360.04 4449.28 3366.25C4461.9 3373.3 4502.46 3398.98 4495.4 3433.88C4487.94 3470.6 4435.25 3481.03 4390.16 3485.99C4280.61 3498.1 4217.24 3549.45 4180.68 3607.43C4260.63 3556.02 4403.64 3498.06 4613.89 3536.36C4639.72 3541.11 4666.46 3546.28 4693.9 3551.61C5015.04 3613.97 5414.8 3691.58 5599.74 3256.17C5604.79 3244.28 5618.53 3238.86 5630.37 3243.8C5642.26 3248.85 5647.8 3262.56 5642.76 3274.43C5442.97 3744.7 5004.8 3659.58 4684.99 3597.48C4657.73 3592.19 4631.18 3587.05 4605.5 3582.36C4294.88 3525.68 4145.79 3693.89 4139.58 3701.07C4135.02 3706.39 4128.47 3709.22 4121.84 3709.22L4121.85 3709.23Z" fill="#111010"/>
<path d="M3707.74 1370.99C3697.61 1370.99 3687.17 1370.78 3676.43 1370.35C3417.2 1359.73 3224.69 1232.78 3216.6 1227.39C3209.45 1222.59 3207.53 1212.95 3212.31 1205.79C3217.05 1198.65 3226.63 1196.67 3233.94 1201.47C3235.82 1202.75 3427.58 1328.97 3677.71 1339.2C3921.91 1349.42 4004.91 1232.48 4005.73 1231.32C4010.56 1224.23 4020.24 1222.4 4027.33 1227.15C4034.42 1231.92 4036.34 1241.54 4031.59 1248.66C4028.12 1253.86 3946.98 1370.99 3707.74 1370.99L3707.74 1370.99Z" fill="#111010"/>
<path d="M5068.11 3544.16C4851.01 3544.16 4628.99 3509.51 4626.58 3509.14C4618.09 3507.8 4612.28 3499.8 4613.62 3491.32C4614.96 3482.8 4623.02 3477.11 4631.45 3478.36C4634.01 3478.78 4888.91 3518.27 5117.11 3512.36C5335.79 3506.59 5389 3396.52 5389.52 3395.42C5393.08 3387.63 5402.17 3384.17 5410.11 3387.69C5417.9 3391.22 5421.4 3400.35 5417.93 3408.17C5415.59 3413.43 5357.81 3537.16 5117.96 3543.51C5101.45 3543.94 5084.77 3544.15 5068.1 3544.15L5068.11 3544.16Z" fill="#111010"/>
<path d="M3754.22 3108.09C3691.55 3108.09 3621.28 3098.21 3541.42 3068.88C3236.65 2956.9 3186.88 2880.27 3184.9 2877.07C3180.4 2869.74 3182.68 2860.15 3190.01 2855.65C3197.29 2851.15 3206.71 2853.37 3211.31 2860.52C3212.44 2862.16 3264.15 2933.81 3552.19 3039.61C3715.89 3099.79 3838.8 3073.69 3937.43 3052.69C4020.15 3035.14 4091.59 3019.99 4158.63 3060.97C4165.97 3065.47 4168.27 3075.06 4163.8 3082.38C4159.27 3089.75 4149.63 3091.97 4142.39 3087.56C4085.9 3052.99 4023.25 3066.32 3943.91 3083.18C3888.91 3094.86 3826.66 3108.09 3754.22 3108.09V3108.09Z" fill="#111010"/>
<path d="M2628.13 1793.31C2624.73 1793.31 2621.29 1792.18 2618.4 1789.9C2611.71 1784.52 2610.61 1774.72 2615.97 1768.03C2618.31 1765.08 2854.93 1474.46 3140.42 1604.21C3368.29 1707.73 3537.47 1708.8 3584.8 1676.52C3596.85 1668.31 3596.42 1660.79 3596.3 1658.33C3595.81 1649.72 3602.41 1642.38 3610.99 1641.93C3620.94 1641.2 3626.94 1648.04 3627.39 1656.62C3628.09 1669.19 3624.29 1687.29 3602.35 1702.25C3538.56 1745.82 3354.93 1735.9 3127.52 1632.56C2864.15 1512.91 2642.49 1784.7 2640.3 1787.46C2637.23 1791.3 2632.7 1793.3 2628.13 1793.3L2628.13 1793.31Z" fill="#111010"/>
<path d="M3931.44 1858.6C3929.16 1858.6 3926.88 1858.11 3924.69 1857.08C3916.93 1853.33 3913.67 1844.03 3917.38 1836.27C4014.43 1634.24 3852 1553.04 3845.07 1549.69C3837.31 1545.95 3834.06 1536.64 3837.77 1528.92C3841.48 1521.19 3850.67 1517.87 3858.48 1521.58C3861.71 1523.1 3937.49 1560.07 3967.55 1645.22C3988.94 1705.91 3981.51 1774.73 3945.49 1849.78C3942.79 1855.34 3937.22 1858.6 3931.44 1858.6Z" fill="#111010"/>
<path d="M2622.17 819.797C2458.86 819.797 2306.29 801.269 2229.11 744.777C2069.88 628.169 1628.9 61.7689 1610.22 37.7076C1602.29 27.5188 1604.14 12.8547 1614.33 4.94115C1624.52 -3.0275 1639.18 -1.14324 1647.1 9.0456C1651.66 14.8843 2102.7 594.305 2256.73 707.048C2393.91 807.564 2878.38 775.805 3162.65 722.686C3389.45 680.336 4049.56 290.449 4056.22 286.525C4067.3 279.924 4081.62 283.603 4088.22 294.739C4094.8 305.845 4091.12 320.173 4080.01 326.744C4052.63 342.957 3406.12 724.785 3171.23 768.622C3064.97 788.489 2834.52 819.793 2622.17 819.793L2622.17 819.797Z" fill="#111010"/>
<path d="M993.595 4162.85C988.513 4162.85 983.34 4161.12 978.9 4157.71C968.706 4149.8 967.402 4134.47 975.281 4124.25C994.11 4099.94 1709.53 3598.49 1881.14 3541.97C2053.12 3485.23 2643.68 3457.97 2921.9 3531.05C3194.75 3602.72 3619.48 3879.26 3637.44 3891.01C3648.24 3898.06 3651.28 3912.55 3644.22 3923.35C3637.13 3934.18 3622.62 3937.25 3611.88 3930.13C3607.53 3927.3 3175.5 3645.99 2910.03 3576.27C2643.96 3506.36 2059 3532.52 1895.75 3586.33C1728.15 3641.58 1036.1 4129.61 1011.12 4154.19C1006.65 4159.94 1000.2 4162.86 993.6 4162.86L993.595 4162.85Z" fill="#111010"/>
<path d="M2659.78 963.056C2446.51 963.056 2248.46 952.712 2143.3 920.923C1847.11 831.358 1338.01 289.024 1316.51 265.966C1307.68 256.533 1308.2 241.749 1317.63 232.958C1327.04 224.107 1341.85 224.623 1350.64 234.086C1355.84 239.623 1872.63 790.262 2156.81 876.203C2442.93 962.725 3490.17 881.621 3500.69 880.764C3513.74 880.188 3524.82 889.373 3525.82 902.244C3526.82 915.114 3517.21 926.34 3504.34 927.373C3476.44 929.563 3043.58 963.056 2659.78 963.056Z" fill="#111010"/>
<path d="M2298.08 1278.08C2269.69 1278.08 2241.65 1277.28 2213.87 1275.7C2105.11 1269.5 1994.19 1256.38 1886.89 1243.73C1707.82 1222.58 1538.8 1202.68 1413.88 1219.2C1210.32 1246.34 400.846 1150.42 366.5 1146.31C353.69 1144.76 344.533 1133.14 346.056 1120.33C347.61 1107.52 359.077 1098.52 372.038 1099.89C380.372 1100.89 1210.02 1199.16 1407.74 1172.9C1538.25 1155.53 1710.32 1175.82 1892.4 1197.3C1998.97 1209.89 2109.19 1222.91 2216.55 1229.03C2503.04 1245.51 2826.16 1173.84 3102.94 1032.74C3114.48 1026.84 3128.5 1031.46 3134.37 1042.93C3140.24 1054.43 3135.67 1068.52 3124.18 1074.35C2867.02 1205.48 2570.55 1278.03 2298.08 1278.06L2298.08 1278.08Z" fill="#111010"/>
<path d="M2622.26 2098.72C2619.73 2098.72 2617.18 2098.32 2614.65 2097.44C2612.61 2096.74 2407.78 2027.28 2065.22 1993.06C1894.92 1976.02 1703.23 1979.55 1500.31 1983.2C1283.55 1987.19 1059.49 1991.24 822.983 1972.77C368.258 1937.17 28.6828 1965.07 25.335 1965.31C12.8005 1966.47 1.1777 1956.85 0.0851248 1944.02C-1.00745 1931.15 8.54515 1919.83 21.3803 1918.77C24.8184 1918.47 367.892 1890.35 826.637 1926.16C1060.83 1944.48 1283.8 1940.37 1499.46 1936.51C1703.78 1932.76 1896.84 1929.27 2069.85 1946.58C2418.4 1981.41 2621.41 2050.34 2629.87 2053.27C2642.07 2057.47 2648.55 2070.76 2644.35 2082.96C2641.03 2092.63 2631.97 2098.72 2622.26 2098.72Z" fill="#111010"/>
<path d="M169.542 3253.54C161.117 3253.54 152.994 3249.01 148.824 3241.03C142.83 3229.6 147.21 3215.48 158.652 3209.48C201.458 3187.03 1209.26 2658.91 1441.47 2624.01C1685.01 2587.38 2471.46 2590.49 2678.18 2620.69C2724.06 2627.39 2777.17 2639.95 2780.67 2677.95C2784.93 2723.85 2703.31 2761.73 2634.13 2785.4C2621.78 2789.54 2608.63 2783.06 2604.43 2770.86C2600.26 2758.63 2606.78 2745.36 2618.98 2741.16C2669.75 2723.79 2720.37 2697.6 2732.18 2683.21C2726.43 2679.62 2710.82 2672.68 2671.42 2666.93C2472.31 2637.82 1683.15 2634.96 1448.41 2670.18C1223.95 2703.92 190.773 3245.37 180.368 3250.85C176.9 3252.68 173.185 3253.53 169.537 3253.53L169.542 3253.54Z" fill="#111010"/>
<path d="M606.316 4022.36C599.986 4022.36 593.69 4019.81 589.064 4014.76C580.363 4005.24 581.037 3990.48 590.554 3981.75C615.834 3958.63 1211.51 3414.59 1344.94 3355.48C1457.14 3305.8 1755.12 3173.86 2135.44 3149.76C2510.79 3125.82 2920.12 3139.64 3111.18 3421.71C3118.42 3432.39 3115.62 3446.93 3104.94 3454.17C3094.23 3461.41 3079.75 3458.58 3072.48 3447.93C2894.66 3185.36 2500.45 3173.56 2138.42 3196.37C1766.41 3219.98 1473.96 3349.46 1363.86 3398.2C1262.61 3443.07 834.393 3822.1 622.074 4016.25C617.603 4020.33 611.944 4022.36 606.316 4022.36Z" fill="#111010"/>
<path d="M2112.26 3549.18C2104.14 3549.18 2096.23 3544.95 2091.94 3537.38C2077.55 3512.16 1739.46 2917.5 1685.49 2722.03C1644.75 2574.55 1631.03 2377.14 1644.66 2135.28C1648.68 2064.18 1690.91 1686.43 2129.05 1231.32C2616.17 725.277 2779.33 726.43 2796.73 728.194C2809.57 729.562 2818.88 741.064 2817.51 753.899C2816.14 766.463 2804.7 775.224 2792.59 774.738C2787.88 774.768 2627.83 780.576 2162.7 1263.74C1735.99 1706.96 1695.16 2069.68 1691.33 2137.89C1677.98 2374.67 1691.15 2567.03 1730.52 2709.61C1782.97 2899.45 2129.05 3508.1 2132.52 3514.25C2138.91 3525.44 2135.01 3539.71 2123.79 3546.1C2120.14 3548.2 2116.18 3549.17 2112.25 3549.17L2112.26 3549.18Z" fill="#111010"/>
<path d="M1720.33 3740.62C1719.14 3740.62 1717.95 3740.53 1716.77 3740.35C1603.51 3722.89 1307.25 3064.28 1245.98 2784.94C1178.99 2479.29 1174.06 2031.05 1274.09 1876.48C1298.28 1839.12 1329.59 1781.74 1365.82 1715.27C1468.65 1526.75 1609.44 1268.55 1764.75 1135.03C1970.62 958.034 2332.89 703.734 2336.51 701.178C2347.09 693.786 2361.64 696.372 2369.06 706.897C2376.45 717.452 2373.9 732.026 2363.34 739.448C2359.72 741.974 1999.3 994.996 1795.23 1170.44C1646.37 1298.42 1507.95 1552.29 1406.86 1737.66C1370.14 1804.92 1338.47 1863.03 1313.34 1901.85C1230.04 2030.56 1219.7 2446.71 1291.62 2774.93C1364.27 3106.23 1658.93 3681.33 1723.92 3694.17C1736.39 3696.63 1745.06 3708.71 1742.87 3721.21C1740.89 3732.56 1731.41 3740.62 1720.33 3740.62Z" fill="#111010"/>
<path d="M1429.92 4161.02C1319.94 4161.05 1129.35 3913.63 1023.87 3763.56C829.897 3487.51 601.21 2742.17 616.967 2516.89C626.183 2385.04 716.997 1976.56 789.979 1648.34C834.183 1449.41 872.391 1277.62 874.611 1245.79C880.846 1156.99 1778.31 603.279 2163.89 369.332C2174.9 362.641 2189.26 366.139 2195.98 377.21C2202.68 388.22 2199.14 402.614 2188.1 409.305C1714.15 696.853 950.941 1179.9 920.67 1251.91C918.755 1284.34 882.064 1449.44 835.579 1658.47C766.792 1967.95 672.547 2391.79 663.57 2520.17C649.578 2720.38 859.673 3448.66 1062.07 3736.66C1277.89 4043.74 1397.12 4118.52 1432.5 4114.14C1445.06 4112.89 1456.96 4121.72 1458.51 4134.56C1460.03 4147.36 1450.91 4159.01 1438.1 4160.57C1435.42 4160.87 1432.68 4161.02 1429.91 4161.02H1429.92Z" fill="#111010"/>
<path d="M3849.41 1058.06C3841.05 1058.06 3832.95 1053.56 3828.75 1045.65C3822.7 1034.27 3827.02 1020.12 3838.43 1014.07C3843.45 1011.39 4343.93 744.223 4495.67 564.247C4504.01 554.359 4518.73 553.111 4528.59 561.451C4538.45 569.755 4539.73 584.51 4531.39 594.368C4373.83 781.25 3881.23 1044.22 3860.33 1055.32C3856.86 1057.18 3853.09 1058.06 3849.41 1058.06L3849.41 1058.06Z" fill="#111010"/>
<path d="M3774.21 3909.71C3764.35 3909.71 3755.19 3903.45 3752 3893.59C3651.27 3584.13 3359.73 3430.53 3356.78 3429.01C3345.34 3423.11 3340.84 3408.99 3346.77 3397.52C3352.65 3386.05 3366.73 3381.49 3378.26 3387.51C3390.92 3394.05 3689.82 3551.61 3796.42 3879.1C3800.44 3891.39 3793.71 3904.57 3781.45 3908.55C3779.05 3909.35 3776.61 3909.71 3774.21 3909.71Z" fill="#111010"/>
<path d="M3814.64 804.678C3805.27 804.678 3796.42 798.99 3792.86 789.708C3788.2 777.69 3794.2 764.153 3806.25 759.498C3810.05 758.039 4188.69 608.97 4307.67 308.823C4312.45 296.865 4326.01 290.966 4338 295.712C4349.99 300.458 4355.86 314.055 4351.11 326.043C4224.5 645.446 3839.37 796.825 3823.04 803.124C3820.27 804.187 3817.44 804.678 3814.64 804.678Z" fill="#111010"/>
<path d="M2342.98 1672.29C2342.44 1672.29 2341.89 1672.26 2341.34 1672.23L586.751 1549.84C573.851 1548.96 564.147 1537.79 565.059 1524.92C565.941 1512.05 577.169 1502.38 589.974 1503.23L2344.56 1625.62C2357.46 1626.5 2367.16 1637.67 2366.25 1650.53C2365.4 1662.86 2355.15 1672.28 2342.98 1672.28L2342.98 1672.29Z" fill="#111010"/>
</svg>
