<svg width="4590" height="4420" viewBox="0 0 4590 4420" fill="none" xmlns="http://www.w3.org/2000/svg">
<path d="M2808.78 3417.61C2096.32 3417.61 1516.71 2823.69 1516.71 2093.67C1516.71 1952.77 1538.19 1814.23 1580.6 1681.86C1631.31 1521.69 1711.14 1374.29 1817.86 1243.84C1981.11 1044.2 2195.16 899.57 2436.83 825.582C2556.43 788.531 2681.58 769.727 2808.78 769.727C2879.82 769.727 2950.21 775.6 3017.97 787.172C3604.09 884.811 3940.29 1342.98 3940.29 2044.23C3940.29 2497.15 3800.5 3056.18 3408.1 3266.83C3224.38 3365.47 3017.15 3417.61 2808.78 3417.61ZM2808.78 816.456C2686.3 816.456 2565.77 834.558 2450.59 870.242C2217.68 941.534 2011.41 1080.94 1854.04 1273.41C1751.09 1399.26 1674.06 1541.46 1625.11 1696.03C1584.19 1823.85 1563.44 1957.62 1563.44 2093.66C1563.44 2797.92 2122.09 3370.88 2808.79 3370.88C3012.32 3370.88 3206.54 3322.02 3386.03 3225.67C3760.22 3024.75 3893.57 2483.63 3893.57 2044.23C3893.57 1368.14 3571.61 926.764 3010.22 833.245C2944.96 822.094 2877.21 816.451 2808.79 816.451L2808.78 816.456Z" fill="#111010"/>
<path d="M3704.58 1801.33L3558.88 1442.87L3183.21 1392.99L2953.24 1701.57L3098.93 2060.03L3474.6 2109.91L3704.58 1801.33Z" fill="#111010"/>
<path d="M2301.79 1659.51L2071.79 1968.17L1695.88 1918.41L1602.84 1688.97C1653.22 1529.89 1733.29 1384.11 1835.92 1258.62L2155.88 1301.08L2301.79 1659.5V1659.51Z" fill="#111010"/>
<path d="M2906.38 2491.09L2561.56 2330.32L2253.33 2556.06L2289.92 2942.58L2634.74 3103.35L2942.97 2877.61L2906.38 2491.09Z" fill="#111010"/>
<path d="M3014.04 810.204L2697.18 997.813L2443.69 847.917C2559.3 812.108 2681.72 793.094 2808.77 793.094C2878.64 793.094 2947.27 798.797 3014.04 810.204Z" fill="#111010"/>
<path d="M1932.08 3034.68C1781.34 2896.25 1668.18 2718.54 1604.65 2520.59L1639.11 2498.65L1943.95 2665.53L1955.69 3019.67L1932.08 3034.68Z" fill="#111010"/>
<path d="M3251.44 1633.15C3240.85 1633.15 3231.23 1625.89 3228.71 1615.12C3072.68 949.501 2841.95 814.886 2839.64 813.593C2828.42 807.374 2824.25 793.211 2830.4 781.939C2836.57 770.653 2850.57 766.408 2861.89 772.507C2872.04 777.955 3112.32 913.803 3274.23 1604.44C3277.18 1617.01 3269.36 1629.59 3256.8 1632.52C3255.01 1632.95 3253.21 1633.15 3251.45 1633.15L3251.44 1633.15Z" fill="#111010"/>
<path d="M3537.07 1497.17C3526.66 1497.17 3517.17 1490.17 3514.47 1479.61C3511.27 1467.17 3518.72 1454.5 3531.1 1451.22C3535.45 1450.03 3632.35 1421.6 3691.25 1260.82C3695.69 1248.7 3709.16 1242.43 3721.21 1246.92C3733.32 1251.35 3739.55 1264.78 3735.11 1276.89C3667.12 1462.56 3547.95 1495.13 3542.91 1496.44C3540.96 1496.94 3539.01 1497.17 3537.06 1497.17L3537.07 1497.17Z" fill="#111010"/>
<path d="M2155.98 1324.57C2152.97 1324.57 2149.93 1323.99 2147.01 1322.77C2135.08 1317.82 2129.45 1304.12 2134.41 1292.22C2141.77 1274.57 2318.07 859.128 2625.04 790.984C2637.6 788.107 2650.07 796.126 2652.9 808.72C2655.7 821.315 2647.76 833.804 2635.13 836.585C2351.63 899.543 2179.25 1306.09 2177.55 1310.2C2173.8 1319.17 2165.1 1324.57 2155.98 1324.57L2155.98 1324.57Z" fill="#111010"/>
<path d="M2298.08 2630.42C2291.51 2630.42 2285 2627.67 2280.38 2622.3C2029.27 2330.3 2015.49 1877.59 2015.03 1858.46C2014.72 1845.56 2024.92 1834.85 2037.82 1834.55C2051.05 1834.53 2061.43 1844.62 2061.76 1857.32C2061.85 1861.85 2075.72 2312.69 2315.79 2591.81C2324.21 2601.61 2323.09 2616.35 2313.32 2624.78C2308.91 2628.56 2303.49 2630.42 2298.08 2630.42Z" fill="#111010"/>
<path d="M2850.8 2561.97C2845.99 2561.97 2841.13 2560.48 2836.96 2557.41C2826.58 2549.74 2824.36 2535.11 2832.03 2524.74C2933.03 2387.91 3089.22 2016.13 3090.8 2012.39C3095.8 2000.46 3109.48 1994.85 3121.38 1999.85C3133.27 2004.84 3138.87 2018.53 3133.89 2030.42C3127.41 2045.91 2973.95 2411.14 2869.63 2552.48C2865.04 2558.68 2857.98 2561.97 2850.8 2561.97Z" fill="#111010"/>
<path d="M3889 1905.44C3884.95 1905.44 3880.84 1904.39 3877.1 1902.17C3755.05 1829.82 3654.96 1804.77 3653.95 1804.53C3641.42 1801.46 3633.75 1788.8 3636.83 1776.27C3639.9 1763.72 3652.77 1756.18 3665.09 1759.14C3669.44 1760.21 3772.97 1786.13 3900.96 1861.99C3912.03 1868.56 3915.71 1882.88 3909.14 1893.99C3904.76 1901.35 3897 1905.44 3889 1905.44Z" fill="#111010"/>
<path d="M3088.28 1736.75C3087 1736.75 3085.72 1736.65 3084.41 1736.43C2437.23 1628.88 2140.09 1704.75 2137.21 1705.54C2124.76 1708.86 2111.93 1701.48 2108.61 1689.01C2105.26 1676.55 2112.63 1663.76 2125.07 1660.41C2137.39 1657.09 2432.92 1580.81 3092.08 1690.34C3104.8 1692.46 3113.41 1704.49 3111.31 1717.22C3109.39 1728.64 3099.5 1736.75 3088.28 1736.75Z" fill="#111010"/>
<path d="M3827.64 2641.81C3818.05 2641.81 3809.08 2635.9 3805.67 2626.37C3659.67 2221.41 3422.98 2065.42 3420.61 2063.9C3409.78 2056.92 3406.62 2042.47 3413.59 2031.62C3420.58 2020.79 3434.97 2017.63 3445.83 2024.55C3456.05 2031.09 3697.82 2189.47 3849.6 2610.53C3853.98 2622.66 3847.69 2636.05 3835.54 2640.43C3832.93 2641.37 3830.25 2641.81 3827.64 2641.81Z" fill="#111010"/>
<path d="M3403.55 3257.89C3400.53 3257.89 3397.49 3257.31 3394.57 3256.1C3142.64 3151.28 2874.77 2868.92 2863.48 2856.94C2854.63 2847.56 2855.09 2832.77 2864.46 2823.92C2873.89 2815.08 2888.64 2815.53 2897.49 2824.89C2900.17 2827.75 3169.87 3112 3412.52 3212.96C3424.44 3217.91 3430.07 3231.59 3425.11 3243.5C3421.37 3252.47 3412.7 3257.89 3403.54 3257.89L3403.55 3257.89Z" fill="#111010"/>
<path d="M2212.78 3257.89C2198.42 3257.04 2188.62 3245.95 2189.41 3233.07C2200.85 3049.58 2318.77 2888.03 2323.79 2881.25C2331.52 2870.89 2346.12 2868.7 2356.46 2876.34C2366.83 2884 2369.05 2898.62 2361.39 2909.01C2360.23 2910.56 2246.63 3066.5 2236.08 3235.98C2235.29 3248.37 2225 3257.88 2212.77 3257.88L2212.78 3257.89Z" fill="#111010"/>
<path d="M1557.11 2330.47C1556.11 2330.47 1555.1 2330.41 1554.07 2330.27C1541.26 2328.62 1532.26 2316.89 1533.9 2304.1C1564.87 2065.79 1672.38 1911.33 1676.94 1904.88C1684.33 1894.33 1698.94 1891.82 1709.46 1899.27C1720.02 1906.71 1722.55 1921.28 1715.12 1931.82C1714.06 1933.31 1609.65 2083.87 1580.26 2310.12C1578.71 2321.9 1568.67 2330.47 1557.11 2330.47Z" fill="#111010"/>
<path d="M2728.9 3415.05C2720.96 3415.05 2713.26 3411.04 2708.85 3403.77C2598.87 3221.5 2610.98 3105.48 2611.53 3100.63C2613.05 3087.79 2624.92 3078.68 2637.45 3080.14C2650.23 3081.65 2659.39 3093.17 2657.96 3105.94C2657.87 3106.99 2648.07 3212.6 2748.89 3379.61C2755.55 3390.68 2751.99 3405.03 2740.95 3411.69C2737.18 3413.97 2733.01 3415.06 2728.9 3415.06L2728.9 3415.05Z" fill="#111010"/>
<path d="M3957.45 1224.81C3946.74 1224.81 3937.09 1217.4 3934.66 1206.51C3915.83 1121.8 4037.54 1001.16 4130.12 923.552C4038.95 937.956 3912.11 932.313 3811.02 830.219C3680.42 698.28 3824.95 346.156 3923.06 147.396C3743.33 317.213 3379.3 625.77 3107.86 625.83C3072.05 625.83 3037.92 620.463 3005.98 608.705C2769.26 521.607 2671.7 302.494 2632.36 158.808C2517.42 664.421 2072.19 642.535 2067.17 642.124C2054.3 641.302 2044.57 630.216 2045.36 617.361C2046.15 604.475 2057.44 594.683 2070.12 595.489C2089.68 596.843 2550.12 617.742 2606.8 21.1657C2607.96 9.16263 2618.03 0.0212749 2630.08 0.0212749C2642.31 0.0814156 2652.35 9.37811 2653.35 21.4213C2653.72 25.6361 2692.53 443.574 3022.1 564.868C3351.67 686.177 3991.7 14.1193 3998.12 7.32336C4006.24 -1.28678 4019.48 -2.45456 4029.03 4.61699C4038.52 11.6735 4041.26 24.7241 4035.36 34.9931C3938.92 203.287 3716.53 668.335 3844.24 797.342C3998.55 953.242 4219.87 851.784 4229.21 847.369C4240.25 842.242 4253.25 846.271 4259.36 856.721C4265.44 867.185 4262.58 880.556 4252.7 887.553C4138.8 968.292 3964.08 1123.52 3980.3 1196.38C3983.1 1208.97 3975.16 1221.45 3962.56 1224.25C3960.86 1224.63 3959.12 1224.81 3957.45 1224.81Z" fill="#111010"/>
<path d="M2452.84 4419.69C2450.19 4419.69 2447.51 4419.23 2444.9 4418.29C2433.09 4414.03 2426.8 4401.23 2430.57 4389.3C2432.06 4384.49 2440.76 4357.66 2457.67 4317.6C2617.03 3858.74 2396.04 3654.36 2386.12 3645.48C2376.51 3636.91 2375.62 3622.16 2384.14 3612.53C2392.69 3602.89 2407.39 3601.99 2417.06 3610.46C2426.43 3618.74 2606.86 3783.35 2551.37 4138.56C2653.04 3978.57 2824.33 3796.73 3085.96 3771.24C3356.56 3744.81 3536.51 3853.78 3640.77 3951.55C3601.56 3835.89 3571.35 3674.18 3626.35 3519.26C3682.15 3362.1 3814.57 3244.82 4019.96 3170.65C4032.07 3166.35 4045.48 3172.57 4049.86 3184.69C4054.25 3196.83 4047.98 3210.23 4035.84 3214.61C3844.33 3283.76 3721.43 3391.44 3670.47 3534.65C3585.01 3774.86 3728.06 4044.77 3750.51 4084.74C3752.73 4088.49 3753.92 4090.64 3754.04 4090.92C3759.94 4102.08 3755.86 4115.95 3744.85 4122.16C3733.9 4128.36 3719.9 4124.71 3713.36 4113.85C3712.6 4112.61 3710.14 4108.47 3706.46 4101.78C3671.01 4043.06 3488.08 3779.27 3090.52 3817.73C2740.85 3851.83 2558.89 4199.64 2498.44 4342.57C2491.17 4362.98 2483.2 4383.88 2474.47 4405.18C2470.76 4414.19 2462.05 4419.69 2452.84 4419.69Z" fill="#111010"/>
<path d="M333.553 3592.36C326.707 3592.36 320.442 3587.85 318.523 3580.94C316.242 3572.65 321.108 3564.07 329.413 3561.77C812.249 3428.36 2579.89 3376.63 2597.69 3376.11C2606.27 3376.09 2613.47 3382.63 2613.72 3391.24C2613.96 3399.84 2607.18 3407 2598.6 3407.26C2580.83 3407.76 816.936 3459.39 337.689 3591.8C336.321 3592.19 334.922 3592.37 333.548 3592.37L333.553 3592.36Z" fill="#111010"/>
<path d="M762.537 3297.85C756.087 3297.85 750.033 3293.81 747.813 3287.36C745.016 3279.22 749.331 3270.35 757.455 3267.55C942.635 3203.69 1663.68 3122.94 1694.28 3119.53C1703.01 3118.66 1710.56 3124.73 1711.5 3133.29C1712.45 3141.84 1706.3 3149.54 1697.75 3150.5C1690.27 3151.32 949.541 3234.27 767.613 3297C765.939 3297.57 764.211 3297.85 762.537 3297.85Z" fill="#111010"/>
<path d="M1727.15 860.824C1661.98 860.824 1591.01 859.15 1514.07 855.241C1010.21 829.581 905.042 704.242 900.812 698.915C895.46 692.174 896.583 682.381 903.308 677.029C910.034 671.736 919.737 672.754 925.12 679.414C926.974 681.604 1032.45 799.505 1515.65 824.118C2009.28 849.397 2263.62 778.822 2266.11 778.105C2274.23 775.78 2282.96 780.571 2285.33 788.815C2287.71 797.09 2282.9 805.7 2274.65 808.07C2265.83 810.581 2084.97 860.824 1727.15 860.824Z" fill="#111010"/>
<path d="M1464.96 970.949C1134.82 970.949 888.884 913.374 842.826 878.813C835.95 873.656 834.552 863.893 839.694 857.017C844.926 850.126 854.662 848.773 861.503 853.9C904.183 885.89 1257.06 971.495 1725.75 927.673C1734.72 926.896 1741.93 933.181 1742.72 941.741C1743.51 950.306 1737.22 957.893 1728.67 958.7C1636.64 967.295 1548.14 970.944 1464.97 970.944L1464.96 970.949Z" fill="#111010"/>
<path d="M4565.72 4163.57C4552.82 4163.57 4542.36 4153.1 4542.36 4140.2V157.81C4542.36 144.91 4552.82 134.445 4565.72 134.445C4578.62 134.445 4589.08 144.91 4589.08 157.81V4140.2C4589.08 4153.1 4578.62 4163.57 4565.72 4163.57Z" fill="#111010"/>
<path d="M3367.68 4163.56C3354.78 4163.56 3344.31 4153.1 3344.31 4140.2V3246.25C3344.31 3233.35 3354.78 3222.88 3367.68 3222.88C3380.58 3222.88 3391.04 3233.35 3391.04 3246.25V4140.2C3391.04 4153.1 3380.58 4163.56 3367.68 4163.56Z" fill="#111010"/>
<path d="M3367.68 934.189C3354.78 934.189 3344.31 923.725 3344.31 910.825V157.818C3344.31 144.918 3354.78 134.453 3367.68 134.453C3380.58 134.453 3391.04 144.918 3391.04 157.818V910.825C3391.04 923.725 3380.58 934.189 3367.68 934.189Z" fill="#111010"/>
<path d="M3367.7 3485.51C3367.7 3485.51 3933.99 3271.3 3916.92 2331.34C3916.92 2331.34 3885.58 2979.21 3367.7 3286.54V3485.51Z" fill="#111010"/>
<path d="M1696.02 1185C1237.22 1168.06 24.7305 928.512 12.5318 926.096C4.10698 924.422 -1.37306 916.238 0.300874 907.798C1.94474 899.343 10.1004 893.76 18.6154 895.555C30.7841 897.96 1240.81 1137.03 1696.6 1153.87C1705.18 1154.19 1711.9 1161.41 1711.6 1170.01C1711.26 1178.4 1704.36 1185 1696.02 1185Z" fill="#111010"/>
</svg>
