<svg width="6669" height="4341" viewBox="0 0 6669 4341" fill="none" xmlns="http://www.w3.org/2000/svg">
<path d="M6237.01 4340.03L52.103 2887.26C-109.849 2331.25 114.078 1708.34 607.982 1405.95C801.47 1287.45 1033.89 1219.19 1257.28 1258.82C1566.76 1313.76 1802.69 1557.83 2015.76 1788.88C2029.17 1596.31 2105.18 1415.93 2216.42 1258.2C2388.04 1014.88 2682.96 846.242 2978.8 879.671C3274.64 913.099 3541.37 1182.81 3521.09 1479.89C3733.8 1030.98 3999.69 563.289 4405.05 276.113C4810.41 -11.0632 5382.65 -108.753 5806.4 150.449C6193.16 386.998 6376.22 866.959 6376.49 1320.31C6376.71 1773.66 6223.73 2211.44 6072.55 2638.88C6211.06 2573.87 6345.87 2653.84 6458.69 2757.16C6571.52 2860.52 6630.9 3011.39 6655.04 3162.52C6698.63 3435.49 6634.81 3724.12 6480.16 3953.23C6390.61 4085.94 6278.05 4185.3 6237.01 4340.03Z" fill="white"/>
<path d="M4900.71 227.027C4680.48 310.378 4486.11 450.557 4308.42 605.032C4099.36 786.776 3903.49 1000.41 3821.24 1264.93C3806.07 1313.76 3797.05 1373.05 3831.49 1410.83C3868 1450.9 3936.61 1442.94 3979.32 1409.51C4022.03 1376.08 4045.92 1324.84 4071.03 1276.77C4292.85 852.445 4733.04 550.007 5208.7 495.158C5300.36 484.602 5395.54 482.006 5479.11 442.772C5539.9 414.226 5626.73 336.593 5613.05 259.928C5600.38 188.804 5514.08 174.861 5455.01 164.437C5269.66 131.8 5075.64 160.83 4900.71 227.027Z" fill="white"/>
<path d="M5938.88 453.111C5923.53 518.472 5858.13 558.982 5792.77 543.631C5727.41 528.28 5686.85 462.875 5702.2 397.514C5717.55 332.153 5782.96 291.599 5848.32 306.994C5913.68 322.344 5954.24 387.793 5938.88 453.111Z" fill="white"/>
<path d="M1086.67 1396.54C873.387 1413.29 674.751 1525.85 527.051 1680.63C379.35 1835.37 278.801 2029.87 206.666 2231.32C182.651 2298.49 161.274 2370.31 175.262 2440.25C189.205 2510.18 250.124 2575.77 321.247 2570.58C383.925 2566 430.461 2511.64 463.494 2458.15C531.186 2348.5 573.762 2225.65 622.805 2106.49C671.848 1987.34 729.512 1868.49 820.561 1777.36C911.609 1686.18 1042.02 1625.96 1169.14 1647.2C1269.69 1664.01 1543.58 1807.13 1545.25 1590.38C1546.62 1419.63 1204.64 1387.25 1086.67 1396.54Z" fill="white"/>
<path d="M1788.84 1837.66C1774.28 1899.59 1712.31 1937.99 1650.42 1923.43C1588.49 1908.87 1550.09 1846.9 1564.65 1785.01C1579.21 1723.08 1641.18 1684.68 1703.07 1699.24C1764.96 1713.75 1803.36 1775.73 1788.84 1837.66Z" fill="white"/>
</svg>
