<svg width="6686" height="6702" viewBox="0 0 6686 6702" fill="none" xmlns="http://www.w3.org/2000/svg">
<path d="M1.74609 3684.34L726.268 4086.78L316.625 4807.39L1135.38 4936.77L997.964 5754.16L1811.65 5596.09L1960.88 6411.46L2671.65 5985.11L3091.63 6699.62L3613.03 6055.01L4251.6 6583.78L4522.02 5800.31L5303.06 6077.73L5288.08 5248.93L6116.96 5242.92L5820.64 4468.88L6597.61 4180.14L6053.6 3554.79L6684.22 3017.04L5959.7 2614.6L6369.34 1893.99L5550.55 1764.64L5688.01 947.251L4874.28 1105.29L4725.05 289.912L4014.32 716.269L3594.3 1.75L3072.94 646.368L2434.37 117.592L2163.95 901.063L1382.91 623.646L1397.85 1452.48L568.973 1458.45L865.327 2232.54L88.3187 2521.23L632.368 3146.59L1.74609 3684.34Z" fill="#6FC4A1" stroke="black" stroke-width="2" stroke-miterlimit="10"/>
<path d="M5395.06 3841.93C5666.44 2708.26 4967.44 1569.24 3833.78 1297.86C2700.13 1026.49 1561.12 1725.52 1289.74 2859.19C1018.36 3992.87 1717.37 5131.89 2851.02 5403.26C3984.67 5674.64 5123.68 4975.61 5395.06 3841.93Z" fill="#DA2308"/>
<path d="M1980.92 5014.94C1536.37 4651.16 1260.11 4135.97 1203.05 3564.38C1146 2992.75 1314.9 2433.18 1678.72 1988.63C2042.55 1544.08 2557.7 1267.85 3129.33 1210.75C3700.84 1153.53 4260.53 1322.56 4705.04 1686.43C5149.6 2050.25 5425.86 2565.4 5482.92 3136.99C5539.97 3708.58 5371.07 4268.19 5007.24 4712.75C4643.42 5157.26 4128.27 5433.52 3556.68 5490.62C3483.85 5497.9 3411.28 5501.49 3339.03 5501.49C2844.38 5501.49 2368.79 5332.42 1980.92 5014.94ZM3137.2 1290.08C2586.77 1345.04 2090.71 1611.05 1740.39 2039.1C1390.07 2467.18 1227.42 3006.04 1282.38 3556.43C1337.34 4106.91 1603.35 4602.91 2031.44 4953.28C2459.52 5303.56 2998.47 5466.17 3548.81 5411.29C4099.2 5356.33 4595.3 5090.32 4945.62 4662.28C5295.98 4234.19 5458.63 3695.33 5403.63 3144.94C5348.67 2594.51 5082.66 2098.46 4654.62 1748.13C4281.08 1442.44 3823.19 1279.63 3346.85 1279.63C3277.24 1279.58 3207.3 1283.08 3137.2 1290.08Z" fill="#2A2A28"/>
<path d="M3735.34 3141.11C3769.42 3482.58 3945.82 3754.4 4153.87 3814.05C4191.08 3824.96 4229.74 3828.83 4268.93 3824.92C4523.54 3799.48 4697.01 3452.33 4656.75 3049.1C4616.54 2646.3 4377.77 2339.86 4123.16 2365.3C4083.97 2369.21 4046.84 2380.65 4012.55 2398.72C3820.43 2498.72 3701.25 2800.05 3735.34 3141.11Z" fill="white"/>
<path d="M3735.34 3141.11C3769.42 3482.58 3945.82 3754.4 4153.87 3814.05C4345.62 3714.47 4465.17 3413.13 4431.08 3071.66C4397.04 2730.6 4220.23 2458.83 4012.55 2398.72C3820.43 2498.71 3701.25 2800.05 3735.34 3141.11Z" fill="#1C1C1C"/>
<path d="M2006.57 3313.72C2040.66 3655.23 2217.05 3927.01 2425.11 3986.66C2462.32 3997.57 2500.97 4001.44 2540.16 3997.53C2794.78 3972.09 2968.25 3624.94 2927.99 3221.72C2887.77 2818.91 2649.01 2512.47 2394.4 2537.91C2355.21 2541.82 2318.07 2553.26 2283.78 2571.33C2091.66 2671.37 1972.53 2972.66 2006.57 3313.72Z" fill="white"/>
<path d="M2006.57 3313.72C2040.66 3655.24 2217.05 3927.01 2425.11 3986.66C2616.86 3887.08 2736.4 3585.75 2702.32 3244.23C2668.27 2903.17 2491.47 2631.4 2283.78 2571.29C2091.66 2671.37 1972.53 2972.66 2006.57 3313.72Z" fill="#1C1C1C"/>
<path d="M3346.2 4091.43C3370.73 4091.43 3396.75 4090.15 3424.29 4087.39C3770.29 4052.85 3821.58 3843.07 3823.56 3834.18C3830.84 3801.95 3810.63 3769.96 3778.44 3762.68C3746.58 3755.27 3714.88 3775.15 3707.18 3806.8C3705.08 3814.34 3665.4 3943.15 3412.39 3968.46C3155.39 3993.78 3084.46 3867.9 3081.54 3862.54C3066.1 3833.77 3030.37 3822.28 3001.31 3837.1C2972.33 3852 2960.31 3886.87 2974.67 3916.14C2978.54 3923.84 3064.37 4091.43 3346.2 4091.43Z" fill="#1C1C1C"/>
</svg>
