<svg width="8365" height="8365" viewBox="0 0 8365 8365" fill="none" xmlns="http://www.w3.org/2000/svg">
<path d="M8218.72 3001.43L7408.34 3897.4L8364.22 4636.34L7271.73 5152.59L7871.28 6201.58L6664.52 6261.84L6818.38 7460.29L5680.8 7053.25L5362.79 8218.72L4466.82 7408.34L3727.88 8364.22L3211.63 7271.77L2162.64 7871.28L2102.38 6664.56L903.93 6818.38L1310.92 5680.84L145.501 5362.79L955.875 4466.82L0 3727.88L1092.49 3211.63L492.936 2162.64L1699.66 2102.42L1545.84 903.929L2683.37 1310.96L3001.43 145.501L3897.4 955.875L4636.34 0L5152.59 1092.49L6201.58 492.937L6261.79 1699.7L7460.29 1545.84L7053.25 2683.37L8218.72 3001.43Z" fill="#F28334"/>
<path d="M4207.77 6757.67C5629.95 6744.02 6771.78 5580.05 6758.13 4157.87C6744.48 2735.69 5580.51 1593.85 4158.33 1607.5C2736.15 1621.15 1594.31 2785.13 1607.96 4207.31C1621.62 5629.49 2785.59 6771.32 4207.77 6757.67Z" fill="#FCD800"/>
<path d="M4556.55 5430.66C4555.45 5430.97 4554.35 5431.28 4553.21 5431.63C4319.08 5496.99 4068.36 5235.37 4057.85 5224.2C4041.18 5206.56 4041.93 5178.76 4059.61 5162.05C4077.12 5145.38 4105.05 5146.13 4121.76 5163.72C4124 5166.05 4346.65 5398.07 4529.72 5346.83C4530.42 5346.65 4531.13 5346.43 4531.83 5346.26C4638.23 5315.12 4715.73 5190.42 4762.18 4975.47C4767.28 4951.72 4790.77 4936.67 4814.48 4941.78C4838.23 4946.92 4853.31 4970.32 4848.17 4994.07C4794.33 5242.89 4696.25 5389.8 4556.55 5430.66Z" fill="#000007"/>
<path d="M3943.97 4315.39C3987.43 4490.58 4006.56 4671.98 4000.36 4852.97C3512.09 4800.54 3065.69 5026.01 2799.23 5202.48C2599.58 5032.21 2454.56 4799.67 2390.39 4545.74C2317.73 4258.13 2349.97 3945.31 2479.59 3678.72C2541.21 3552.52 2627.25 3432.97 2749.26 3362.91C2766.15 3353.36 2783.75 3344.56 2801.74 3337C2802.13 3336.87 2802.13 3336.87 2802.13 3336.87C2974.95 3263.41 3184.49 3291.91 3349.52 3386.17C3531.62 3490.11 3665.2 3663.23 3764.52 3847.7C3843.86 3995.01 3904.12 4152.43 3943.97 4315.39Z" fill="white"/>
<path d="M2556.83 5438.23C2541.35 5442.76 2523.93 5438.58 2512.19 5425.96C2495.65 5408.15 2496.7 5380.31 2514.52 5363.81C2548.65 5332.1 3361.09 4590.6 4251.87 4858.21C4275.14 4865.2 4288.33 4889.7 4281.34 4912.97C4274.34 4936.24 4249.84 4949.43 4226.58 4942.44C3383.48 4689.22 2582.34 5420.82 2574.38 5428.29C2569.23 5433.09 2563.16 5436.39 2556.83 5438.23Z" fill="#000007"/>
<path d="M3943.98 4315.39C3881.47 4401.03 3798.43 4471.14 3697.75 4517.1C3462.96 4624.73 3192.59 4574.59 2987.66 4411.36C3060.98 4370.68 3098.77 4283.54 3074.18 4199.53C3045.68 4102.02 2943.63 4046.16 2846.07 4074.7C2812.29 4084.56 2783.35 4103.12 2761.58 4127.35C2757.66 4120.27 2754.72 4113.32 2751.24 4106.11C2628.97 3838.51 2657.16 3544.73 2801.74 3337.04C2802.13 3336.9 2802.13 3336.9 2802.13 3336.9C2974.95 3263.45 3184.49 3291.95 3349.52 3386.21C3531.62 3490.15 3665.2 3663.27 3764.52 3847.74C3843.87 3995 3904.13 4152.43 3943.98 4315.39Z" fill="#000007"/>
<path d="M5920.56 3737.25C5964.02 3912.44 5983.15 4093.84 5976.99 4274.79C5488.72 4222.4 5042.32 4447.83 4775.86 4624.29C4576.21 4454.03 4431.19 4221.48 4367.02 3967.56C4294.36 3679.94 4326.6 3367.12 4456.22 3100.53C4517.84 2974.34 4603.88 2854.79 4725.89 2784.72C4742.83 2775.18 4760.37 2766.38 4778.36 2758.81C4778.76 2758.68 4778.76 2758.68 4778.76 2758.68C4951.58 2685.23 5161.12 2713.77 5326.15 2807.99C5508.25 2911.92 5641.83 3085 5741.15 3269.52C5820.45 3416.87 5880.67 3574.29 5920.56 3737.25Z" fill="white"/>
<path d="M4533.42 4860.09C4517.93 4864.62 4500.52 4860.45 4488.77 4847.82C4472.23 4830.01 4473.29 4802.16 4491.1 4785.67C4525.23 4753.96 5337.68 4012.46 6228.45 4280.07C6251.72 4287.06 6264.92 4311.56 6257.92 4334.83C6250.93 4358.1 6226.39 4371.29 6203.16 4364.3C5360.06 4111.08 4558.93 4842.68 4550.97 4850.11C4545.78 4854.95 4539.75 4858.25 4533.42 4860.09Z" fill="#000007"/>
<path d="M5920.56 3737.26C5858.1 3822.89 5775.02 3893.01 5674.34 3938.97C5439.55 4046.6 5169.17 3996.46 4964.25 3833.19C5037.57 3792.5 5075.35 3705.37 5050.77 3621.36C5022.26 3523.84 4920.22 3467.98 4822.66 3496.53C4788.88 3506.42 4759.94 3524.94 4738.17 3549.22C4734.25 3542.1 4731.3 3535.19 4727.83 3527.93C4605.55 3260.33 4633.75 2966.56 4778.32 2758.86C4778.72 2758.73 4778.72 2758.73 4778.72 2758.73C4951.54 2685.27 5161.08 2713.82 5326.11 2808.04C5508.21 2911.97 5641.79 3085.05 5741.1 3269.57C5820.45 3416.87 5880.67 3574.29 5920.56 3737.26Z" fill="#000007"/>
<path d="M2267.02 3457.38C2260.46 3459.27 2253.43 3459.71 2246.3 3458.31C2222.46 3453.64 2206.89 3430.55 2211.55 3406.71C2258.44 3166.6 2425.58 2953.85 2647.79 2851.45C2669.61 2841.33 2696 2850.97 2706.16 2873C2716.32 2895.08 2706.69 2921.16 2684.61 2931.37C2487.64 3022.11 2339.46 3210.76 2297.89 3423.6C2294.64 3440.27 2282.32 3452.9 2267.02 3457.38Z" fill="#000007"/>
<path d="M5404.75 2539.59C5389.45 2544.08 5372.29 2540.08 5360.55 2527.76C5210.82 2370.87 4984.39 2291.83 4769.53 2321.52C4745.47 2324.86 4723.25 2308.06 4719.91 2284C4716.61 2259.94 4733.55 2237.68 4757.47 2234.38C4999.83 2200.86 5255.29 2290.02 5424.19 2467.02C5440.95 2484.61 5440.34 2512.41 5422.74 2529.21C5417.46 2534.23 5411.31 2537.7 5404.75 2539.59Z" fill="#000007"/>
<path d="M3950.57 6625.37C4018.22 6633.29 4093.96 6639.09 4166.72 6632.14C4249.54 6624.23 4262.21 6506.87 4182.99 6481.36C3851.3 6374.61 3534.13 6222.82 3243.08 6031.22C3150.8 5970.48 3028.92 5890.6 2917.55 5956.05C2811.5 6018.38 2819.29 6124.25 2900.66 6198.94C3078.67 6362.25 3350.84 6478.02 3579.83 6548.44C3700.83 6585.65 3824.91 6610.64 3950.57 6625.37Z" fill="white"/>
<path d="M4536.8 6515.68C4554.18 6575.01 4520.13 6637.21 4460.75 6654.58C4401.42 6671.95 4339.22 6637.91 4321.85 6578.53C4304.48 6519.2 4338.52 6457 4397.9 6439.63C4457.24 6422.3 4519.43 6456.34 4536.8 6515.68Z" fill="white"/>
</svg>
