<svg width="46" height="46" viewBox="0 0 46 46" fill="none" xmlns="http://www.w3.org/2000/svg">
<mask id="path-1-inside-1_92_14235" fill="white">
<path d="M45.5586 22.779C45.5586 35.3596 35.3599 45.5583 22.7793 45.5583C10.1987 45.5583 0 35.3596 0 22.779C0 10.1984 10.1987 0 22.7793 0C35.3599 0 45.5586 10.1987 45.5586 22.7793V22.779ZM30.989 2.8977L31.8175 3.06401L31.955 2.77927C32.0056 2.6744 32.1152 2.60494 32.1562 2.48624C31.5596 2.19458 30.9602 1.97626 30.3481 1.74327C29.8639 1.55898 29.3943 1.42865 28.8971 1.28283C27.8741 0.982596 26.4238 0.694541 25.3627 0.583304C23.1241 0.348654 20.8885 0.388777 18.669 0.805502C17.9078 0.948561 17.1765 1.10518 16.4451 1.35781L16.6449 1.83735C17.4654 1.75628 18.2642 1.75849 19.0957 1.78505C20.8083 1.83957 22.7486 2.15335 24.3269 2.83683C25.9828 2.41678 29.3545 2.56953 30.9893 2.8977H30.989ZM18.2454 12.7422L18.9878 12.036C19.5429 11.5078 21.1937 10.3243 21.8778 9.8683L22.4647 9.47703C22.7464 9.28914 23.0613 9.17292 23.3346 8.97203C23.8336 8.75482 24.2284 8.48198 24.7293 8.27445C24.7093 7.17397 24.6028 6.10117 24.4617 5.00457C24.3792 4.36371 24.302 3.75412 24.1518 3.13014C23.5217 2.86118 22.8872 2.6874 22.2206 2.53411C21.3039 2.31661 20.3996 2.20787 19.4546 2.1481C18.4751 2.09691 17.5287 2.10438 16.5503 2.17328C14.9271 2.69543 13.5604 3.48045 12.2153 4.51313C11.5654 4.99073 10.9915 5.52506 10.4245 6.0973C10.0733 6.45176 9.73464 6.78824 9.42086 7.17093C9.39595 7.40226 9.41754 7.62169 9.4073 7.85053C9.39927 8.03094 9.43137 8.19614 9.43829 8.37213C9.45185 8.71303 9.48228 9.03955 9.5736 9.37354C9.60321 9.48146 9.53901 9.60929 9.59408 9.71334C9.65661 9.83149 9.7114 9.94854 9.67598 10.0891C9.77532 10.2598 9.78916 10.445 9.83786 10.6284C9.88656 10.8119 9.97455 10.9909 10.0393 11.1791C10.1738 11.5709 10.3121 11.9514 10.5017 12.3219L11.0438 12.2552C12.8227 12.0369 16.4247 12.2876 18.2454 12.7425V12.7422ZM40.7604 11.6334C41.3794 12.352 41.9077 13.105 42.4055 13.9063L43.2104 13.6739L42.2749 11.8183C42.1719 11.7491 42.1573 11.6409 42.1066 11.544C41.7798 10.9176 40.6879 9.33895 40.2297 8.80047L39.3844 7.80792C38.0409 6.23039 35.7932 4.45558 33.9802 3.42816C33.5037 3.15809 33.0422 2.90241 32.5463 2.66859C32.4204 2.60937 32.1968 3.0831 32.1498 3.17386C32.2486 3.30889 32.3819 3.39025 32.5042 3.49235L33.1102 3.99956C34.1581 4.87673 35.0743 5.87316 35.8834 6.97557C36.2268 7.44321 36.5437 7.89951 36.7894 8.42664L37.4446 8.79411C38.148 9.1887 38.7795 9.66104 39.3802 10.1998C39.6461 10.4383 40.0058 10.642 40.184 10.8918L40.4837 11.3122L40.7607 11.6337L40.7604 11.6334ZM4.35126 21.5255C5.16423 20.9679 5.94068 20.5523 6.86102 20.1929C6.98221 19.5866 7.15599 19.0304 7.34802 18.4574C7.4897 18.0348 7.62501 17.643 7.80902 17.2346C8.45237 15.5893 9.1649 13.9528 10.2031 12.4904C9.80631 11.6401 9.45738 10.7839 9.29191 9.86248L9.13474 8.98615C9.08631 8.75426 9.0509 8.53179 9.05366 8.29354L9.06556 7.2949C8.0719 7.4136 7.13662 7.70526 6.25032 8.09763C6.04223 8.24871 5.76275 8.31429 5.5887 8.51436C3.63098 10.7648 2.08916 13.7395 1.24602 16.5979C1.05648 17.2401 0.896263 17.8533 0.779491 18.5105C0.708654 18.9095 0.62149 19.2894 0.579707 19.692C0.5584 19.8985 0.719445 20.3487 0.786686 20.5645C1.08249 21.5128 1.56977 22.5806 2.28867 23.2904C2.96633 22.5737 3.54963 22.051 4.35098 21.5252L4.35126 21.5255ZM27.1582 24.4293C27.2053 24.4526 27.2764 24.4858 27.3154 24.4772C27.459 24.3576 27.6176 24.2719 27.7722 24.1681L28.1065 23.944L29.5246 22.9868L31.0883 21.9198L32.5372 20.8852L33.6014 20.1738C33.6944 20.1115 33.7317 20.0249 33.7387 19.9109C33.7685 19.42 33.7757 18.9402 33.7458 18.4468C33.7079 17.8276 33.6739 17.2401 33.587 16.6192C33.3676 15.0538 32.9932 13.5419 32.5131 12.0333L31.6171 11.4815C29.5233 10.2471 27.2921 9.17541 24.9409 8.50854C23.9954 9.01465 23.0687 9.51577 22.1769 10.0991C21.4586 10.5689 20.7911 11.0573 20.1093 11.575C19.4953 12.0189 18.9416 12.5048 18.407 13.0372C18.6007 14.214 18.5899 15.2312 18.8356 16.3795L19.3348 19.3636L19.5944 20.8454L20.9931 21.5291C21.2123 21.6362 21.4168 21.7402 21.6453 21.8246C21.7901 21.9458 21.9746 21.9754 22.1357 22.0604C22.5615 22.2854 22.9827 22.4785 23.421 22.6808L24.4443 23.1528L25.379 23.5676L26.2603 23.9844L27.1585 24.429L27.1582 24.4293ZM39.0252 25.4642C39.9989 24.9584 40.8703 24.3792 41.6852 23.6933C42.2367 23.2292 42.724 22.7403 43.139 22.1484C43.1144 22.0153 43.1631 21.8991 43.1767 21.7715C43.2981 20.6187 43.172 19.117 43.0355 17.9485C42.8847 16.654 42.6136 15.413 42.1775 14.1858C41.7032 13.445 41.2084 12.7389 40.6592 12.051C40.0936 11.3426 39.4649 10.7264 38.7792 10.1392C38.4051 9.8171 38.0171 9.55368 37.6004 9.29136C37.2933 9.09821 37.0041 8.90645 36.6734 8.75066C36.2625 9.20502 35.8397 9.5902 35.3848 9.97289L34.3023 10.8835L33.3922 11.6016L32.8393 12.033C33.5474 14.0549 34.0926 16.674 34.1064 18.806C34.1092 19.2153 34.11 19.5955 34.0605 19.997C34.0508 20.0742 34.0472 20.1469 34.1191 20.1984C35.509 21.1929 36.3862 22.1074 37.459 23.4354L38.0312 24.1637L39.0252 25.4642ZM10.557 35.6847L13.6565 33.3604C13.4522 32.8587 13.3103 32.3606 13.1805 31.8413C12.9857 31.0612 12.8327 30.3055 12.7223 29.5055C12.4976 28.1599 12.4453 26.8137 12.5455 25.4587C12.3576 25.2932 12.1578 25.1875 11.968 25.0514L11.5759 24.7702C10.5045 24.0021 9.54178 23.1188 8.61784 22.1763L7.45317 20.9884C7.29268 20.8246 7.15488 20.6663 7.00158 20.4823L6.38895 20.7651C5.84245 21.0175 5.33219 21.3116 4.82277 21.6298C3.95224 22.1741 3.14868 22.8689 2.45635 23.6161C2.45497 23.8601 2.40046 24.0557 2.38524 24.2929C2.28258 25.8978 2.42702 27.4933 2.81275 29.0515C2.93035 29.5266 3.05266 29.9701 3.21509 30.4275L3.59058 31.4857C4.6537 33.0106 5.74837 34.2301 7.27636 35.3054C7.97671 35.7979 8.70556 36.2202 9.48256 36.5771C9.81876 36.2384 10.1705 35.9753 10.557 35.6853V35.6847ZM21.2748 36.8649C21.3415 36.9299 21.414 36.9183 21.4832 36.8854C22.1138 36.5843 22.7093 36.2639 23.3219 35.9241C24.0441 35.5234 24.7082 35.0901 25.3878 34.6197C26.0802 34.1404 26.7147 33.6222 27.3519 33.0762C27.5918 32.8709 27.8165 32.675 28.0279 32.4453C28.0636 32.3139 28.0213 32.1938 28.0113 32.0621L27.8389 29.8196C27.7166 28.2302 27.5221 26.6751 27.2432 25.1108C27.184 24.7777 27.1981 24.8034 26.8076 24.6213L25.0901 23.8203L24.3258 23.4724C22.7807 22.7688 21.256 22.0579 19.7427 21.2889C19.6281 21.2308 19.5498 21.1605 19.4217 21.1287L18.4026 21.7671L16.993 22.6265L16.0561 23.2162L14.6205 24.211L14.2846 24.4578L13.8482 24.7957L12.9871 25.4246C12.8891 25.4963 12.8753 25.4955 12.8678 25.6192C12.7998 26.7515 12.8296 27.866 13.0042 28.987L13.2356 30.4724C13.3891 31.4583 13.6587 32.4049 13.9891 33.3446C14.1371 33.4885 14.3059 33.5693 14.4769 33.6667L15.4321 34.2113C16.7985 34.9905 18.1892 35.6944 19.6624 36.2534L21.2743 36.8649H21.2748ZM38.4906 38.1859C38.7465 38.0963 38.979 38.0174 39.2092 37.871C40.1807 36.8419 41.0549 35.6989 41.8108 34.5018C42.3081 33.7146 42.7317 32.9226 43.1288 32.0803C43.4938 31.3058 43.7926 30.5319 44.0677 29.72C44.5231 28.3746 44.8126 27.0016 45.0018 25.5956C44.908 25.4617 44.8746 25.3278 44.8236 25.1831L44.615 24.5887C44.5046 24.2738 44.3524 23.9957 44.1986 23.6982C43.9717 23.2591 43.6767 22.8731 43.341 22.4923C43.183 22.6503 43.0837 22.8089 42.9487 22.9611C42.1 23.9171 40.7408 24.9468 39.6168 25.5453L39.1043 25.8181C38.7557 27.6317 37.4482 30.4201 36.4543 31.9586L35.8787 32.8493L35.5522 33.3286C35.7965 34.25 35.8854 35.1573 35.9011 36.1031C35.9155 36.9731 35.8616 37.8066 35.7011 38.6591C36.6859 38.6549 37.5993 38.4986 38.4906 38.1859ZM13.7959 42.3745L12.7494 41.5081C11.7214 40.5698 10.8597 39.5413 10.1032 38.3724C9.79967 37.9034 9.55949 37.4283 9.34974 36.9117C9.27005 36.8035 9.109 36.7761 8.98864 36.7174C6.72377 35.61 4.84546 33.9182 3.43839 31.8432C3.05266 32.0853 2.95139 32.1481 2.54241 32.3006C3.28869 33.8709 4.1714 35.325 5.27326 36.6341L5.67199 37.1081L6.32254 37.8414C7.63221 39.3179 9.13474 40.5972 10.8144 41.6359L11.2361 41.8969L11.8221 42.2439C12.2082 42.4724 12.5931 42.6722 12.9918 42.8739C13.105 42.9312 13.209 42.9824 13.3388 43.0217C13.5029 42.815 13.6642 42.6208 13.7959 42.3745ZM28.332 43.4398C28.9754 43.1617 29.5814 42.885 30.2056 42.5651C32.0859 41.6014 33.8872 40.2795 35.3538 38.7313L35.4969 37.5099C35.6253 36.4136 35.5104 34.5292 35.2232 33.4102C34.7497 33.4406 34.3172 33.4481 33.8388 33.4354C31.9431 33.3853 30.0764 33.139 28.2393 32.6952C26.8998 34.0226 25.3842 35.1316 23.7685 36.0694L21.4934 37.2382C21.5095 37.4609 21.4965 37.6522 21.4962 37.8796C21.4937 39.3877 21.6044 40.8814 21.8302 42.3831C23.1905 42.8576 24.5876 43.2364 26.0135 43.3781L28.332 43.4404V43.4398ZM28.2645 43.7813C27.1538 43.8219 26.0818 43.7755 25.0068 43.587C23.9196 43.3964 22.88 43.1197 21.8603 42.722C21.7701 42.6072 21.6589 42.6302 21.536 42.6664C20.3182 43.0234 18.5656 43.0181 17.2899 42.9492C16.2254 42.8695 15.1963 42.7218 14.1443 42.504C14.0137 42.7503 13.8654 42.9592 13.6404 43.1639L14.934 43.7179C16.4006 44.2686 17.7667 44.6327 19.3157 44.8804C22.491 45.3878 25.3934 45.2282 28.4997 44.4064C28.3553 44.2179 28.3115 44.0062 28.2648 43.7816L28.2645 43.7813Z"/>
</mask>
<path d="M45.5586 22.779C45.5586 35.3596 35.3599 45.5583 22.7793 45.5583C10.1987 45.5583 0 35.3596 0 22.779C0 10.1984 10.1987 0 22.7793 0C35.3599 0 45.5586 10.1987 45.5586 22.7793V22.779ZM30.989 2.8977L31.8175 3.06401L31.955 2.77927C32.0056 2.6744 32.1152 2.60494 32.1562 2.48624C31.5596 2.19458 30.9602 1.97626 30.3481 1.74327C29.8639 1.55898 29.3943 1.42865 28.8971 1.28283C27.8741 0.982596 26.4238 0.694541 25.3627 0.583304C23.1241 0.348654 20.8885 0.388777 18.669 0.805502C17.9078 0.948561 17.1765 1.10518 16.4451 1.35781L16.6449 1.83735C17.4654 1.75628 18.2642 1.75849 19.0957 1.78505C20.8083 1.83957 22.7486 2.15335 24.3269 2.83683C25.9828 2.41678 29.3545 2.56953 30.9893 2.8977H30.989ZM18.2454 12.7422L18.9878 12.036C19.5429 11.5078 21.1937 10.3243 21.8778 9.8683L22.4647 9.47703C22.7464 9.28914 23.0613 9.17292 23.3346 8.97203C23.8336 8.75482 24.2284 8.48198 24.7293 8.27445C24.7093 7.17397 24.6028 6.10117 24.4617 5.00457C24.3792 4.36371 24.302 3.75412 24.1518 3.13014C23.5217 2.86118 22.8872 2.6874 22.2206 2.53411C21.3039 2.31661 20.3996 2.20787 19.4546 2.1481C18.4751 2.09691 17.5287 2.10438 16.5503 2.17328C14.9271 2.69543 13.5604 3.48045 12.2153 4.51313C11.5654 4.99073 10.9915 5.52506 10.4245 6.0973C10.0733 6.45176 9.73464 6.78824 9.42086 7.17093C9.39595 7.40226 9.41754 7.62169 9.4073 7.85053C9.39927 8.03094 9.43137 8.19614 9.43829 8.37213C9.45185 8.71303 9.48228 9.03955 9.5736 9.37354C9.60321 9.48146 9.53901 9.60929 9.59408 9.71334C9.65661 9.83149 9.7114 9.94854 9.67598 10.0891C9.77532 10.2598 9.78916 10.445 9.83786 10.6284C9.88656 10.8119 9.97455 10.9909 10.0393 11.1791C10.1738 11.5709 10.3121 11.9514 10.5017 12.3219L11.0438 12.2552C12.8227 12.0369 16.4247 12.2876 18.2454 12.7425V12.7422ZM40.7604 11.6334C41.3794 12.352 41.9077 13.105 42.4055 13.9063L43.2104 13.6739L42.2749 11.8183C42.1719 11.7491 42.1573 11.6409 42.1066 11.544C41.7798 10.9176 40.6879 9.33895 40.2297 8.80047L39.3844 7.80792C38.0409 6.23039 35.7932 4.45558 33.9802 3.42816C33.5037 3.15809 33.0422 2.90241 32.5463 2.66859C32.4204 2.60937 32.1968 3.0831 32.1498 3.17386C32.2486 3.30889 32.3819 3.39025 32.5042 3.49235L33.1102 3.99956C34.1581 4.87673 35.0743 5.87316 35.8834 6.97557C36.2268 7.44321 36.5437 7.89951 36.7894 8.42664L37.4446 8.79411C38.148 9.1887 38.7795 9.66104 39.3802 10.1998C39.6461 10.4383 40.0058 10.642 40.184 10.8918L40.4837 11.3122L40.7607 11.6337L40.7604 11.6334ZM4.35126 21.5255C5.16423 20.9679 5.94068 20.5523 6.86102 20.1929C6.98221 19.5866 7.15599 19.0304 7.34802 18.4574C7.4897 18.0348 7.62501 17.643 7.80902 17.2346C8.45237 15.5893 9.1649 13.9528 10.2031 12.4904C9.80631 11.6401 9.45738 10.7839 9.29191 9.86248L9.13474 8.98615C9.08631 8.75426 9.0509 8.53179 9.05366 8.29354L9.06556 7.2949C8.0719 7.4136 7.13662 7.70526 6.25032 8.09763C6.04223 8.24871 5.76275 8.31429 5.5887 8.51436C3.63098 10.7648 2.08916 13.7395 1.24602 16.5979C1.05648 17.2401 0.896263 17.8533 0.779491 18.5105C0.708654 18.9095 0.62149 19.2894 0.579707 19.692C0.5584 19.8985 0.719445 20.3487 0.786686 20.5645C1.08249 21.5128 1.56977 22.5806 2.28867 23.2904C2.96633 22.5737 3.54963 22.051 4.35098 21.5252L4.35126 21.5255ZM27.1582 24.4293C27.2053 24.4526 27.2764 24.4858 27.3154 24.4772C27.459 24.3576 27.6176 24.2719 27.7722 24.1681L28.1065 23.944L29.5246 22.9868L31.0883 21.9198L32.5372 20.8852L33.6014 20.1738C33.6944 20.1115 33.7317 20.0249 33.7387 19.9109C33.7685 19.42 33.7757 18.9402 33.7458 18.4468C33.7079 17.8276 33.6739 17.2401 33.587 16.6192C33.3676 15.0538 32.9932 13.5419 32.5131 12.0333L31.6171 11.4815C29.5233 10.2471 27.2921 9.17541 24.9409 8.50854C23.9954 9.01465 23.0687 9.51577 22.1769 10.0991C21.4586 10.5689 20.7911 11.0573 20.1093 11.575C19.4953 12.0189 18.9416 12.5048 18.407 13.0372C18.6007 14.214 18.5899 15.2312 18.8356 16.3795L19.3348 19.3636L19.5944 20.8454L20.9931 21.5291C21.2123 21.6362 21.4168 21.7402 21.6453 21.8246C21.7901 21.9458 21.9746 21.9754 22.1357 22.0604C22.5615 22.2854 22.9827 22.4785 23.421 22.6808L24.4443 23.1528L25.379 23.5676L26.2603 23.9844L27.1585 24.429L27.1582 24.4293ZM39.0252 25.4642C39.9989 24.9584 40.8703 24.3792 41.6852 23.6933C42.2367 23.2292 42.724 22.7403 43.139 22.1484C43.1144 22.0153 43.1631 21.8991 43.1767 21.7715C43.2981 20.6187 43.172 19.117 43.0355 17.9485C42.8847 16.654 42.6136 15.413 42.1775 14.1858C41.7032 13.445 41.2084 12.7389 40.6592 12.051C40.0936 11.3426 39.4649 10.7264 38.7792 10.1392C38.4051 9.8171 38.0171 9.55368 37.6004 9.29136C37.2933 9.09821 37.0041 8.90645 36.6734 8.75066C36.2625 9.20502 35.8397 9.5902 35.3848 9.97289L34.3023 10.8835L33.3922 11.6016L32.8393 12.033C33.5474 14.0549 34.0926 16.674 34.1064 18.806C34.1092 19.2153 34.11 19.5955 34.0605 19.997C34.0508 20.0742 34.0472 20.1469 34.1191 20.1984C35.509 21.1929 36.3862 22.1074 37.459 23.4354L38.0312 24.1637L39.0252 25.4642ZM10.557 35.6847L13.6565 33.3604C13.4522 32.8587 13.3103 32.3606 13.1805 31.8413C12.9857 31.0612 12.8327 30.3055 12.7223 29.5055C12.4976 28.1599 12.4453 26.8137 12.5455 25.4587C12.3576 25.2932 12.1578 25.1875 11.968 25.0514L11.5759 24.7702C10.5045 24.0021 9.54178 23.1188 8.61784 22.1763L7.45317 20.9884C7.29268 20.8246 7.15488 20.6663 7.00158 20.4823L6.38895 20.7651C5.84245 21.0175 5.33219 21.3116 4.82277 21.6298C3.95224 22.1741 3.14868 22.8689 2.45635 23.6161C2.45497 23.8601 2.40046 24.0557 2.38524 24.2929C2.28258 25.8978 2.42702 27.4933 2.81275 29.0515C2.93035 29.5266 3.05266 29.9701 3.21509 30.4275L3.59058 31.4857C4.6537 33.0106 5.74837 34.2301 7.27636 35.3054C7.97671 35.7979 8.70556 36.2202 9.48256 36.5771C9.81876 36.2384 10.1705 35.9753 10.557 35.6853V35.6847ZM21.2748 36.8649C21.3415 36.9299 21.414 36.9183 21.4832 36.8854C22.1138 36.5843 22.7093 36.2639 23.3219 35.9241C24.0441 35.5234 24.7082 35.0901 25.3878 34.6197C26.0802 34.1404 26.7147 33.6222 27.3519 33.0762C27.5918 32.8709 27.8165 32.675 28.0279 32.4453C28.0636 32.3139 28.0213 32.1938 28.0113 32.0621L27.8389 29.8196C27.7166 28.2302 27.5221 26.6751 27.2432 25.1108C27.184 24.7777 27.1981 24.8034 26.8076 24.6213L25.0901 23.8203L24.3258 23.4724C22.7807 22.7688 21.256 22.0579 19.7427 21.2889C19.6281 21.2308 19.5498 21.1605 19.4217 21.1287L18.4026 21.7671L16.993 22.6265L16.0561 23.2162L14.6205 24.211L14.2846 24.4578L13.8482 24.7957L12.9871 25.4246C12.8891 25.4963 12.8753 25.4955 12.8678 25.6192C12.7998 26.7515 12.8296 27.866 13.0042 28.987L13.2356 30.4724C13.3891 31.4583 13.6587 32.4049 13.9891 33.3446C14.1371 33.4885 14.3059 33.5693 14.4769 33.6667L15.4321 34.2113C16.7985 34.9905 18.1892 35.6944 19.6624 36.2534L21.2743 36.8649H21.2748ZM38.4906 38.1859C38.7465 38.0963 38.979 38.0174 39.2092 37.871C40.1807 36.8419 41.0549 35.6989 41.8108 34.5018C42.3081 33.7146 42.7317 32.9226 43.1288 32.0803C43.4938 31.3058 43.7926 30.5319 44.0677 29.72C44.5231 28.3746 44.8126 27.0016 45.0018 25.5956C44.908 25.4617 44.8746 25.3278 44.8236 25.1831L44.615 24.5887C44.5046 24.2738 44.3524 23.9957 44.1986 23.6982C43.9717 23.2591 43.6767 22.8731 43.341 22.4923C43.183 22.6503 43.0837 22.8089 42.9487 22.9611C42.1 23.9171 40.7408 24.9468 39.6168 25.5453L39.1043 25.8181C38.7557 27.6317 37.4482 30.4201 36.4543 31.9586L35.8787 32.8493L35.5522 33.3286C35.7965 34.25 35.8854 35.1573 35.9011 36.1031C35.9155 36.9731 35.8616 37.8066 35.7011 38.6591C36.6859 38.6549 37.5993 38.4986 38.4906 38.1859ZM13.7959 42.3745L12.7494 41.5081C11.7214 40.5698 10.8597 39.5413 10.1032 38.3724C9.79967 37.9034 9.55949 37.4283 9.34974 36.9117C9.27005 36.8035 9.109 36.7761 8.98864 36.7174C6.72377 35.61 4.84546 33.9182 3.43839 31.8432C3.05266 32.0853 2.95139 32.1481 2.54241 32.3006C3.28869 33.8709 4.1714 35.325 5.27326 36.6341L5.67199 37.1081L6.32254 37.8414C7.63221 39.3179 9.13474 40.5972 10.8144 41.6359L11.2361 41.8969L11.8221 42.2439C12.2082 42.4724 12.5931 42.6722 12.9918 42.8739C13.105 42.9312 13.209 42.9824 13.3388 43.0217C13.5029 42.815 13.6642 42.6208 13.7959 42.3745ZM28.332 43.4398C28.9754 43.1617 29.5814 42.885 30.2056 42.5651C32.0859 41.6014 33.8872 40.2795 35.3538 38.7313L35.4969 37.5099C35.6253 36.4136 35.5104 34.5292 35.2232 33.4102C34.7497 33.4406 34.3172 33.4481 33.8388 33.4354C31.9431 33.3853 30.0764 33.139 28.2393 32.6952C26.8998 34.0226 25.3842 35.1316 23.7685 36.0694L21.4934 37.2382C21.5095 37.4609 21.4965 37.6522 21.4962 37.8796C21.4937 39.3877 21.6044 40.8814 21.8302 42.3831C23.1905 42.8576 24.5876 43.2364 26.0135 43.3781L28.332 43.4404V43.4398ZM28.2645 43.7813C27.1538 43.8219 26.0818 43.7755 25.0068 43.587C23.9196 43.3964 22.88 43.1197 21.8603 42.722C21.7701 42.6072 21.6589 42.6302 21.536 42.6664C20.3182 43.0234 18.5656 43.0181 17.2899 42.9492C16.2254 42.8695 15.1963 42.7218 14.1443 42.504C14.0137 42.7503 13.8654 42.9592 13.6404 43.1639L14.934 43.7179C16.4006 44.2686 17.7667 44.6327 19.3157 44.8804C22.491 45.3878 25.3934 45.2282 28.4997 44.4064C28.3553 44.2179 28.3115 44.0062 28.2648 43.7816L28.2645 43.7813Z" fill="#232323" stroke="#232323" stroke-width="0.8" mask="url(#path-1-inside-1_92_14235)"/>
<path d="M24.9619 8.72363C26.9722 9.3021 28.8973 10.1785 30.7266 11.2012L31.5146 11.6543L32.3428 12.1641C32.8097 13.6411 33.1748 15.1194 33.3887 16.6475C33.4742 17.2594 33.5082 17.8387 33.5459 18.459C33.5754 18.9423 33.5676 19.4145 33.5381 19.8994C33.536 19.9341 33.5307 19.9565 33.5225 19.9727L33.4893 20.0078L32.4248 20.7188L32.4199 20.7227L30.9746 21.7549L29.4121 22.8213L27.9941 23.7783L27.6602 24.002C27.5497 24.0761 27.403 24.1614 27.2686 24.2607L27.2461 24.25L26.3486 23.8057L26.3447 23.8037L25.4639 23.3867L25.459 23.3848L24.5264 22.9717H24.5273L23.5039 22.499C23.0646 22.2963 22.6486 22.1057 22.2285 21.8838C22.1349 21.8343 22.028 21.7984 21.957 21.7705C21.8777 21.7393 21.8194 21.7111 21.7725 21.6719L21.7461 21.6494L21.7139 21.6377L21.3994 21.5039C21.2961 21.4557 21.1917 21.4041 21.0801 21.3496L19.7725 20.71L19.5312 19.3291L19.0322 16.3467L19.0303 16.3379C18.91 15.7759 18.8519 15.2441 18.7998 14.7002C18.7509 14.1901 18.7051 13.6669 18.6182 13.1094C19.1246 12.6104 19.6485 12.1545 20.2256 11.7373L20.2295 11.7344C20.9095 11.2178 21.5725 10.7324 22.2852 10.2666C23.1461 9.70351 24.0414 9.21668 24.9619 8.72363Z" fill="#F6EFDC" stroke="#232323" stroke-width="0.4"/>
<path d="M19.4873 21.3721C19.5218 21.392 19.5893 21.4362 19.6514 21.4678H19.6523C21.1693 22.2386 22.6973 22.9503 24.2432 23.6543L25.0068 24.002L26.7227 24.8027C26.8247 24.8503 26.8901 24.8796 26.9395 24.9053C26.9883 24.9307 26.9999 24.9421 27.002 24.9443C27.0022 24.9446 27.0023 24.9459 27.0029 24.9473C27.0046 24.9506 27.0076 24.9579 27.0117 24.9727C27.0216 25.0083 27.0301 25.0573 27.0459 25.1465C27.3233 26.7041 27.5178 28.2521 27.6396 29.835L27.8115 32.0771V32.0781C27.8147 32.1186 27.8203 32.1569 27.8252 32.1895C27.8304 32.224 27.8348 32.2504 27.8379 32.2773C27.8414 32.3071 27.8411 32.3309 27.8398 32.3516C27.751 32.4457 27.6607 32.5357 27.5654 32.623L27.2217 32.9248C26.5862 33.469 25.9574 33.9816 25.2734 34.4551C24.5967 34.9235 23.9387 35.3528 23.2246 35.749C22.6132 36.0884 22.0216 36.406 21.3965 36.7041L21.3564 36.665H21.3115L19.7334 36.0664C18.2729 35.5124 16.8918 34.8138 15.5312 34.0381L14.5762 33.4932C14.4057 33.396 14.2775 33.3323 14.1611 33.2295C13.8412 32.3133 13.5811 31.3946 13.4326 30.4414L13.2021 28.9561C13.0302 27.8521 13 26.7524 13.0674 25.6318C13.0678 25.6245 13.0679 25.6177 13.0684 25.6123C13.0691 25.6117 13.0705 25.611 13.0713 25.6104C13.0795 25.6044 13.0924 25.5957 13.1045 25.5869V25.5859L13.9658 24.957L13.9707 24.9541L14.4033 24.6191L14.7344 24.376L16.1689 23.3799L17.0967 22.7979L18.5068 21.9385L18.5088 21.9365L19.4443 21.3496C19.4579 21.3562 19.4722 21.3633 19.4873 21.3721Z" fill="#F6EFDC" stroke="#232323" stroke-width="0.4"/>
<path d="M16.5889 2.37012C17.5496 2.30344 18.4797 2.29575 19.4424 2.3457V2.34668C20.3801 2.40599 21.2725 2.51444 22.1748 2.72852H22.1758C22.8037 2.87292 23.3951 3.03442 23.9785 3.27441C24.111 3.85251 24.1854 4.42101 24.2637 5.0293C24.3986 6.07798 24.4998 7.10066 24.5254 8.14453C24.3152 8.23888 24.1228 8.34236 23.9365 8.44336C23.7111 8.56558 23.495 8.68356 23.2549 8.78809L23.2344 8.79688L23.2168 8.81055C23.0937 8.90103 22.9586 8.97408 22.8105 9.05176C22.6662 9.12747 22.5059 9.20877 22.3545 9.30957H22.3535L21.7666 9.70117C21.0833 10.1568 19.42 11.3493 18.8506 11.8906L18.1846 12.5225C17.2613 12.3038 15.9458 12.1349 14.6426 12.0459C13.2877 11.9534 11.9277 11.9441 11.0195 12.0557L10.6191 12.1045C10.4671 11.7865 10.347 11.4585 10.2285 11.1133C10.1941 11.0133 10.1533 10.916 10.1191 10.8301C10.0838 10.7412 10.0534 10.6594 10.0312 10.5762C10.02 10.5338 10.0107 10.491 10.001 10.4453C9.9916 10.4011 9.98142 10.352 9.96973 10.3037C9.95077 10.2255 9.92496 10.1415 9.88379 10.0557C9.9024 9.87128 9.82543 9.72106 9.77148 9.61914C9.77093 9.61417 9.77007 9.59878 9.77344 9.5625C9.77548 9.54053 9.77998 9.50022 9.78125 9.46387C9.78194 9.44422 9.7823 9.42174 9.78027 9.39746L9.7666 9.32031C9.6811 9.00784 9.65198 8.69788 9.63867 8.36328C9.63493 8.2683 9.62356 8.17373 9.61621 8.09375C9.60854 8.01025 9.60403 7.93456 9.60742 7.8584C9.61283 7.73712 9.60936 7.61667 9.6084 7.50879C9.6076 7.41879 9.60906 7.33405 9.61523 7.25C9.91074 6.89555 10.2282 6.57873 10.5664 6.2373C11.1299 5.66832 11.696 5.14264 12.334 4.67383L12.3369 4.6709C13.6613 3.65416 15.0017 2.88408 16.5889 2.37012Z" fill="#F6EFDC" stroke="#232323" stroke-width="0.4"/>
<path d="M6.94824 20.7256C7.06661 20.8646 7.18045 20.9951 7.31055 21.1279L8.47559 22.3154C9.40411 23.2626 10.3756 24.1544 11.46 24.9316L11.8516 25.2129C11.9506 25.2839 12.0565 25.3501 12.1475 25.4102C12.215 25.4547 12.2782 25.5003 12.3398 25.5488C12.2493 26.8814 12.3039 28.2061 12.5244 29.5312V29.5322C12.6359 30.3402 12.7901 31.1032 12.9863 31.8887C13.1047 32.3625 13.237 32.8241 13.416 33.2891L10.4375 35.5234L10.3574 35.584V35.5859C10.0401 35.8242 9.73809 36.0558 9.44629 36.335C8.72607 35.9954 8.04571 35.6006 7.3916 35.1406C5.8941 34.0872 4.81891 32.8919 3.76953 31.3896L3.4043 30.3594C3.24527 29.9108 3.12359 29.4746 3.00684 29.0029C2.626 27.4646 2.48362 25.8891 2.58496 24.3047C2.59193 24.1964 2.60774 24.0984 2.62402 23.9854C2.63667 23.8975 2.64635 23.8026 2.65137 23.6992C3.32256 22.9827 4.09572 22.3197 4.92871 21.7988C5.43404 21.483 5.93671 21.1934 6.47266 20.9463L6.94824 20.7256Z" fill="#F6EFDC" stroke="#232323" stroke-width="0.4"/>
<path d="M36.7158 8.99609C36.8274 9.05354 36.9356 9.11403 37.043 9.17871L37.4941 9.46094C37.8042 9.65588 38.0949 9.84972 38.374 10.0664L38.6494 10.291C39.3283 10.8724 39.9474 11.48 40.5029 12.1758C41.0417 12.8505 41.5281 13.5443 41.9951 14.2725C42.4216 15.4776 42.6884 16.6971 42.8369 17.9717C42.973 19.1399 43.0974 20.6227 42.9785 21.751C42.9725 21.8074 42.9618 21.8406 42.9473 21.9238C42.9389 21.9719 42.9318 22.0282 42.9336 22.0908C42.5406 22.6387 42.0813 23.0987 41.5566 23.54C40.7947 24.1809 39.9825 24.7262 39.0811 25.207L38.1904 24.043L38.1895 24.04L37.6172 23.3125L37.6152 23.3096L37.2178 22.8271C36.3094 21.7458 35.4778 20.9277 34.2559 20.0508L34.2598 20.0215C34.3113 19.6052 34.3094 19.2124 34.3066 18.8047C34.2926 16.6935 33.7648 14.1216 33.0742 12.1035L33.5156 11.7598L33.5166 11.7588L34.4268 11.041L34.4316 11.0371L35.5137 10.126C35.9347 9.77182 36.3294 9.41089 36.7158 8.99609Z" fill="#F6EFDC" stroke="#232323" stroke-width="0.4"/>
<path d="M28.2998 32.9121C30.1163 33.3432 31.9609 33.5853 33.834 33.6348C34.2597 33.6461 34.6503 33.6404 35.0645 33.6182C35.3171 34.7263 35.4182 36.4627 35.2988 37.4854L35.1641 38.6387C33.7223 40.1494 31.9576 41.4424 30.1152 42.3867C29.5091 42.6974 28.9184 42.966 28.292 43.2373L26.0273 43.1777C24.6645 43.0416 23.3245 42.6838 22.0107 42.2314C21.7985 40.7804 21.6949 39.3363 21.6973 37.8789C21.6975 37.709 21.7016 37.5384 21.6963 37.3574L23.8594 36.2461L23.8604 36.2471L23.8691 36.2412C25.4655 35.315 26.9658 34.2192 28.2998 32.9121Z" fill="#F6EFDC" stroke="#232323" stroke-width="0.4"/>
<path d="M8.85449 8.29102C8.85298 8.42098 8.86141 8.54599 8.87695 8.66797L8.93945 9.02734L9.0957 9.89746C9.25858 10.8062 9.59562 11.6475 9.97461 12.4688C8.95906 13.925 8.25691 15.542 7.62695 17.1523C7.43851 17.5703 7.30092 17.9708 7.15918 18.3936C6.97765 18.9353 6.81075 19.4694 6.68848 20.0469C5.79794 20.4029 5.03558 20.8141 4.24121 21.3584C3.482 21.8568 2.91696 22.3546 2.29102 23.0029C1.68065 22.33 1.24933 21.3762 0.977539 20.5049C0.941391 20.3887 0.887771 20.233 0.842773 20.0713C0.820695 19.9919 0.80261 19.9162 0.791016 19.8506C0.778927 19.782 0.776881 19.7367 0.779297 19.7129C0.820075 19.3197 0.903245 18.9572 0.976562 18.5459C1.09154 17.8988 1.25004 17.2928 1.43848 16.6543C2.27448 13.8202 3.80357 10.8718 5.74023 8.64551C5.80056 8.57627 5.88425 8.52416 5.99805 8.46582C6.09559 8.41583 6.22965 8.35343 6.3457 8.27344C7.1454 7.92062 7.98231 7.65541 8.86328 7.52539L8.85449 8.29102Z" fill="#F6EFDC" stroke="#232323" stroke-width="0.4"/>
<path d="M43.3379 22.7969C43.605 23.1146 43.8378 23.435 44.0215 23.79C44.1783 24.0933 44.3222 24.3564 44.4268 24.6543L44.6357 25.249C44.6731 25.3559 44.7133 25.4949 44.7939 25.6348C44.6059 27.0078 44.3222 28.3459 43.8789 29.6553C43.6059 30.4616 43.3095 31.2289 42.9482 31.9951C42.5542 32.8313 42.1343 33.6155 41.6426 34.3945C40.8979 35.5736 40.0374 36.6991 39.083 37.7129C38.9855 37.7731 38.8875 37.8211 38.7832 37.8643L38.4248 37.9971C37.6275 38.2768 36.8119 38.4257 35.9395 38.4521C36.0695 37.6683 36.115 36.8979 36.1016 36.0996C36.0861 35.1737 35.9996 34.278 35.7676 33.3672L36.0449 32.9619L36.0469 32.958L36.623 32.0674C37.6085 30.5425 38.8983 27.7978 39.2793 25.9502L39.7109 25.7217C40.7104 25.1895 41.8912 24.3237 42.751 23.4619L43.0986 23.0938C43.1714 23.0119 43.2355 22.9271 43.2939 22.8525C43.3086 22.8338 43.3232 22.815 43.3379 22.7969Z" fill="#F6EFDC" stroke="#232323" stroke-width="0.4"/>
<path d="M3.38281 32.1113C4.79589 34.1415 6.66056 35.8011 8.90137 36.8965C8.94072 36.9157 8.98096 36.9317 9.01465 36.9443C9.0511 36.9581 9.07972 36.9677 9.10742 36.9795C9.14912 36.9972 9.16871 37.0127 9.17969 37.0225C9.39008 37.5354 9.63152 38.0107 9.93555 38.4805C10.701 39.6631 11.5741 40.7047 12.6152 41.6553L12.6221 41.6621L13.5371 42.4189C13.4573 42.5455 13.3674 42.6601 13.2705 42.7822C13.2101 42.7569 13.1503 42.7293 13.083 42.6953C12.685 42.4937 12.3048 42.2963 11.9248 42.0713L11.3389 41.7246L10.9199 41.4658C9.25749 40.4377 7.76993 39.1706 6.47266 37.708L5.82227 36.9746L5.42676 36.5049C4.38314 35.265 3.53807 33.8905 2.81738 32.4062C3.03905 32.3159 3.16905 32.2437 3.38281 32.1113Z" fill="#F6EFDC" stroke="#232323" stroke-width="0.4"/>
<path d="M14.2461 42.7275C15.257 42.9312 16.2498 43.0717 17.2754 43.1484H17.2793C18.555 43.2173 20.3389 43.2259 21.5928 42.8584C21.6221 42.8498 21.6443 42.8434 21.6631 42.8398C21.6796 42.8368 21.6893 42.8367 21.6943 42.8369C21.6958 42.8381 21.699 42.8404 21.7031 42.8457L21.7373 42.8887L21.7881 42.9082C22.8219 43.3112 23.8742 43.5916 24.9727 43.7842C26.0104 43.9663 27.0429 44.0159 28.1045 43.9854C28.1267 44.0801 28.1576 44.1774 28.1992 44.2754C25.2129 45.0337 22.4094 45.1723 19.3477 44.6826C17.812 44.4371 16.4578 44.0765 15.0039 43.5303L13.9844 43.0938C14.0855 42.9766 14.1702 42.8562 14.2461 42.7275Z" fill="#F6EFDC" stroke="#232323" stroke-width="0.4"/>
<path d="M18.7061 1.00195C20.9039 0.589347 23.1197 0.548046 25.3418 0.78125C26.3908 0.891211 27.8292 1.17773 28.8408 1.47461C29.3419 1.62157 29.8023 1.74891 30.2773 1.92969C30.8193 2.13607 31.3394 2.32915 31.8564 2.56738C31.8526 2.57213 31.8486 2.57698 31.8447 2.58203L31.7754 2.69141L31.7051 2.83594L31.0293 2.70117C30.1968 2.53402 28.9323 2.41265 27.6709 2.38574C26.4453 2.35962 25.1998 2.42313 24.3457 2.62695C22.7484 1.94849 20.8091 1.63931 19.1025 1.58496C18.3172 1.55987 17.5547 1.55777 16.7734 1.62598L16.7129 1.47949C17.3631 1.27045 18.0186 1.13115 18.7061 1.00195Z" fill="#F6EFDC" stroke="#232323" stroke-width="0.4"/>
<path d="M32.5439 2.88965C33.0008 3.10906 33.4313 3.34749 33.8799 3.60156C35.6757 4.61899 37.9047 6.38013 39.2305 7.9375L40.0762 8.92969C40.2983 9.19053 40.6812 9.71245 41.0518 10.252C41.4226 10.7919 41.7704 11.3343 41.9277 11.6357V11.6367C41.9355 11.6517 41.9432 11.6689 41.9531 11.6934C41.9621 11.7153 41.9747 11.7468 41.9893 11.7773C42.0145 11.8302 42.0517 11.8905 42.1123 11.9443L42.9209 13.5479L42.4912 13.6719C42.0132 12.9125 41.505 12.1922 40.9111 11.5029L40.6445 11.1943L40.3457 10.7754C40.2377 10.624 40.0814 10.4951 39.9355 10.3828C39.781 10.2638 39.6381 10.1633 39.5127 10.0508C38.9033 9.50425 38.2599 9.02199 37.541 8.61914L36.9395 8.28223C36.6892 7.76163 36.3748 7.30858 36.043 6.85645C35.2253 5.74236 34.2984 4.73392 33.2373 3.8457L32.6309 3.33887C32.597 3.31052 32.5633 3.28374 32.5322 3.25977C32.5001 3.23501 32.4711 3.21314 32.4434 3.19043C32.4247 3.17512 32.4078 3.15951 32.3916 3.14453C32.4195 3.09134 32.4502 3.02878 32.4863 2.97168C32.5076 2.93808 32.5273 2.91078 32.5439 2.88965Z" fill="#F6EFDC" stroke="#232323" stroke-width="0.4"/>
</svg>
