<svg width="148" height="47" viewBox="0 0 148 47" fill="none" xmlns="http://www.w3.org/2000/svg">
<g clip-path="url(#clip0_85_13104)">
<path d="M132.677 23.2846C132.677 23.2846 132.678 23.2842 132.678 23.2842L148 0L74.2121 12.1036V9.74339C73.8584 10.3117 73.4309 10.9994 72.961 11.756L30.6511 0L23.3879 11.037C22.6014 10.9402 21.7674 10.8814 20.8898 10.8814C16.6034 10.8814 13.9896 12.6015 13.9833 15.0421C13.9825 15.2349 13.9994 15.4199 14.0335 15.597C14.4239 13.469 16.953 12.0158 20.8898 12.0158C21.5126 12.0158 22.1128 12.0455 22.6906 12.0969L18.2554 18.8366C14.5382 18.7856 12.6677 17.2557 12.6662 15.0205V16.1523C12.6662 18.2378 14.2931 19.7104 17.5285 19.9408L0 46.5767L74 34.4381L117.349 46.5767L131.29 25.3921C131.913 25.3653 132.419 25.2105 132.906 24.9627V23.8283C132.653 23.9571 132.395 24.0602 132.118 24.1342L132.677 23.2846Z" fill="#232323"/>
<path d="M39.6231 9.74316C37.0903 9.74316 35.1448 10.9354 33.0585 13.5554C32.4586 13.2365 31.8386 12.9268 31.2253 12.6398C31.8761 11.7388 32.4381 10.977 32.7498 10.5517L29.3678 10.6949C29.1504 10.9685 28.9452 11.2425 28.6983 11.5767C26.6686 10.8227 24.0287 10.1038 20.7274 10.1038C15.7407 10.1038 12.666 12.0616 12.666 15.018C12.666 17.2922 14.5997 18.8388 18.4458 18.8388C21.1057 18.8388 23.1875 18.057 24.6907 17.1374C22.3415 20.4619 19.2283 25.0331 18.0963 26.8779C17.5388 27.7856 17.1465 28.5213 17.1465 29.2135C17.1465 30.3758 18.3142 31.0266 19.6515 31.0266C21.2615 31.0266 22.5624 29.8851 24.2054 27.8259L24.7835 27.064C24.7835 27.064 24.7006 27.474 24.7006 27.8458C24.7006 29.5711 25.7649 31.0307 29.1018 31.0307C33.6546 31.0307 37.8695 28.6688 41.9952 24.7843L42.867 23.9643C41.5518 25.7443 41.0233 26.9794 41.0233 27.7352C41.0233 28.6835 41.6921 29.2506 42.7678 29.2506C44.4176 29.2506 46.2028 27.9683 47.6232 26.5236L48.2667 25.8615C47.8399 26.6754 47.6232 27.3146 47.6232 27.8435C47.6232 28.6172 48.097 29.2618 49.2532 29.2618C51.2818 29.2618 53.2178 27.4592 54.8391 25.7409C54.6012 26.2958 54.3777 26.9901 54.3777 27.5182C54.3777 28.5982 55.1046 29.2365 56.2803 29.2365C57.8038 29.2365 59.3307 28.4202 61.0909 26.4616C61.3154 26.2111 61.6635 25.8251 61.9749 25.4518C61.6609 26.0819 61.2892 26.8777 61.2892 27.6815C61.2892 28.6439 61.8804 29.2276 63.025 29.2276C65.4976 29.2276 67.7244 26.6058 69.0612 25.1506C68.4119 26.215 68.0056 26.9684 68.0056 27.7071C68.0056 28.7766 68.7878 29.2302 69.744 29.2302C71.9239 29.2302 73.9269 27.3044 75.4556 25.4079C75.0824 26.1329 74.6887 26.8714 74.6887 27.6436C74.6887 28.6667 75.3947 29.2173 76.5783 29.2173C77.6424 29.2173 78.9995 28.809 80.5125 27.4774C81.91 26.2463 82.9659 24.8842 83.8153 23.5914C84.208 24.2463 84.837 24.6358 85.5598 24.8572C85.2503 25.5427 85.0571 26.292 85.0571 26.9187C85.0571 28.3038 85.9315 29.2224 87.8188 29.2224C91.0096 29.2224 93.6594 26.5134 95.3061 24.7765C94.4949 26.1476 94.221 26.9743 94.221 27.6431C94.221 28.6441 94.8737 29.2339 96.0701 29.2339C98.1488 29.2339 100.355 27.1238 102.267 25.2913C102.938 24.6475 104.476 23.1079 106.674 20.7923C106.523 21.4856 106.299 22.6013 106.198 23.1547C105.44 27.3206 104.288 28.6135 102.875 28.6135C101.625 28.6135 101.936 27.2727 101.007 27.2727C100.644 27.2727 100.369 27.5727 100.369 27.9523C100.369 28.6646 101.217 29.2916 102.705 29.2916C105.536 29.2916 107.549 27.5634 109.143 26.1492C109.935 25.4436 110.733 24.7216 111.61 23.9505C111.069 24.8865 110.612 25.9138 110.612 27.0407C110.612 28.2893 111.439 29.2357 113.237 29.2357C116.691 29.2357 119.343 26.0772 120.783 24.2477C122.746 21.7513 124.263 19.8776 125.16 19.8776C125.365 19.8776 125.485 19.9835 125.485 20.1897C125.485 20.5771 125.206 21.0401 124.685 21.941C123.016 24.826 120.603 28.3667 120.222 29.0019L123.06 28.8957C124.383 26.7744 127.985 22.1199 129.781 20.6011C129.325 21.2416 129.055 21.9792 129.055 22.5724C129.055 23.6189 129.737 24.2629 131.098 24.2629C131.811 24.2629 132.37 24.101 132.906 23.8282L132.677 23.2841C132.323 23.4728 132.021 23.5715 131.662 23.5715C131.027 23.5715 130.842 23.1431 130.842 22.6634C130.842 21.5555 131.882 20.1649 132.963 19.8299C132.956 19.3175 132.466 18.9468 131.686 18.9468C130.608 18.9468 129.147 19.7794 126.111 23.6178C127.013 21.9795 127.476 21.1975 127.476 20.2586C127.476 19.5232 126.976 18.9804 125.931 18.9804C123.983 18.9804 122.744 20.704 120.174 23.9287C118.557 25.9592 116.427 28.1042 114.349 28.1042C113.621 28.1042 113.254 27.7345 113.254 27.1145C113.252 26.3482 113.628 25.4247 113.907 24.9204C116.586 24.6372 120.415 22.4911 120.415 20.1759C120.415 19.1982 119.752 18.8009 118.613 18.8009C117.245 18.8009 115.535 19.4473 113.736 21.109C111.984 22.7282 109.05 25.4594 107.588 26.6224C108.284 25.5934 108.471 24.5964 108.471 23.4148C108.471 22.2585 108.347 21.3743 108.347 20.2471C108.347 20.1127 108.359 19.881 108.379 19.7604C108.955 19.6503 109.445 19.2448 109.445 18.6304C109.445 18.1719 109.148 17.8187 108.569 17.8187C107.857 17.8187 107.24 18.3431 106.945 19.5198C106.076 20.4688 104.671 21.9146 103.414 23.1874C100.402 26.226 98.3401 28.0568 97.2131 28.0568C96.9178 28.0568 96.7352 27.9163 96.7352 27.5874C96.7352 26.9755 97.6182 25.4442 98.3852 24.2376C98.3852 24.2376 99.1601 22.9899 101.546 19.2594L98.7199 19.4219C98.5045 19.7721 97.735 20.8212 97.5799 21.0151C95.5978 23.5919 91.9386 28.1024 88.9329 28.1024C88.0074 28.1024 87.711 27.6384 87.711 27.0005C87.711 26.3146 88.037 25.5569 88.3356 24.9324C92.0937 24.4159 94.8555 21.9388 94.8555 20.1759C94.8555 19.2477 94.2906 18.8009 93.0737 18.8009C89.6753 18.8009 86.9645 22.1372 85.8659 24.2351C85.1413 24.0333 84.535 23.6096 84.2379 22.9152C85.2825 21.1843 85.876 19.7071 85.876 19.1816C85.876 18.9033 85.5438 18.6912 85.1028 18.6912C84.5374 18.6912 84.193 18.9715 83.9821 19.2767C83.5474 19.9052 83.2551 21.0893 83.2956 22.4131C82.6129 24.3643 79.7386 28.0401 77.6857 28.0401C77.2942 28.0401 77.1478 27.8557 77.1478 27.5546C77.1478 26.9413 77.8755 25.5448 79.212 23.399C79.3847 23.1202 80.98 20.5151 81.7725 19.2606L78.9625 19.4116C78.2963 20.4254 77.7341 21.306 77.0278 22.2933C74.0611 26.4373 72.0434 28.045 70.9624 28.045C70.6522 28.045 70.4941 27.9013 70.4941 27.6319C70.4941 27.3673 70.6454 27.0217 70.9321 26.4929C71.8429 24.8085 74.0322 21.6169 75.6186 19.2649L72.774 19.4061C72.4442 19.8899 71.5083 21.1798 71.1486 21.6313C67.1623 26.5943 65.2482 28.0218 64.2744 28.0218C63.9252 28.0218 63.8052 27.8204 63.8052 27.5294C63.8052 26.721 64.6936 25.2023 66.4629 22.2537C66.799 21.694 71.9738 13.3389 74.2118 9.74316L71.222 9.9229C71.222 9.9229 66.5293 17.515 65.023 19.9623C64.6873 19.2615 63.9855 18.8514 62.9007 18.8514C60.5133 18.8514 58.3007 20.4329 56.4775 22.7079C55.4853 23.9461 52.3668 28.0137 50.6245 28.0137C50.3387 28.0137 50.1959 27.8722 50.1959 27.5856C50.1959 27.4613 50.2215 27.3103 50.2751 27.1306C50.4489 26.5437 51.1071 25.4284 51.8909 24.1817C51.8909 24.1817 52.6857 22.9408 55.1114 19.2568L52.1161 19.4406C52.1161 19.4406 49.5862 23.2345 48.887 24.1351C47.3557 26.0997 45.2039 28.0062 44.0623 28.0062C43.7254 28.0062 43.6139 27.822 43.6139 27.6433C43.6139 27.3776 43.7348 27.0317 44.1912 26.2506C45.0046 24.8684 48.7673 19.2428 48.7673 19.2428L45.8174 19.4237C45.481 19.8959 44.8223 20.7947 44.4577 21.2405C42.8791 23.1534 39.2704 26.5362 36.79 27.95C38.0808 26.5235 39.1794 24.6933 39.1794 22.6944C39.1794 20.3152 37.6621 19.6599 36.8325 19.2092C38.335 18.8836 40.1889 18.2606 41.5382 16.9238C42.5363 15.9353 43.383 14.293 43.383 12.8643C43.383 11.2871 42.3587 9.74316 39.6231 9.74316ZM38.6282 10.835C39.8935 10.835 40.2816 11.6184 40.2816 12.5927C40.2816 14.0196 38.9876 16.7474 36.5143 17.9063C35.4029 18.4232 33.8561 18.463 31.8939 18.463L31.2195 19.4573C31.3922 19.4215 31.6881 19.3961 32.0586 19.3961H33.1452C35.4383 19.3961 35.9593 20.6717 35.9593 22.103C35.9593 25.2629 32.8369 30.0772 28.2939 30.0772C26.338 30.0772 25.6059 29.1462 25.6059 27.8027C25.6059 25.3089 27.854 22.8982 31.4765 22.8406V22.0826C30.4435 22.0826 28.8432 22.348 27.5993 23.1615C29.4881 20.4236 32.2253 16.2376 33.4262 14.6519C34.222 15.1078 34.9368 15.5895 35.5442 16.0648L35.9991 15.4819C35.5214 15.1127 34.8549 14.6214 33.8968 14.0538C34.998 12.659 36.7132 10.835 38.6282 10.835ZM20.8896 10.8816C23.9504 10.8816 26.502 11.5765 28.2274 12.2304C28.2004 12.2691 26.3823 14.7604 26.3823 14.7604C25.4587 15.7917 22.9484 18.057 18.5788 18.0708C15.6375 18.0797 13.9768 16.9215 13.9824 15.0418C13.9888 12.6012 16.6032 10.8816 20.8896 10.8816ZM30.7735 13.2858C31.3835 13.5649 31.9907 13.8573 32.5902 14.171C31.1619 16.0872 29.109 19.2989 27.0373 22.2899C24.7203 25.6352 23.0411 27.9943 21.7229 29.1234C21.21 29.5644 20.8441 29.7858 20.5065 29.7858C20.2252 29.7858 20.112 29.6168 20.112 29.4177C20.112 29.1791 20.2271 28.8179 20.7352 27.9635C21.3388 26.9512 30.093 14.227 30.7735 13.2858ZM103.352 13.5402C102.264 13.5402 101.596 14.5428 101.596 15.3909C101.596 16.0615 102.003 16.5345 102.801 16.5345C103.762 16.5345 104.512 15.6387 104.512 14.7265C104.512 13.942 103.977 13.5402 103.352 13.5402ZM93.1173 19.5187C93.4313 19.5187 93.5911 19.7086 93.5911 19.9933C93.5911 21.751 90.9266 23.9001 88.7013 24.2563C90.0206 21.8689 91.7793 19.5187 93.1173 19.5187ZM118.696 19.5187C119.016 19.5187 119.145 19.7077 119.145 19.995C119.145 21.6202 116.499 23.882 114.274 24.2434C115.934 21.2505 117.543 19.5187 118.696 19.5187ZM63.4008 19.6964C64.0322 19.6964 64.4065 20.0167 64.4065 20.5753C64.4065 20.7345 64.3561 20.9489 64.2617 21.1078C63.1856 22.9262 61.7576 24.7454 60.5024 26.1153C59.173 27.5835 58.2536 27.9841 57.6863 27.9841C57.1217 27.9841 57.0475 27.6741 57.0475 27.4002C57.0475 26.3533 58.3767 23.9425 59.678 22.3266C61.1891 20.4469 62.2933 19.6964 63.4008 19.6964Z" fill="white"/>
</g>
<defs>
<clipPath id="clip0_85_13104">
<rect width="148" height="47" fill="white"/>
</clipPath>
</defs>
</svg>
