<svg width="90" height="25" viewBox="0 0 90 25" fill="none" xmlns="http://www.w3.org/2000/svg">
<path d="M15.1147 20.6272C15.1147 21.3802 15.3312 22.0675 15.7636 22.6902L16.7005 24.08H9.083L9.99624 22.6902C10.4287 22.0244 10.6452 21.3371 10.6452 20.6272V13.2015H6.05533V20.6272C6.05533 21.3802 6.27182 22.0675 6.70427 22.6902L7.61751 24.08H0L0.93741 22.6902C1.36986 22.0244 1.58635 21.3371 1.58635 20.6272V3.45223C1.58635 2.68507 1.36986 1.99042 0.93741 1.36776L0 0H7.61751L6.70427 1.36776C6.27182 1.99042 6.05533 2.68507 6.05533 3.45223V10.878H10.6452V3.45223C10.6452 2.68507 10.4287 1.99042 9.99624 1.36776L9.083 0H16.7005L15.7636 1.36776C15.3312 1.99042 15.1147 2.68507 15.1147 3.45223V20.6267V20.6272Z" fill="#232323"/>
<path d="M37.6968 3.71302C38.8112 4.88531 39.6577 6.20683 40.2373 7.67547C40.8158 9.14464 41.0912 10.6753 41.0623 12.2674C40.9898 15.5825 39.7739 18.3685 37.4146 20.6269C36.2565 21.7419 34.9465 22.5847 33.4847 23.1564C32.0224 23.7286 30.5175 24.0139 28.9684 24.0139C27.4194 24.0139 25.8126 23.7066 24.3218 23.0912C22.8306 22.4759 21.5065 21.5753 20.3484 20.3883C18.0611 18.0001 16.9429 15.1448 16.9939 11.8229C17.0443 8.50096 18.2497 5.68925 20.609 3.38776C22.9972 1.10046 25.8556 -0.0213842 29.1854 0.0217031C32.5147 0.0653158 35.3301 1.2665 37.6316 3.62579L37.6968 3.71249V3.71302ZM30.8138 21.2784C32.768 21.4087 34.3927 20.9169 35.6885 19.8019C36.9837 18.6874 37.7041 17.1531 37.8491 15.1989C37.9647 13.7949 37.7546 12.3651 37.2196 10.9107C36.6837 9.45571 35.8808 8.1137 34.8094 6.88309C33.7527 5.653 32.5515 4.67565 31.2053 3.9521C29.8591 3.22855 28.4913 2.81607 27.1015 2.71466C25.1762 2.58434 23.5626 3.08773 22.2594 4.22376C20.9568 5.36032 20.2254 6.89832 20.0667 8.83778C19.9653 10.2707 20.186 11.722 20.7288 13.1912C21.2716 14.6603 22.086 16.0102 23.1716 17.2403C24.2141 18.442 25.4043 19.3936 26.7431 20.0956C28.082 20.7982 29.4387 21.1923 30.8144 21.279L30.8138 21.2784Z" fill="#232323"/>
<path d="M60.8452 3.71302C61.9597 4.88531 62.8062 6.20683 63.3858 7.67547C63.9643 9.14464 64.2396 10.6753 64.2107 12.2674C64.1382 15.5825 62.9223 18.3685 60.563 20.6269C59.4049 21.7419 58.095 22.5847 56.6331 23.1564C55.1708 23.7286 53.6659 24.0139 52.1169 24.0139C50.5678 24.0139 48.961 23.7066 47.4703 23.0912C45.979 22.4759 44.6549 21.5753 43.4968 20.3883C41.2095 18.0001 40.0913 15.1448 40.1423 11.8229C40.1927 8.50096 41.3981 5.68925 43.7574 3.38776C46.1456 1.10046 49.0041 -0.0213842 52.3339 0.0217031C55.6632 0.0653158 58.4785 1.2665 60.78 3.62579L60.8452 3.71249V3.71302ZM53.9623 21.2784C55.9164 21.4087 57.5411 20.9169 58.8369 19.8019C60.1321 18.6874 60.8525 17.1531 60.9976 15.1989C61.1132 13.7949 60.903 12.3651 60.3681 10.9107C59.8321 9.45571 59.0292 8.1137 57.9578 6.88309C56.9011 5.653 55.6999 4.67565 54.3537 3.9521C53.0075 3.22855 51.6398 2.81607 50.2499 2.71466C48.3247 2.58434 46.711 3.08773 45.4079 4.22376C44.1053 5.36032 43.3738 6.89832 43.2151 8.83778C43.1137 10.2707 43.3344 11.722 43.8772 13.1912C44.42 14.6603 45.2345 16.0102 46.3201 17.2403C47.3626 18.442 48.5527 19.3936 49.8916 20.0956C51.2304 20.7982 52.5871 21.1923 53.9628 21.279L53.9623 21.2784Z" fill="#232323"/>
<path d="M73.3747 0H79.0969L78.1595 1.36776C78.0471 1.52697 77.9346 1.7298 77.8227 1.97571C77.6945 2.23633 77.5342 2.61256 77.3419 3.10491C77.1496 3.59726 76.9888 4.02078 76.8611 4.37493C76.7324 4.72961 76.6688 4.91457 76.6688 4.92876L70.4417 24.1446L64.6711 4.71175C63.8535 2.71397 63.3806 1.59948 63.2524 1.36776L62.6513 0.477638L62.3145 0H70.0323L69.6235 0.499182C69.4149 0.730907 69.2226 1.01308 69.0466 1.34621C68.7581 1.85328 68.6619 2.33775 68.7581 2.8012L71.595 11.5731L74.36 3.561C74.6968 2.69243 74.6726 1.96888 74.288 1.38983L73.3742 0L73.3747 0Z" fill="#232323"/>
<path d="M87.9185 3.86472C87.6274 3.44488 87.2427 3.09755 86.7661 2.82274C86.289 2.54793 85.7751 2.38872 85.2255 2.3451V10.5527C85.6138 10.3504 85.9049 10.0824 86.0988 9.74928L87.7246 7.07839V17.0011L86.0988 14.3302C85.9049 13.9976 85.6138 13.7296 85.2255 13.5268V21.7123C86.3899 21.6256 87.2879 21.1259 87.9185 20.2142L89.6898 17.6085V24.0789H79.1113L80.0577 22.6891C80.478 22.0812 80.6882 21.3939 80.6882 20.6262V3.45223C80.6882 2.67036 80.478 1.97571 80.0577 1.36776L79.1113 0H89.6898V6.47044L87.9185 3.86472Z" fill="#232323"/>
</svg>
