<svg width="516" height="415" viewBox="0 0 516 415" fill="none" xmlns="http://www.w3.org/2000/svg">
<path d="M235.951 8.71289C247.896 -0.904564 267.371 -0.904494 279.316 8.71289L504.956 190.385C510.885 195.158 513.767 201.337 513.768 207.432C513.768 213.527 510.885 219.705 504.956 224.479L279.316 406.15C267.371 415.768 247.897 415.768 235.951 406.15L10.3115 224.479C4.38252 219.705 1.5 213.526 1.5 207.432C1.50008 201.337 4.3825 195.158 10.3115 190.385L235.951 8.71289Z" fill="#FFBE3B" stroke="#232323" stroke-width="3"/>
<mask id="path-2-inside-1_84_13061" fill="white">
<path fill-rule="evenodd" clip-rule="evenodd" d="M335.263 98.9559C370.553 124.685 391.072 164.252 392.543 207.386L369.534 207.101L369.296 200.187L368.413 186.233V186.228C367.569 186.083 366.379 185.99 365.715 186.014L366.648 207.129L342.56 206.887C342.355 176.765 341.172 147.18 337.531 117.457L335.263 98.9559ZM356.979 129.608C359.932 142.351 362.022 154.779 363.658 167.71C364.565 167.822 365.356 167.881 366.367 167.876C364.441 155.453 362.301 144.194 359.658 132.35C359.37 131.061 358.395 129.977 356.979 129.608Z"/>
<path fill-rule="evenodd" clip-rule="evenodd" d="M171.386 125.404C168.488 152.52 167.006 179.129 166.724 206.687L141.961 207.07L142.944 186.245H142.946C142.409 185.627 141.046 185.708 140.091 186.167L138.972 207.094L115.396 207.232C116.767 163.601 138.578 122.59 175.118 97.1915L171.386 125.404ZM152.233 128.741C150.395 129.747 149.846 130.95 149.366 132.767C146.262 144.504 143.716 156.073 142.243 167.915C143.699 167.827 144.571 167.815 144.789 167.42C144.963 167.104 145.086 166.307 145.172 165.696C146.965 153.036 149.392 140.773 152.233 128.741Z"/>
<path d="M283.714 75.7266C291.702 77.4295 298.723 79.7624 305.986 82.6046L316.295 132.546C316.637 134.204 316.772 135.617 317.311 137.294L313.653 86.1108C320.465 89.2835 326.251 92.7536 332.151 96.6755C336.616 128.586 338.972 160.29 339.364 192.384L339.573 206.767L317.024 206.657L307.599 152.801L307.855 161.953C307.898 163.456 307.962 164.854 308.128 166.369L308.694 206.616L286.006 206.594L283.714 75.7266Z"/>
<path fill-rule="evenodd" clip-rule="evenodd" d="M209.968 79.8223C214.906 78.3001 220.054 79.5673 223.077 83.6818C225.818 87.7917 225.979 92.5466 225.832 97.3509L225.4 111.485L224.96 142.104C224.834 150.876 223.229 159.058 216.479 165.239L224.673 164.923L224.592 206.542L224.595 206.544L198.361 206.59L198.504 180.292C197.68 180.159 196.589 180.173 195.387 180.297L195.143 206.606L169.788 206.697C169.821 185.334 170.925 164.35 172.398 142.914L178.013 95.0291C188.276 88.5956 198.596 83.3304 209.968 79.8223ZM201.289 102.94C200.273 103.094 199.441 103.297 198.603 103.63L196.066 157.148C196.943 157.507 198.751 156.889 198.789 155.971L198.786 155.973L200 126.317L201.289 102.94Z"/>
<path d="M229.431 74.6611C246.667 71.6976 263.965 71.7404 280.9 75.17L281.523 95.3715H281.556V96.4316L281.581 97.2673C281.573 97.2663 281.564 97.2652 281.556 97.2642L282.389 153.268L275.826 153.201C264.788 153.201 271.92 153.201 255.84 153.201V95.4364C255.231 95.423 254.62 95.412 254.009 95.4028L253.97 152.824L253.991 155.695L282.693 156.194L283.021 179.5L254.125 179.359L254.127 179.364C253.835 180.139 253.807 181.519 254.075 182.275L283.021 182.463L283.066 206.569L227.54 206.519L227.718 181.179L228.188 124.247L228.661 102.255L229.062 85.8966L229.431 74.6611Z"/>
<path d="M282.267 237.217H282.428L281.21 297.884H275.826C264.788 297.884 271.92 297.884 255.84 297.884V239.903L253.526 239.94L253.602 301.228L281.21 299.934L280.691 322.351V322.348L254.061 324.039C253.776 324.757 253.735 325.647 253.856 326.91L280.738 325.326L280.021 347.209C262.979 350.349 246.327 350.549 229.648 347.441C228.012 303.179 227.186 259.816 226.913 215.604H282.396L282.267 237.217Z"/>
<path fill-rule="evenodd" clip-rule="evenodd" d="M321.367 215.373C327.453 215.332 332.785 218.753 335.985 223.45C338.977 228.475 339.271 233.777 338.925 239.463C338.207 251.241 337.697 262.772 336.222 274.471C335.407 280.923 331.695 285.871 327.738 290.808L334.968 289.234L329.457 327.095V327.093C322.657 331.633 315.841 335.201 308.312 338.504L310.741 307.395C310.152 306.817 308.715 306.803 307.989 307.184L305.596 339.66C298.055 342.572 290.901 344.776 282.807 346.567C284.263 302.945 285.379 259.594 285.529 215.611L321.367 215.373ZM313.912 239.021C313.009 238.455 311.489 238.367 310.876 239.05L309.142 284.903C311.373 284.945 312.133 283.276 312.225 280.95V280.948L313.912 239.021Z"/>
<path fill-rule="evenodd" clip-rule="evenodd" d="M205.137 215.582C212.158 215.673 217.915 219.895 221.2 225.786C223.43 230.093 224.21 234.538 224.288 239.438L225.259 299.088L225.261 299.083C225.354 304.722 223.267 309.924 219.778 313.855C216.978 317.011 213.068 317.964 208.964 318.233C205.653 317.829 202.769 317.239 199.225 316.312L201.073 339.054C193.221 336.093 186.549 332.226 179.635 327.971C173.362 290.571 170.139 253.213 169.581 215.123L205.137 215.582ZM195.104 238.484L197.385 295.061L200.534 294.935L198.254 238.358L195.104 238.484Z"/>
<path fill-rule="evenodd" clip-rule="evenodd" d="M392.553 214.434C391.724 242.356 382.839 268.968 366.693 291.656C362.194 297.915 357.408 303.39 351.943 308.925L357.48 292.219C355.406 292.407 355.142 293.513 354.753 294.887C353.183 300.438 351.497 305.561 349.511 311.355L348.471 312.342C343.255 317.244 337.938 321.516 331.83 325.559L337.464 290.414C340.554 265.382 342.354 240.617 343.067 215.173L392.553 214.434ZM368.434 235.461C367.645 235.183 366.541 235.143 365.586 235.364C364.37 249.332 362.287 262.663 359.534 276.357C361.323 276.231 362.185 274.963 362.598 273.049C365.332 260.396 366.985 248.33 368.434 235.461Z"/>
<path fill-rule="evenodd" clip-rule="evenodd" d="M132.986 225.975C138.27 225.96 143.314 226.184 148.547 226.708C160.681 227.926 167.184 238.217 167.996 249.957C169.398 270.207 171.497 289.917 174.345 310.337L174.34 310.335C174.765 313.374 174.129 316.399 172.125 318.005C170.16 319.577 167.015 318.84 164.911 317.089C141.463 297.58 125.072 270.409 118.569 240.517C118.386 239.675 118.286 238.827 118.267 237.989L117.208 225.88H132.986V225.975ZM143.083 245.172C142.591 245.129 141.62 245.36 141.096 245.614C143.017 261.714 146.104 277.035 150.717 292.44C151.168 293.945 152.047 295.377 153.492 295.76L153.494 295.757C148.774 279.235 146.021 263.326 144.05 246.836C143.978 246.232 143.542 245.21 143.083 245.172Z"/>
<path d="M166.785 224.418L116.066 222.283C115.499 220.19 115.368 218.303 115.485 216.367L166.664 213.951L166.785 224.418Z"/>
</mask>
<path fill-rule="evenodd" clip-rule="evenodd" d="M335.263 98.9559C370.553 124.685 391.072 164.252 392.543 207.386L369.534 207.101L369.296 200.187L368.413 186.233V186.228C367.569 186.083 366.379 185.99 365.715 186.014L366.648 207.129L342.56 206.887C342.355 176.765 341.172 147.18 337.531 117.457L335.263 98.9559ZM356.979 129.608C359.932 142.351 362.022 154.779 363.658 167.71C364.565 167.822 365.356 167.881 366.367 167.876C364.441 155.453 362.301 144.194 359.658 132.35C359.37 131.061 358.395 129.977 356.979 129.608Z" fill="#3275CD"/>
<path fill-rule="evenodd" clip-rule="evenodd" d="M171.386 125.404C168.488 152.52 167.006 179.129 166.724 206.687L141.961 207.07L142.944 186.245H142.946C142.409 185.627 141.046 185.708 140.091 186.167L138.972 207.094L115.396 207.232C116.767 163.601 138.578 122.59 175.118 97.1915L171.386 125.404ZM152.233 128.741C150.395 129.747 149.846 130.95 149.366 132.767C146.262 144.504 143.716 156.073 142.243 167.915C143.699 167.827 144.571 167.815 144.789 167.42C144.963 167.104 145.086 166.307 145.172 165.696C146.965 153.036 149.392 140.773 152.233 128.741Z" fill="#3275CD"/>
<path d="M283.714 75.7266C291.702 77.4295 298.723 79.7624 305.986 82.6046L316.295 132.546C316.637 134.204 316.772 135.617 317.311 137.294L313.653 86.1108C320.465 89.2835 326.251 92.7536 332.151 96.6755C336.616 128.586 338.972 160.29 339.364 192.384L339.573 206.767L317.024 206.657L307.599 152.801L307.855 161.953C307.898 163.456 307.962 164.854 308.128 166.369L308.694 206.616L286.006 206.594L283.714 75.7266Z" fill="#3275CD"/>
<path fill-rule="evenodd" clip-rule="evenodd" d="M209.968 79.8223C214.906 78.3001 220.054 79.5673 223.077 83.6818C225.818 87.7917 225.979 92.5466 225.832 97.3509L225.4 111.485L224.96 142.104C224.834 150.876 223.229 159.058 216.479 165.239L224.673 164.923L224.592 206.542L224.595 206.544L198.361 206.59L198.504 180.292C197.68 180.159 196.589 180.173 195.387 180.297L195.143 206.606L169.788 206.697C169.821 185.334 170.925 164.35 172.398 142.914L178.013 95.0291C188.276 88.5956 198.596 83.3304 209.968 79.8223ZM201.289 102.94C200.273 103.094 199.441 103.297 198.603 103.63L196.066 157.148C196.943 157.507 198.751 156.889 198.789 155.971L198.786 155.973L200 126.317L201.289 102.94Z" fill="#3275CD"/>
<path d="M229.431 74.6611C246.667 71.6976 263.965 71.7404 280.9 75.17L281.523 95.3715H281.556V96.4316L281.581 97.2673C281.573 97.2663 281.564 97.2652 281.556 97.2642L282.389 153.268L275.826 153.201C264.788 153.201 271.92 153.201 255.84 153.201V95.4364C255.231 95.423 254.62 95.412 254.009 95.4028L253.97 152.824L253.991 155.695L282.693 156.194L283.021 179.5L254.125 179.359L254.127 179.364C253.835 180.139 253.807 181.519 254.075 182.275L283.021 182.463L283.066 206.569L227.54 206.519L227.718 181.179L228.188 124.247L228.661 102.255L229.062 85.8966L229.431 74.6611Z" fill="#3275CD"/>
<path d="M282.267 237.217H282.428L281.21 297.884H275.826C264.788 297.884 271.92 297.884 255.84 297.884V239.903L253.526 239.94L253.602 301.228L281.21 299.934L280.691 322.351V322.348L254.061 324.039C253.776 324.757 253.735 325.647 253.856 326.91L280.738 325.326L280.021 347.209C262.979 350.349 246.327 350.549 229.648 347.441C228.012 303.179 227.186 259.816 226.913 215.604H282.396L282.267 237.217Z" fill="#36A64E"/>
<path fill-rule="evenodd" clip-rule="evenodd" d="M321.367 215.373C327.453 215.332 332.785 218.753 335.985 223.45C338.977 228.475 339.271 233.777 338.925 239.463C338.207 251.241 337.697 262.772 336.222 274.471C335.407 280.923 331.695 285.871 327.738 290.808L334.968 289.234L329.457 327.095V327.093C322.657 331.633 315.841 335.201 308.312 338.504L310.741 307.395C310.152 306.817 308.715 306.803 307.989 307.184L305.596 339.66C298.055 342.572 290.901 344.776 282.807 346.567C284.263 302.945 285.379 259.594 285.529 215.611L321.367 215.373ZM313.912 239.021C313.009 238.455 311.489 238.367 310.876 239.05L309.142 284.903C311.373 284.945 312.133 283.276 312.225 280.95V280.948L313.912 239.021Z" fill="#36A64E"/>
<path fill-rule="evenodd" clip-rule="evenodd" d="M205.137 215.582C212.158 215.673 217.915 219.895 221.2 225.786C223.43 230.093 224.21 234.538 224.288 239.438L225.259 299.088L225.261 299.083C225.354 304.722 223.267 309.924 219.778 313.855C216.978 317.011 213.068 317.964 208.964 318.233C205.653 317.829 202.769 317.239 199.225 316.312L201.073 339.054C193.221 336.093 186.549 332.226 179.635 327.971C173.362 290.571 170.139 253.213 169.581 215.123L205.137 215.582ZM195.104 238.484L197.385 295.061L200.534 294.935L198.254 238.358L195.104 238.484Z" fill="#36A64E"/>
<path fill-rule="evenodd" clip-rule="evenodd" d="M392.553 214.434C391.724 242.356 382.839 268.968 366.693 291.656C362.194 297.915 357.408 303.39 351.943 308.925L357.48 292.219C355.406 292.407 355.142 293.513 354.753 294.887C353.183 300.438 351.497 305.561 349.511 311.355L348.471 312.342C343.255 317.244 337.938 321.516 331.83 325.559L337.464 290.414C340.554 265.382 342.354 240.617 343.067 215.173L392.553 214.434ZM368.434 235.461C367.645 235.183 366.541 235.143 365.586 235.364C364.37 249.332 362.287 262.663 359.534 276.357C361.323 276.231 362.185 274.963 362.598 273.049C365.332 260.396 366.985 248.33 368.434 235.461Z" fill="#36A64E"/>
<path fill-rule="evenodd" clip-rule="evenodd" d="M132.986 225.975C138.27 225.96 143.314 226.184 148.547 226.708C160.681 227.926 167.184 238.217 167.996 249.957C169.398 270.207 171.497 289.917 174.345 310.337L174.34 310.335C174.765 313.374 174.129 316.399 172.125 318.005C170.16 319.577 167.015 318.84 164.911 317.089C141.463 297.58 125.072 270.409 118.569 240.517C118.386 239.675 118.286 238.827 118.267 237.989L117.208 225.88H132.986V225.975ZM143.083 245.172C142.591 245.129 141.62 245.36 141.096 245.614C143.017 261.714 146.104 277.035 150.717 292.44C151.168 293.945 152.047 295.377 153.492 295.76L153.494 295.757C148.774 279.235 146.021 263.326 144.05 246.836C143.978 246.232 143.542 245.21 143.083 245.172Z" fill="#36A64E"/>
<path d="M166.785 224.418L116.066 222.283C115.499 220.19 115.368 218.303 115.485 216.367L166.664 213.951L166.785 224.418Z" fill="#36A64E"/>
<path fill-rule="evenodd" clip-rule="evenodd" d="M335.263 98.9559C370.553 124.685 391.072 164.252 392.543 207.386L369.534 207.101L369.296 200.187L368.413 186.233V186.228C367.569 186.083 366.379 185.99 365.715 186.014L366.648 207.129L342.56 206.887C342.355 176.765 341.172 147.18 337.531 117.457L335.263 98.9559ZM356.979 129.608C359.932 142.351 362.022 154.779 363.658 167.71C364.565 167.822 365.356 167.881 366.367 167.876C364.441 155.453 362.301 144.194 359.658 132.35C359.37 131.061 358.395 129.977 356.979 129.608Z" stroke="#232323" stroke-width="4.6" mask="url(#path-2-inside-1_84_13061)"/>
<path fill-rule="evenodd" clip-rule="evenodd" d="M171.386 125.404C168.488 152.52 167.006 179.129 166.724 206.687L141.961 207.07L142.944 186.245H142.946C142.409 185.627 141.046 185.708 140.091 186.167L138.972 207.094L115.396 207.232C116.767 163.601 138.578 122.59 175.118 97.1915L171.386 125.404ZM152.233 128.741C150.395 129.747 149.846 130.95 149.366 132.767C146.262 144.504 143.716 156.073 142.243 167.915C143.699 167.827 144.571 167.815 144.789 167.42C144.963 167.104 145.086 166.307 145.172 165.696C146.965 153.036 149.392 140.773 152.233 128.741Z" stroke="#232323" stroke-width="4.6" mask="url(#path-2-inside-1_84_13061)"/>
<path d="M283.714 75.7266C291.702 77.4295 298.723 79.7624 305.986 82.6046L316.295 132.546C316.637 134.204 316.772 135.617 317.311 137.294L313.653 86.1108C320.465 89.2835 326.251 92.7536 332.151 96.6755C336.616 128.586 338.972 160.29 339.364 192.384L339.573 206.767L317.024 206.657L307.599 152.801L307.855 161.953C307.898 163.456 307.962 164.854 308.128 166.369L308.694 206.616L286.006 206.594L283.714 75.7266Z" stroke="#232323" stroke-width="4.6" mask="url(#path-2-inside-1_84_13061)"/>
<path fill-rule="evenodd" clip-rule="evenodd" d="M209.968 79.8223C214.906 78.3001 220.054 79.5673 223.077 83.6818C225.818 87.7917 225.979 92.5466 225.832 97.3509L225.4 111.485L224.96 142.104C224.834 150.876 223.229 159.058 216.479 165.239L224.673 164.923L224.592 206.542L224.595 206.544L198.361 206.59L198.504 180.292C197.68 180.159 196.589 180.173 195.387 180.297L195.143 206.606L169.788 206.697C169.821 185.334 170.925 164.35 172.398 142.914L178.013 95.0291C188.276 88.5956 198.596 83.3304 209.968 79.8223ZM201.289 102.94C200.273 103.094 199.441 103.297 198.603 103.63L196.066 157.148C196.943 157.507 198.751 156.889 198.789 155.971L198.786 155.973L200 126.317L201.289 102.94Z" stroke="#232323" stroke-width="4.6" mask="url(#path-2-inside-1_84_13061)"/>
<path d="M229.431 74.6611C246.667 71.6976 263.965 71.7404 280.9 75.17L281.523 95.3715H281.556V96.4316L281.581 97.2673C281.573 97.2663 281.564 97.2652 281.556 97.2642L282.389 153.268L275.826 153.201C264.788 153.201 271.92 153.201 255.84 153.201V95.4364C255.231 95.423 254.62 95.412 254.009 95.4028L253.97 152.824L253.991 155.695L282.693 156.194L283.021 179.5L254.125 179.359L254.127 179.364C253.835 180.139 253.807 181.519 254.075 182.275L283.021 182.463L283.066 206.569L227.54 206.519L227.718 181.179L228.188 124.247L228.661 102.255L229.062 85.8966L229.431 74.6611Z" stroke="#232323" stroke-width="4.6" mask="url(#path-2-inside-1_84_13061)"/>
<path d="M282.267 237.217H282.428L281.21 297.884H275.826C264.788 297.884 271.92 297.884 255.84 297.884V239.903L253.526 239.94L253.602 301.228L281.21 299.934L280.691 322.351V322.348L254.061 324.039C253.776 324.757 253.735 325.647 253.856 326.91L280.738 325.326L280.021 347.209C262.979 350.349 246.327 350.549 229.648 347.441C228.012 303.179 227.186 259.816 226.913 215.604H282.396L282.267 237.217Z" stroke="#232323" stroke-width="4.6" mask="url(#path-2-inside-1_84_13061)"/>
<path fill-rule="evenodd" clip-rule="evenodd" d="M321.367 215.373C327.453 215.332 332.785 218.753 335.985 223.45C338.977 228.475 339.271 233.777 338.925 239.463C338.207 251.241 337.697 262.772 336.222 274.471C335.407 280.923 331.695 285.871 327.738 290.808L334.968 289.234L329.457 327.095V327.093C322.657 331.633 315.841 335.201 308.312 338.504L310.741 307.395C310.152 306.817 308.715 306.803 307.989 307.184L305.596 339.66C298.055 342.572 290.901 344.776 282.807 346.567C284.263 302.945 285.379 259.594 285.529 215.611L321.367 215.373ZM313.912 239.021C313.009 238.455 311.489 238.367 310.876 239.05L309.142 284.903C311.373 284.945 312.133 283.276 312.225 280.95V280.948L313.912 239.021Z" stroke="#232323" stroke-width="4.6" mask="url(#path-2-inside-1_84_13061)"/>
<path fill-rule="evenodd" clip-rule="evenodd" d="M205.137 215.582C212.158 215.673 217.915 219.895 221.2 225.786C223.43 230.093 224.21 234.538 224.288 239.438L225.259 299.088L225.261 299.083C225.354 304.722 223.267 309.924 219.778 313.855C216.978 317.011 213.068 317.964 208.964 318.233C205.653 317.829 202.769 317.239 199.225 316.312L201.073 339.054C193.221 336.093 186.549 332.226 179.635 327.971C173.362 290.571 170.139 253.213 169.581 215.123L205.137 215.582ZM195.104 238.484L197.385 295.061L200.534 294.935L198.254 238.358L195.104 238.484Z" stroke="#232323" stroke-width="4.6" mask="url(#path-2-inside-1_84_13061)"/>
<path fill-rule="evenodd" clip-rule="evenodd" d="M392.553 214.434C391.724 242.356 382.839 268.968 366.693 291.656C362.194 297.915 357.408 303.39 351.943 308.925L357.48 292.219C355.406 292.407 355.142 293.513 354.753 294.887C353.183 300.438 351.497 305.561 349.511 311.355L348.471 312.342C343.255 317.244 337.938 321.516 331.83 325.559L337.464 290.414C340.554 265.382 342.354 240.617 343.067 215.173L392.553 214.434ZM368.434 235.461C367.645 235.183 366.541 235.143 365.586 235.364C364.37 249.332 362.287 262.663 359.534 276.357C361.323 276.231 362.185 274.963 362.598 273.049C365.332 260.396 366.985 248.33 368.434 235.461Z" stroke="#232323" stroke-width="4.6" mask="url(#path-2-inside-1_84_13061)"/>
<path fill-rule="evenodd" clip-rule="evenodd" d="M132.986 225.975C138.27 225.96 143.314 226.184 148.547 226.708C160.681 227.926 167.184 238.217 167.996 249.957C169.398 270.207 171.497 289.917 174.345 310.337L174.34 310.335C174.765 313.374 174.129 316.399 172.125 318.005C170.16 319.577 167.015 318.84 164.911 317.089C141.463 297.58 125.072 270.409 118.569 240.517C118.386 239.675 118.286 238.827 118.267 237.989L117.208 225.88H132.986V225.975ZM143.083 245.172C142.591 245.129 141.62 245.36 141.096 245.614C143.017 261.714 146.104 277.035 150.717 292.44C151.168 293.945 152.047 295.377 153.492 295.76L153.494 295.757C148.774 279.235 146.021 263.326 144.05 246.836C143.978 246.232 143.542 245.21 143.083 245.172Z" stroke="#232323" stroke-width="4.6" mask="url(#path-2-inside-1_84_13061)"/>
<path d="M166.785 224.418L116.066 222.283C115.499 220.19 115.368 218.303 115.485 216.367L166.664 213.951L166.785 224.418Z" stroke="#232323" stroke-width="4.6" mask="url(#path-2-inside-1_84_13061)"/>
</svg>
