<svg width="182" height="63" viewBox="0 0 182 63" fill="none" xmlns="http://www.w3.org/2000/svg">
<path d="M14.5008 7.948C16.5924 7.948 18.5054 8.29025 20.2399 8.97477C21.9999 9.65929 23.5303 10.6227 24.8312 11.865C26.1576 13.1072 27.1779 14.565 27.8921 16.2383C28.6318 17.8862 29.0016 19.6862 29.0016 21.6383C29.0016 23.6158 28.6318 25.4539 27.8921 27.1525C27.1779 28.8257 26.1576 30.2962 24.8312 31.5638C23.5303 32.8061 21.9999 33.7822 20.2399 34.492C18.5054 35.1765 16.5924 35.5188 14.5008 35.5188C12.4347 35.5188 10.5217 35.1765 8.76171 34.492C7.00171 33.7822 5.45853 32.8061 4.13216 31.5638C2.83129 30.2962 1.81101 28.8257 1.0713 27.1525C0.3571 25.4539 0 23.6158 0 21.6383C0 19.6862 0.3571 17.8735 1.0713 16.2002C1.81101 14.527 2.83129 13.0819 4.13216 11.865C5.45853 10.6227 7.00171 9.65929 8.76171 8.97477C10.5217 8.29025 12.4347 7.948 14.5008 7.948ZM14.5773 13.7664C13.5826 13.7664 12.626 13.9692 11.7078 14.3748C10.815 14.7551 10.0243 15.3129 9.33562 16.0481C8.67243 16.758 8.14954 17.5946 7.76693 18.558C7.38432 19.496 7.19302 20.5355 7.19302 21.6764C7.19302 22.7919 7.38432 23.844 7.76693 24.8327C8.14954 25.7961 8.68519 26.6454 9.37388 27.3807C10.0626 28.0905 10.8533 28.6483 11.746 29.0539C12.6388 29.4596 13.5826 29.6624 14.5773 29.6624C15.5721 29.6624 16.5031 29.4596 17.3704 29.0539C18.2631 28.6483 19.0411 28.0905 19.7043 27.3807C20.3675 26.6454 20.8776 25.7961 21.2347 24.8327C21.6173 23.844 21.8086 22.7919 21.8086 21.6764C21.8086 20.5355 21.6173 19.496 21.2347 18.558C20.8776 17.5946 20.3675 16.758 19.7043 16.0481C19.0411 15.3129 18.2631 14.7551 17.3704 14.3748C16.5031 13.9692 15.5721 13.7664 14.5773 13.7664ZM15.6869 0L21.3112 2.09158L15.7634 6.46488L11.0956 6.08459L15.6869 0Z" fill="#232323"/>
<path d="M54.9696 8.36631C58.3876 8.36631 61.0403 9.19027 62.9278 10.8382C64.8154 12.4607 65.7591 14.7551 65.7591 17.7214C65.7591 20.8397 64.8154 23.2736 62.9278 25.0229C61.0403 26.7468 58.3876 27.6088 54.9696 27.6088H47.1262L50.187 24.5665V35.0244H43.1853V8.36631H54.9696ZM54.6253 22.1327C56.0537 22.1327 57.1505 21.7778 57.9157 21.0679C58.7064 20.358 59.1018 19.3059 59.1018 17.9115C59.1018 16.5678 58.7064 15.5537 57.9157 14.8692C57.1505 14.1847 56.0537 13.8424 54.6253 13.8424H47.1262L50.187 10.8001V25.175L47.1262 22.1327H54.6253Z" fill="#232323"/>
<path d="M79.9036 8.36631H101.062V13.8424H86.9054V18.9383H99.6844V24.3764H86.9054V29.5483H101.444V35.0244H79.9036V8.36631Z" fill="#232323"/>
<path d="M128.487 8.36631C132.058 8.36631 134.813 9.19027 136.752 10.8382C138.69 12.4607 139.659 14.7551 139.659 17.7214C139.659 20.8397 138.69 23.2736 136.752 25.0229C134.813 26.7468 132.058 27.6088 128.487 27.6088H123.437V35.0244H116.435V8.36631H128.487ZM128.487 22.1327C129.941 22.1327 131.051 21.7778 131.816 21.0679C132.607 20.358 133.002 19.3059 133.002 17.9115C133.002 16.5678 132.607 15.5537 131.816 14.8692C131.051 14.1847 129.941 13.8424 128.487 13.8424H123.437V22.1327H128.487ZM127.263 25.0609H134.073L140.463 35.0244H132.543L127.263 25.0609Z" fill="#232323"/>
<path d="M163.558 8.36631H170.751L182 35.0244H174.539L166.964 15.3256L159.235 35.0244H152.042L163.558 8.36631ZM158.929 24.9848H174.577V30.2328H158.929V24.9848Z" fill="#232323"/>
<path d="M12.8073 53.429C12.3516 52.8562 11.8088 52.4033 11.1789 52.0703C10.549 51.7373 9.92581 51.5708 9.30931 51.5708C8.77323 51.5708 8.27065 51.6773 7.80158 51.8905C7.33251 52.0903 6.92374 52.3767 6.57529 52.7497C6.22684 53.1093 5.95879 53.5422 5.77117 54.0484C5.58354 54.5413 5.48972 55.0808 5.48972 55.6669C5.48972 56.253 5.58354 56.7992 5.77117 57.3054C5.95879 57.7982 6.22684 58.2312 6.57529 58.6041C6.92374 58.9771 7.33251 59.2702 7.80158 59.4833C8.27065 59.6831 8.77323 59.783 9.30931 59.783C9.899 59.783 10.5021 59.6365 11.1186 59.3434C11.7485 59.0371 12.3114 58.6308 12.8073 58.1246L14.9583 60.3825C14.449 60.9153 13.8727 61.3815 13.2294 61.7812C12.5861 62.1675 11.9093 62.4672 11.199 62.6803C10.5021 62.8934 9.80519 63 9.10828 63C8.04952 63 7.07117 62.8202 6.17323 62.4605C5.27529 62.0875 4.49127 61.5747 3.82117 60.922C3.16446 60.2559 2.64849 59.4833 2.27323 58.6041C1.89797 57.7117 1.71034 56.7459 1.71034 55.7069C1.71034 54.6812 1.89797 53.7354 2.27323 52.8695C2.64849 51.9904 3.17787 51.2244 3.86137 50.5717C4.54488 49.919 5.3423 49.4128 6.25364 49.0531C7.17838 48.6935 8.17684 48.5137 9.249 48.5137C9.94591 48.5137 10.6428 48.6136 11.3397 48.8134C12.0366 48.9999 12.6933 49.2729 13.3098 49.6326C13.9263 49.9923 14.4691 50.4185 14.9382 50.9114L12.8073 53.429Z" fill="#232323"/>
<path d="M24.8221 48.5137C25.9211 48.5137 26.9263 48.6935 27.8376 49.0531C28.7624 49.4128 29.5665 49.919 30.25 50.5717C30.9469 51.2244 31.483 51.9904 31.8582 52.8695C32.2469 53.7354 32.4412 54.6812 32.4412 55.7069C32.4412 56.7459 32.2469 57.7117 31.8582 58.6041C31.483 59.4833 30.9469 60.2559 30.25 60.922C29.5665 61.5747 28.7624 62.0875 27.8376 62.4605C26.9263 62.8202 25.9211 63 24.8221 63C23.7366 63 22.7314 62.8202 21.8067 62.4605C20.8819 62.0875 20.0711 61.5747 19.3742 60.922C18.6907 60.2559 18.1546 59.4833 17.766 58.6041C17.3907 57.7117 17.2031 56.7459 17.2031 55.7069C17.2031 54.6812 17.3907 53.7287 17.766 52.8496C18.1546 51.9704 18.6907 51.2111 19.3742 50.5717C20.0711 49.919 20.8819 49.4128 21.8067 49.0531C22.7314 48.6935 23.7366 48.5137 24.8221 48.5137ZM24.8624 51.5708C24.3397 51.5708 23.8371 51.6773 23.3546 51.8905C22.8855 52.0903 22.4701 52.3833 22.1082 52.7696C21.7598 53.1426 21.485 53.5822 21.284 54.0884C21.083 54.5813 20.9825 55.1274 20.9825 55.7269C20.9825 56.313 21.083 56.8658 21.284 57.3853C21.485 57.8915 21.7665 58.3377 22.1283 58.724C22.4902 59.097 22.9057 59.3901 23.3747 59.6032C23.8438 59.8163 24.3397 59.9229 24.8624 59.9229C25.385 59.9229 25.8742 59.8163 26.3299 59.6032C26.799 59.3901 27.2077 59.097 27.5562 58.724C27.9046 58.3377 28.1727 57.8915 28.3603 57.3853C28.5613 56.8658 28.6618 56.313 28.6618 55.7269C28.6618 55.1274 28.5613 54.5813 28.3603 54.0884C28.1727 53.5822 27.9046 53.1426 27.5562 52.7696C27.2077 52.3833 26.799 52.0903 26.3299 51.8905C25.8742 51.6773 25.385 51.5708 24.8624 51.5708Z" fill="#232323"/>
<path d="M36.0741 48.7334H39.3107L46.6885 58.5242L45.7236 58.8439V48.7334H49.121V62.7402H45.9045L38.5266 52.9894L39.5117 52.6697V62.7402H36.0741V48.7334Z" fill="#232323"/>
<path d="M63.8793 53.429C63.4236 52.8562 62.8809 52.4033 62.251 52.0703C61.6211 51.7373 60.9979 51.5708 60.3814 51.5708C59.8453 51.5708 59.3427 51.6773 58.8736 51.8905C58.4046 52.0903 57.9958 52.3767 57.6474 52.7497C57.2989 53.1093 57.0309 53.5422 56.8432 54.0484C56.6556 54.5413 56.5618 55.0808 56.5618 55.6669C56.5618 56.253 56.6556 56.7992 56.8432 57.3054C57.0309 57.7982 57.2989 58.2312 57.6474 58.6041C57.9958 58.9771 58.4046 59.2702 58.8736 59.4833C59.3427 59.6831 59.8453 59.783 60.3814 59.783C60.9711 59.783 61.5742 59.6365 62.1907 59.3434C62.8205 59.0371 63.3834 58.6308 63.8793 58.1246L66.0303 60.3825C65.5211 60.9153 64.9448 61.3815 64.3015 61.7812C63.6582 62.1675 62.9814 62.4672 62.2711 62.6803C61.5742 62.8934 60.8773 63 60.1803 63C59.1216 63 58.1432 62.8202 57.2453 62.4605C56.3474 62.0875 55.5633 61.5747 54.8932 60.922C54.2365 60.2559 53.7206 59.4833 53.3453 58.6041C52.97 57.7117 52.7824 56.7459 52.7824 55.7069C52.7824 54.6812 52.97 53.7354 53.3453 52.8695C53.7206 51.9904 54.2499 51.2244 54.9334 50.5717C55.6169 49.919 56.4144 49.4128 57.3257 49.0531C58.2504 48.6935 59.2489 48.5137 60.3211 48.5137C61.018 48.5137 61.7149 48.6136 62.4118 48.8134C63.1087 48.9999 63.7654 49.2729 64.3819 49.6326C64.9984 49.9923 65.5412 50.4185 66.0102 50.9114L63.8793 53.429Z" fill="#232323"/>
<path d="M69.4154 48.7334H80.5324V51.6107H73.0942V54.2882H79.8087V57.1455H73.0942V59.863H80.7334V62.7402H69.4154V48.7334Z" fill="#232323"/>
<path d="M90.9821 48.7334C92.7779 48.7334 94.1717 49.1664 95.1635 50.0322C96.1553 50.8847 96.6511 52.0903 96.6511 53.6488C96.6511 55.2873 96.1553 56.5661 95.1635 57.4852C94.1717 58.391 92.7779 58.8439 90.9821 58.8439H86.8609L88.4692 57.2454V62.7402H84.7903V48.7334H90.9821ZM90.8011 55.9666C91.5516 55.9666 92.1279 55.7801 92.53 55.4072C92.9455 55.0342 93.1532 54.4814 93.1532 53.7487C93.1532 53.0427 92.9455 52.5099 92.53 52.1502C92.1279 51.7906 91.5516 51.6107 90.8011 51.6107H86.8609L88.4692 50.0122V57.5651L86.8609 55.9666H90.8011Z" fill="#232323"/>
<path d="M99.0371 48.7334H111.119V51.6907H106.897V62.7402H103.219V51.6907H99.0371V48.7334Z" fill="#232323"/>
<path d="M121.649 48.7334H125.328V54.468H131.017V48.7334H134.696V62.7402H131.017V57.3453H125.328V62.7402H121.649V48.7334Z" fill="#232323"/>
<path d="M143.826 48.7334H147.605L153.515 62.7402H149.595L145.615 52.39L141.554 62.7402H137.775L143.826 48.7334ZM141.393 57.4652H149.615V60.2226H141.393V57.4652Z" fill="#232323"/>
<path d="M156.6 48.7334H160.279V59.6631H166.249V62.7402H156.6V48.7334Z" fill="#232323"/>
<path d="M169.737 48.7334H173.416V59.6631H179.386V62.7402H169.737V48.7334Z" fill="#232323"/>
</svg>
