<svg width="1412" height="1257" viewBox="0 0 1412 1257" fill="none" xmlns="http://www.w3.org/2000/svg">
<path d="M313.242 156.617C313.242 243.129 243.111 313.235 156.621 313.235C70.1315 313.235 0 243.105 0 156.617C0 70.1302 70.1315 0 156.621 0C243.111 0 313.242 70.1054 313.242 156.617Z" fill="#2B2A2D"/>
<path d="M705.007 313.235C791.507 313.235 861.629 243.115 861.629 156.617C861.629 70.12 791.507 0 705.007 0C618.508 0 548.385 70.12 548.385 156.617C548.385 243.115 618.508 313.235 705.007 313.235Z" fill="#2B2A2D"/>
<path d="M1411.18 156.617C1411.18 243.129 1341.05 313.235 1254.56 313.235C1168.07 313.235 1097.94 243.105 1097.94 156.617C1097.94 70.1302 1168.07 0 1254.56 0C1341.07 0 1411.18 70.1054 1411.18 156.617Z" fill="#2B2A2D"/>
<path d="M313.242 628.03C313.242 714.517 243.111 784.647 156.621 784.647C70.1315 784.647 0 714.517 0 628.03C0 541.518 70.1315 471.412 156.621 471.412C243.111 471.412 313.242 541.518 313.242 628.03Z" fill="#2B2A2D"/>
<path d="M705.007 784.647C791.507 784.647 861.629 714.527 861.629 628.03C861.629 541.532 791.507 471.412 705.007 471.412C618.508 471.412 548.385 541.532 548.385 628.03C548.385 714.527 618.508 784.647 705.007 784.647Z" fill="#2B2A2D"/>
<path d="M1411.18 628.03C1411.18 714.517 1341.05 784.647 1254.56 784.647C1168.07 784.647 1097.94 714.517 1097.94 628.03C1097.94 541.518 1168.07 471.412 1254.56 471.412C1341.07 471.412 1411.18 541.518 1411.18 628.03Z" fill="#2B2A2D"/>
<path d="M313.242 1099.44C313.242 1185.95 243.111 1256.06 156.621 1256.06C70.1315 1256.06 0 1185.93 0 1099.44C0 1012.95 70.1315 942.822 156.621 942.822C243.111 942.822 313.242 1012.95 313.242 1099.44Z" fill="#2B2A2D"/>
<path d="M861.629 1099.44C861.629 1185.95 791.497 1256.06 705.007 1256.06C618.518 1256.06 548.385 1185.93 548.385 1099.44C548.385 1012.95 618.518 942.822 705.007 942.822C791.497 942.822 861.629 1012.95 861.629 1099.44Z" fill="#2B2A2D"/>
<path d="M1411.18 1099.44C1411.18 1185.95 1341.05 1256.06 1254.56 1256.06C1168.07 1256.06 1097.94 1185.93 1097.94 1099.44C1097.94 1012.95 1168.07 942.822 1254.56 942.822C1341.07 942.822 1411.18 1012.95 1411.18 1099.44Z" fill="#2B2A2D"/>
</svg>
