<svg width="2143" height="2152" viewBox="0 0 2143 2152" fill="none" xmlns="http://www.w3.org/2000/svg">
<path d="M1077.29 39.9791C1081.65 40.1729 1073.23 40.3674 1077.36 39.9476C1079.43 39.7538 1083.98 43.3057 1078.29 39.9151C1079.52 40.6255 1080.85 41.2394 1082.11 41.9175C1084.95 43.4998 1085.66 44.8555 1083.24 42.5305C1085.95 45.1462 1088.63 47.6002 1091.15 50.4419C1095.02 54.769 1089.89 48.2463 1092.54 52.1537C1093.79 54.0266 1095.15 55.8351 1096.38 57.7403C1099.12 61.9706 1101.35 66.4264 1103.9 70.7535C1106.65 75.3712 1101.96 66.4915 1104.74 72.4978C1105.55 74.2738 1106.39 75.9524 1107.26 77.6961C1108.55 80.2795 1109.91 82.8638 1111.14 85.4794C1112.46 88.2242 1113.72 91.001 1114.98 93.7781C1115.5 94.9406 1115.98 96.1032 1116.5 97.2657C1118.69 102.174 1115.72 95.2311 1117.37 99.3322C1119.85 105.5 1122.31 111.668 1124.63 117.901C1148.89 183.486 1164.26 252.461 1178.34 320.791C1194.93 401.359 1208.46 482.509 1220.64 563.853C1223.61 583.648 1226.48 603.443 1229.26 623.238C1230.55 632.409 1231.84 641.612 1233.1 650.815C1233.68 655.142 1234.3 659.47 1234.88 663.797C1235.17 665.928 1235.46 668.058 1235.75 670.222C1235.14 665.669 1236.07 672.515 1236.24 673.71C1240.5 705.582 1244.5 737.454 1248.44 769.359C1252.64 803.265 1256.39 837.204 1260.32 871.111C1260.39 871.595 1260.42 872.048 1260.49 872.532C1261.39 881.057 1266.4 891.488 1276.12 893.038C1332.72 902.112 1389.2 911.928 1445.65 921.939C1560.96 942.412 1676.08 964.145 1790.53 989.074C1845.33 1000.99 1900.03 1013.62 1954.22 1028.15C1976.79 1034.22 1999.29 1040.61 2021.54 1047.72C2030.55 1050.59 2039.53 1053.59 2048.44 1056.79C2052.64 1058.31 2056.84 1059.86 2060.97 1061.47C2062.75 1062.15 2064.52 1062.86 2066.3 1063.57C2067.33 1063.99 2068.34 1064.44 2069.37 1064.83C2073.31 1066.35 2064.36 1062.6 2068.14 1064.31C2074.5 1067.22 2080.9 1069.96 2087.03 1073.32C2089.36 1074.58 2091.65 1075.91 2093.88 1077.3C2095.07 1078.04 2096.24 1078.88 2097.46 1079.65C2101.82 1082.43 2096.56 1078.81 2096.69 1078.97C2097.72 1080.3 2099.53 1081.69 2100.85 1082.78C2104.63 1085.88 2097.91 1077.13 2100.89 1083.01C2102.63 1086.5 2098.69 1076.84 2099.69 1080.17C2100.37 1082.4 2099.66 1084.92 2099.34 1076.52C2099.53 1081.17 2101.4 1069.48 2099.43 1075.1C2102.14 1067.29 2101.63 1070.35 2100.43 1072.32C2098.17 1076.1 2103.6 1069.45 2102.08 1070.39C2100.66 1071.26 2099.01 1073.36 2097.82 1074.62C2094.46 1078.13 2101.37 1072.45 2099.24 1073.55C2098.04 1074.16 2096.95 1075.16 2095.85 1075.91C2093.46 1077.49 2090.97 1078.91 2088.49 1080.3C2082.38 1083.66 2076.02 1086.47 2069.63 1089.28C2074.34 1087.18 2071.76 1088.37 2068.79 1089.57C2067.01 1090.28 2065.24 1090.96 2063.46 1091.67C2059.1 1093.34 2054.71 1094.96 2050.32 1096.51C2006.17 1112.11 1960.51 1123.63 1915.05 1134.65C1857.47 1148.56 1799.54 1160.96 1741.54 1172.91C1629.62 1195.97 1517.21 1216.64 1405.35 1239.92C1372.25 1246.8 1338.6 1253.19 1306.28 1263.33C1296.81 1266.3 1285.9 1269.4 1278.73 1276.63C1272.79 1282.64 1270.92 1291.13 1269.04 1299.08C1250.35 1377.64 1237.82 1457.92 1222.41 1537.17C1199.42 1655.58 1175.72 1773.99 1147.08 1891.21C1135.29 1939.43 1122.86 1987.64 1107.16 2034.79C1104.1 2044.05 1100.87 2053.26 1097.41 2062.39C1095.99 2066.11 1094.54 2069.79 1093.05 2073.5C1090.53 2079.77 1094.02 2071.5 1092.41 2075.09C1091.53 2077.02 1090.73 2078.96 1089.82 2080.9C1087.08 2086.91 1084.17 2092.88 1080.81 2098.56C1079.39 2100.98 1077.84 2103.28 1076.32 2105.6C1075.03 2107.6 1071.93 2109.54 1077.26 2104.54C1076.39 2105.38 1075.74 2106.51 1074.87 2107.35C1073.03 2109.15 1067.12 2113.77 1074.52 2108.28C1073.9 2108.73 1073.29 2109.15 1072.61 2109.51C1068.96 2111.48 1078.39 2107.57 1075.1 2108.54C1070.54 2109.86 1081.98 2108.57 1076.74 2108.28C1084.79 2108.73 1082.4 2109.28 1080.1 2108.54C1081.49 2108.99 1086.46 2111.64 1082.98 2109.54C1080.2 2107.86 1087.08 2114.22 1085.37 2111.38C1085.04 2110.83 1084.17 2110.22 1083.72 2109.77C1079.17 2105.25 1086.59 2114.77 1082.82 2108.64C1080.04 2104.12 1077.46 2099.56 1075.19 2094.75C1074.52 2093.3 1073.87 2091.81 1073.19 2090.33C1070.71 2084.9 1073.48 2091.3 1072.93 2089.81C1071.61 2086.26 1070.12 2082.77 1068.8 2079.22C1065.73 2071.02 1062.92 2062.75 1060.28 2054.42C1053.85 2034.3 1048.2 2013.96 1042.87 1993.55C1013.16 1880.01 991.171 1764.4 969.116 1649.19C949.482 1546.63 931.657 1443.65 910.538 1341.38C907.632 1327.3 904.661 1313.19 901.141 1299.21C899.042 1290.84 897.007 1281.25 892.551 1273.79C881.895 1255.97 850.733 1253.48 832.553 1249.7C734.999 1229.39 636.25 1214.47 538.146 1196.97C420.41 1175.98 302.253 1154.76 186.39 1124.76C164.108 1118.98 141.924 1112.82 119.997 1105.81C110.536 1102.77 101.139 1099.58 91.8388 1096.09C87.8668 1094.6 83.9272 1093.02 79.9876 1091.47C73.5938 1088.95 84.0564 1093.34 78.7283 1090.92C76.7584 1090.05 74.7887 1089.18 72.8511 1088.27C66.6188 1085.4 60.4833 1082.27 54.6708 1078.65C52.4749 1077.3 50.4727 1075.58 48.2446 1074.32C46.1456 1073.13 53.3467 1079.01 49.6654 1075.36C48.6966 1074.39 47.6311 1073.48 46.63 1072.55C45.9196 1071.9 45.2737 1070.68 44.4664 1070.19C42.3997 1068.96 48.6321 1076.23 46.1779 1072.32C42.6581 1066.64 47.3405 1077.52 46.1457 1072.77C45.0477 1068.38 46.63 1079.49 46.5331 1076.33C46.4685 1073.78 47.6956 1071.39 45.855 1080.04C47.1143 1074.07 42.6257 1085.66 45.2414 1081.04C48.1476 1075.87 40.3976 1085.17 44.9508 1081.33C45.3383 1081.01 49.5363 1076.62 49.8592 1076.88C50.3758 1077.33 43.3685 1081.33 48.3414 1078.17C49.3425 1077.52 50.3113 1076.84 51.3124 1076.23C53.9926 1074.55 56.7374 1073 59.5145 1071.55C62.1624 1070.16 64.8427 1068.87 67.5229 1067.61C68.9761 1066.93 70.4614 1066.32 71.9146 1065.64C76.6938 1063.41 66.4573 1067.77 72.9157 1065.22C80.7304 1062.12 88.5773 1059.21 96.5534 1056.5C139.147 1042.1 183.161 1031.83 227.013 1022.21C342.683 996.889 459.806 977.868 576.865 960.172C630.663 952.034 684.558 944.349 738.454 936.987C743.847 936.244 749.239 935.502 754.664 934.791C757.28 934.436 759.896 934.08 762.511 933.725C754.891 934.758 765.773 933.305 767.71 933.014C777.947 931.658 788.184 930.303 798.42 928.946C815.438 926.718 832.488 924.522 849.506 922.358C863.65 920.582 877.826 918.774 891.97 917.095C905.5 915.48 914.445 907.536 915.575 893.489C917.9 865.072 920.581 836.687 923.358 808.303C929.978 740.199 937.405 672.128 945.736 604.218C948.255 583.68 950.871 563.142 953.583 542.604C953.906 540.215 954.229 537.825 954.552 535.403C954.746 533.853 955.585 527.653 954.939 532.368C955.682 526.846 956.425 521.324 957.2 515.802C958.621 505.404 960.106 494.974 961.591 484.576C967.598 442.693 974.056 400.875 981.29 359.186C993.883 286.4 1007.83 213.258 1029.57 142.571C1033.8 128.782 1038.38 115.123 1043.58 101.689C1044.65 98.9124 1045.81 96.1679 1046.91 93.3908C1048.94 88.321 1045.07 97.427 1046.68 93.9072C1047.42 92.2926 1048.1 90.6131 1048.84 88.9985C1051.14 83.9287 1053.56 78.8913 1056.17 73.9829C1058.56 69.4943 1061.12 65.0709 1063.92 60.8406C1065.06 59.0968 1066.31 57.4493 1067.48 55.7378C1069.9 52.1534 1065.57 57.9342 1066.12 57.4821C1066.99 56.7394 1067.67 55.5446 1068.45 54.705C1069.19 53.8977 1075.32 46.6315 1076.26 47.1159C1076.58 47.2774 1070 50.9261 1073.9 49.0208C1074.55 48.6979 1075.13 48.1816 1075.78 47.8264C1076.45 47.4712 1077.26 47.0841 1077.91 46.632C1081.59 44.2424 1075.61 48.5043 1075 47.7939C1075.1 47.9231 1078.36 46.6966 1078.78 46.632C1081.69 46.3091 1071.16 47.0196 1077.46 46.9228C1107.62 46.5675 1107.71 -0.385119 1077.46 0.00238542C1030.21 0.583641 1007.96 62.4875 994.82 98.5576C970.375 165.596 956.199 236.54 943.153 306.517C927.265 391.897 914.833 477.892 903.724 564.015C894.263 637.285 885.964 710.717 878.569 784.214C876.115 808.497 873.79 832.781 871.594 857.096C870.56 868.592 868.655 880.411 868.526 891.971C868.526 892.456 868.429 892.973 868.397 893.457C876.276 885.578 884.155 877.731 892.002 869.851C834.361 876.73 776.784 884.383 719.272 892.262C603.538 908.085 487.933 925.297 372.876 945.609C315.784 955.716 258.788 966.63 202.245 979.515C159.426 989.267 116.381 999.666 75.0793 1014.68C50.9895 1023.43 17.7609 1034.48 4.58578 1058.7C-11.754 1088.76 19.0203 1112.95 42.7549 1124.86C79.8907 1143.49 120.902 1154.83 160.879 1165.39C215.646 1179.85 271.124 1191.74 326.634 1202.88C446.405 1226.94 566.983 1246.93 687.368 1267.59C730.542 1274.99 773.781 1282.25 816.729 1290.91C829.194 1293.43 841.691 1295.91 853.93 1299.37C855.803 1299.88 857.644 1300.47 859.484 1301.05C863.036 1302.14 865.523 1304.05 859.097 1300.66C860.905 1301.63 862.294 1303.44 859.42 1300.4C858.871 1299.82 852.961 1292.33 855.351 1296.4C857.45 1300.01 853.026 1289.32 854.737 1295.07C855.254 1296.82 855.868 1298.5 856.384 1300.24C857.837 1305.08 859.097 1310.02 860.292 1314.96C863.973 1329.95 867.137 1345.06 870.27 1360.17C879.925 1406.84 888.741 1453.69 897.557 1500.55C920.322 1621.64 942.701 1742.87 968.502 1863.35C979.772 1915.92 991.559 1968.49 1005.67 2020.38C1015.1 2055 1024.53 2091.75 1041.8 2123.46C1047.78 2134.41 1055.98 2145.74 1068.41 2149.68C1081.49 2153.81 1094.7 2148.16 1103.97 2138.83C1125.7 2116.94 1136.03 2082.45 1145.75 2054.1C1181.5 1949.95 1203.78 1840.71 1226.42 1733.15C1249.6 1623.09 1270.43 1512.59 1291.65 1402.15C1297.49 1371.73 1302.92 1341.12 1310.02 1310.99C1310.8 1307.67 1311.83 1304.41 1312.61 1301.11C1313.35 1297.91 1314.58 1298.11 1311.38 1303.63C1311.38 1303.63 1307.24 1309.73 1305.63 1309.25C1305.95 1309.35 1308.38 1307.7 1308.8 1307.44C1313.87 1304.4 1302.76 1309.48 1309.6 1307.15C1314.48 1305.47 1319.32 1303.89 1324.26 1302.47C1359.72 1292.3 1396.18 1285.22 1432.28 1277.83C1486.27 1266.78 1540.43 1256.42 1594.51 1245.86C1713.9 1222.61 1833.6 1199.75 1951.63 1170.17C1994.26 1159.48 2037.27 1148.4 2078.18 1132.29C2100.56 1123.47 2136.02 1111.07 2141.99 1084.11C2148.61 1054.17 2113.77 1037.09 2091.59 1027.4C2052.19 1010.19 2010.6 998.212 1969.13 987.072C1854.92 956.394 1738.6 933.208 1622.48 911.023C1525.99 892.585 1429.24 875.47 1332.34 859.389C1317.38 856.902 1302.4 854.448 1287.42 852.059C1292.62 858.905 1297.82 865.751 1303.05 872.564C1299.98 843.857 1296.52 815.181 1292.97 786.506C1292.13 779.595 1291.26 772.718 1290.39 765.807C1289.94 762.126 1289.48 758.477 1289 754.795C1289.03 755.054 1287.81 745.818 1288.42 750.468C1288.84 753.665 1288.39 750.307 1288.29 749.499C1288.03 747.465 1287.74 745.398 1287.48 743.364C1285.16 725.636 1282.77 707.907 1280.35 690.179C1275.15 652.397 1269.69 614.647 1263.94 576.963C1251.32 494.457 1237.33 412.112 1220.48 330.349C1205.75 258.854 1189.64 186.875 1165 118.061C1159.9 103.788 1154.31 89.6765 1148.08 75.8878C1145.62 70.4304 1143.04 65.0384 1140.26 59.7103C1139.68 58.5478 1139.13 57.3521 1138.42 56.2542C1137.49 54.7365 1136.19 53.4449 1135.23 51.9595C1138 56.1898 1136.87 53.9938 1136.32 53.0573C1134.9 50.6677 1133.42 48.3108 1131.87 46.0181C1121.5 30.4533 1108.26 14.2108 1089.63 8.62429C1085.69 7.46178 1081.43 6.88069 1077.36 6.97757C1055.95 7.36507 1056.08 39.0426 1077.29 39.9791Z" fill="#2B2B2B"/>
<path d="M1884.79 254.14C1886.72 256.853 1883.98 251.008 1884.43 252.848C1885.08 255.367 1884.17 247.972 1884.24 251.298C1884.34 255.205 1884.63 250.233 1884.53 250.524C1884.14 251.783 1883.82 253.203 1883.53 254.495C1884.82 248.779 1883.04 255.722 1882.33 257.95C1881.91 259.209 1881.62 260.502 1881.2 261.761C1880.69 263.343 1880.07 264.893 1879.52 266.475C1877.78 271.481 1880.46 264.861 1878.52 268.93C1870.64 285.561 1861.34 301.383 1851.36 316.851C1840.09 334.321 1828.15 351.372 1815.91 368.164C1810.06 376.204 1804.12 384.18 1798.15 392.092C1796.95 393.674 1795.73 395.257 1794.53 396.839C1794.11 397.388 1791.95 400.229 1793.69 397.968C1796.21 394.674 1790.79 401.715 1791.04 401.392C1788.49 404.75 1785.97 408.141 1783.42 411.531C1781.26 414.373 1779.1 417.215 1776.93 420.057C1774.28 423.48 1775.87 421.412 1776.77 420.282C1775.96 421.316 1775.19 422.317 1774.38 423.35C1772.9 425.255 1771.41 427.161 1769.89 429.066C1764.24 436.202 1760.95 446.471 1766.57 454.899C1789.98 490.033 1812.55 525.845 1833.51 562.496C1840.06 573.96 1846.46 585.553 1852.33 597.404C1854.69 602.184 1856.89 607.059 1859.12 611.903C1856.31 605.767 1859.28 612.323 1859.83 613.873C1860.6 615.939 1861.31 618.007 1861.92 620.106C1862.6 622.56 1862.96 628.695 1862.41 620.235C1862.6 623.141 1861.41 625.369 1863.15 618.232C1862.86 619.395 1862.12 620.654 1863.8 617.005C1865.51 613.292 1867.64 610.321 1871.32 608.222C1876.26 605.38 1876.97 606.123 1874.65 606.672C1875.13 606.543 1881.65 606.059 1877.94 606.026C1876.97 606.026 1884.01 607.769 1878.97 606.058C1877.04 605.412 1875 604.96 1873.07 604.282C1871.13 603.604 1869.25 602.829 1867.35 602.086C1873.74 604.476 1864.99 600.988 1863.44 600.245C1815.59 577.803 1772.41 546.641 1726.3 521.033C1718.77 516.867 1710.44 511.733 1701.59 511.604C1694.3 511.507 1688.36 515.188 1682.41 518.837C1663.52 530.43 1645.05 542.669 1626.32 554.488C1602.2 569.698 1577.92 584.746 1552.99 598.535C1542.59 604.283 1532 609.578 1521.24 614.616C1516.95 616.65 1525.89 613.033 1521.6 614.454C1520.86 614.712 1520.11 615.068 1519.37 615.326C1517.34 616.037 1515.37 616.811 1513.3 617.393C1511.94 617.78 1510.3 617.878 1509.01 618.426C1508.13 618.814 1515.3 618.362 1510.01 617.974C1515.75 618.362 1521.44 620.719 1524.96 626.854C1525.67 628.114 1527.19 637.479 1527.31 634.411C1527.15 639.352 1526.09 639.254 1527.38 635.702C1528.03 633.99 1528.57 632.215 1529.16 630.471C1530.83 625.304 1527.06 634.669 1529.67 629.341C1530.64 627.371 1531.51 625.369 1532.48 623.432C1535.23 617.877 1538.16 612.42 1541.2 607.028C1554.96 582.356 1570.17 558.459 1585.41 534.66C1599.04 513.348 1613.08 492.326 1626.45 470.852C1630.23 464.813 1634.81 458.258 1636.82 451.315C1639.5 442.112 1635.98 434.2 1631.55 426.321C1606.24 381.08 1574.43 339.714 1549.66 294.02C1546.95 289.015 1544.33 284.01 1541.85 278.876C1540.55 276.163 1539.33 273.451 1538.1 270.706C1540.75 276.486 1537.91 270.092 1537.1 267.735C1536.03 264.667 1534.42 253.527 1535.32 263.311C1534.94 258.952 1535.87 260.889 1534.71 265.054C1533.22 270.35 1528.06 275.776 1521.73 277.616C1523.92 276.97 1513.75 277.971 1518.98 278.133C1519.92 278.165 1512.14 276.26 1517.37 278.069C1518.85 278.585 1520.44 278.94 1521.92 279.457C1522.96 279.812 1523.96 280.265 1524.96 280.62C1528.99 281.912 1520.15 278.165 1523.79 280.135C1533.74 285.463 1543.85 290.339 1553.57 296.119C1597.29 322.211 1638.98 351.985 1679.93 382.145C1682.77 384.244 1685.58 386.311 1688.42 388.443C1697.27 395.062 1709.6 390.961 1717.03 384.761C1722.46 380.24 1727.94 375.784 1733.47 371.36C1739.47 366.517 1745.48 361.737 1751.55 356.958C1754.91 354.31 1758.27 351.694 1761.63 349.079C1766.18 345.527 1759.33 350.822 1764.05 347.238C1766.28 345.526 1768.54 343.815 1770.76 342.104C1802.89 317.659 1835.9 292.665 1871.93 274.194C1873.71 273.289 1875.49 272.385 1877.3 271.546C1879.23 270.642 1886.34 268.349 1879.2 270.577C1882.4 269.576 1885.4 268.154 1888.66 267.283C1888.95 267.218 1893.02 266.217 1893.02 266.314C1893.31 268.187 1885.63 266.249 1891.44 266.734C1895.54 267.089 1884.66 265.087 1889.08 266.411C1891.05 266.993 1890.86 267.929 1885.24 264.732C1887.92 266.25 1880.07 260.308 1882.4 262.439C1904.55 282.912 1937.81 249.812 1915.56 229.275C1901.9 216.649 1883.37 218.716 1867.28 225.078C1848.23 232.602 1830.63 243.032 1813.49 254.14C1776.64 278.004 1741.67 304.871 1707.34 332.19C1699.4 338.519 1691.45 344.881 1683.64 351.404C1693.2 350.176 1702.72 348.949 1712.25 347.722C1677.28 321.468 1641.53 295.991 1604.75 272.353C1582.89 258.306 1559.93 243.678 1535.26 235.056C1524.93 231.439 1512.91 229.953 1503 235.701C1489.86 243.29 1487.43 258.435 1490.34 272.03C1495.38 295.603 1510.59 318.337 1522.96 338.616C1539 364.966 1556.25 390.574 1573.3 416.311C1579.43 425.546 1585.63 434.749 1591.41 444.211C1593 446.794 1594.32 449.797 1596.06 452.251C1598.42 455.545 1594.16 446.18 1595.06 449.926C1594.55 447.827 1593.74 436.105 1596.61 435.75C1594.68 435.976 1586.99 452.446 1585.76 454.448C1579.14 465.169 1572.36 475.792 1565.52 486.384C1548.76 512.411 1531.96 538.407 1516.11 564.983C1504.94 583.745 1490.63 604.669 1485.69 626.273C1482.46 640.32 1487.56 655.078 1502.42 659.631C1511.39 662.376 1521.11 660.18 1529.67 657.047C1554.92 647.876 1578.47 633.7 1601.46 620.008C1626.94 604.863 1651.93 588.943 1676.89 572.959C1685.38 567.501 1693.84 562.012 1702.43 556.684C1704.69 555.263 1707.12 554.036 1709.31 552.518C1709.51 552.389 1710.96 551.84 1711.02 551.614C1710.41 553.326 1702.34 554.262 1701.3 554.262C1695.43 554.262 1694.91 553.229 1697.56 553.972C1701.37 555.005 1691.97 551.032 1696.04 553.325C1697.62 554.197 1699.3 554.94 1700.92 555.78C1705.34 558.105 1709.64 560.624 1713.96 563.142C1725.14 569.698 1736.15 576.544 1747.19 583.325C1772.96 599.148 1798.66 615.164 1825.34 629.437C1843.16 638.996 1872.26 657.596 1892.92 646.003C1917.27 632.311 1901.87 600.149 1893.22 581.904C1870.26 533.466 1839.71 488.095 1810.16 443.5C1807.93 440.142 1805.67 436.751 1803.41 433.393C1802.31 442.015 1801.18 450.604 1800.09 459.226C1817.17 437.397 1833.57 415.051 1849.33 392.221C1873.45 357.346 1898.35 321.243 1914.14 281.653C1919.79 267.477 1924.51 245.744 1910.75 234.216C1904.45 228.952 1895.86 227.499 1889.05 232.924C1883.11 237.574 1879.94 247.327 1884.79 254.14Z" fill="#2B2B2B"/>
<path d="M605.639 1484.75C606.801 1486.53 604.638 1479.78 604.702 1481.4C604.799 1484.4 604.379 1479.01 604.928 1479.88C605.187 1480.3 604.218 1482.56 604.056 1482.98C606.22 1477.65 603.701 1483.79 602.959 1485.92C602.539 1487.21 602.183 1488.53 601.764 1489.79C601.344 1490.99 600.859 1492.18 600.44 1493.38C599.729 1495.35 601.053 1491.99 601.053 1491.99C600.666 1492.86 600.311 1493.73 599.891 1494.6C593.368 1508.39 585.553 1521.47 577.254 1534.26C567.76 1548.95 557.653 1563.26 547.319 1577.37C542.346 1584.15 537.309 1590.9 532.239 1597.58C531.206 1598.94 530.172 1600.3 529.139 1601.65C525.684 1606.21 531.335 1598.78 527.331 1604.04C524.844 1607.3 522.358 1610.6 519.871 1613.89C518.095 1616.25 516.287 1618.57 514.511 1620.93C511.766 1624.55 516.804 1617.99 514.963 1620.35C514.252 1621.25 513.542 1622.16 512.832 1623.09C511.604 1624.68 510.345 1626.29 509.086 1627.87C503.402 1635.01 500.141 1645.25 505.76 1653.67C525.038 1682.64 543.606 1712.15 560.947 1742.35C566.63 1752.26 572.184 1762.3 577.319 1772.54C579.289 1776.45 581.032 1780.49 582.937 1784.42C585.036 1788.72 581.516 1780.74 582.582 1783.59C582.937 1784.55 583.39 1785.49 583.712 1786.49C584.326 1788.2 584.875 1789.95 585.456 1791.69C585.618 1792.11 586.554 1795.05 586.296 1795.21C585.101 1795.98 585.876 1788.46 585.812 1792.01C585.779 1793.85 585.23 1792.69 586.134 1790.66C588.007 1786.46 589.008 1781.29 594.789 1777.87C597.953 1776 600.666 1775.61 598.567 1776.16C604.896 1774.48 604.218 1775.58 601.828 1775.48C610.579 1775.83 601.635 1775.09 598.502 1773.96C596.952 1773.41 595.402 1772.77 593.885 1772.19C600.246 1774.64 591.947 1771.22 590.526 1770.54C550.549 1751.55 514.478 1725.46 475.76 1704.18C469.076 1700.5 461.778 1696.27 453.963 1696.23C447.376 1696.2 441.854 1699.4 436.461 1702.69C420.832 1712.28 405.557 1722.42 390.057 1732.21C369.52 1745.16 348.853 1758.01 327.572 1769.76C318.983 1774.51 310.264 1778.81 301.416 1783.04C297.25 1785.04 305.065 1781.65 302.32 1782.65C301.383 1783 300.479 1783.42 299.511 1783.75C298.154 1784.2 296.83 1784.72 295.442 1785.1C294.538 1785.36 292.148 1785.52 291.534 1786.07C289.952 1787.46 297.702 1785.59 294.699 1785.62C293.084 1785.65 292.826 1784.78 295.765 1785.91C301.9 1788.3 307.745 1789.66 310.554 1799.15C311.233 1801.47 310.651 1802.9 310.877 1804.57C311.394 1808.09 310.554 1805.87 311.362 1803.77C311.943 1802.28 312.524 1800.7 313.041 1799.18C311.685 1803.28 311.878 1801.7 313.267 1798.89C314.171 1797.05 315.043 1795.21 315.947 1793.37C318.208 1788.88 320.629 1784.49 323.084 1780.1C335.096 1758.75 348.304 1738.08 361.479 1717.48C372.458 1700.37 383.793 1683.45 394.514 1666.17C397.678 1661.07 401.456 1655.51 403.071 1649.67C405.461 1641.05 402.231 1633.39 398.066 1625.97C376.85 1588.09 350.306 1553.37 329.607 1515.11C327.314 1510.88 325.086 1506.62 323.019 1502.29C322.05 1500.26 321.146 1498.19 320.177 1496.15C323.181 1502.52 320.177 1496.09 319.564 1494.35C318.466 1491.18 317.433 1481.49 318.046 1490.89C317.788 1486.53 317.852 1491.83 317.4 1493.67C316.173 1498.48 310.49 1504.81 303.902 1506.68C305.678 1506.16 295.991 1507.07 301.254 1507.29C298.542 1507.17 294.957 1505.74 298.994 1507.26C300.35 1507.78 301.836 1508.26 303.224 1508.65C307.39 1509.78 297.993 1506.04 304.193 1509.07C312.847 1513.3 321.243 1517.92 329.478 1522.92C365.58 1544.72 400.132 1569.3 434.104 1594.29C436.429 1596 438.786 1597.74 441.111 1599.49C449.959 1606.11 462.295 1602.01 469.754 1595.81C474.178 1592.13 478.667 1588.48 483.155 1584.86C488.16 1580.82 493.198 1576.82 498.235 1572.85C501.142 1570.59 504.048 1568.29 506.922 1566.03C510.539 1563.22 506.761 1566.13 507.859 1565.29C509.828 1563.77 511.83 1562.26 513.8 1560.74C540.473 1540.43 567.825 1519.79 597.63 1504.23C600.86 1502.55 604.282 1501.16 607.479 1499.45C601.247 1502.74 608.9 1498.96 611.58 1498.22C612.743 1497.9 614.454 1497.83 615.52 1497.28C616.231 1496.93 608.965 1497.7 613.163 1497.7C617.716 1497.74 608.351 1496.7 610.483 1497.28C609.288 1496.96 605.477 1494.99 603.281 1492.99C612.646 1501.51 627.21 1502.26 636.477 1492.99C645.132 1484.33 645.874 1468.38 636.477 1459.83C610.644 1436.32 570.537 1464.44 547.545 1479.26C515.899 1499.64 485.932 1522.7 456.482 1546.11C449.733 1551.47 442.984 1556.9 436.364 1562.42C445.89 1561.19 455.449 1559.96 464.975 1558.74C435.46 1536.58 405.299 1515.01 374.202 1495.12C355.86 1483.37 336.711 1471.48 316.109 1464.06C306.356 1460.54 295.054 1459.31 285.657 1464.6C273.483 1471.45 270.415 1485.11 272.805 1497.9C276.551 1517.98 289.468 1537.42 299.93 1554.6C313.17 1576.4 327.443 1597.58 341.555 1618.83C347.044 1627.1 352.599 1635.33 357.862 1643.76C359.283 1646.05 360.51 1648.51 361.995 1650.74C364.385 1654.32 361.027 1648.05 361.124 1648.35C361.221 1648.67 361.511 1636.88 360.994 1638.59C363.546 1629.87 361.834 1636.24 360.252 1639.08C358.347 1642.47 356.28 1645.8 354.245 1649.12C348.691 1658.13 343.008 1667.08 337.26 1675.99C323.213 1697.79 309.134 1719.58 295.829 1741.83C286.206 1757.95 273.612 1776.19 269.447 1794.76C266.573 1807.55 270.319 1820.62 283.203 1826.11C291.793 1829.79 301.19 1828.34 309.747 1825.37C330.995 1817.94 350.823 1805.96 370.101 1794.53C391.607 1781.78 412.726 1768.34 433.781 1754.84C441.143 1750.13 448.506 1745.35 455.933 1740.73C457.935 1739.47 460.163 1738.41 462.069 1737.02C463.36 1736.05 465.265 1736.28 461.197 1737.21C458.452 1737.83 444.114 1736.89 449.765 1738.5C451.896 1739.12 443.662 1735.41 448.054 1737.8C449.248 1738.47 450.54 1739.02 451.735 1739.67C455.416 1741.6 459.001 1743.7 462.585 1745.8C472.305 1751.49 481.863 1757.46 491.454 1763.34C513.187 1776.71 534.887 1790.24 557.427 1802.22C573.508 1810.77 598.276 1826.05 616.618 1815.36C638.576 1802.57 626.338 1774.9 618.297 1757.72C599.116 1716.71 573.088 1678.38 548.094 1640.72C546.189 1637.88 544.316 1635.01 542.379 1632.17C541.281 1640.79 540.15 1649.38 539.053 1658C553.681 1639.3 567.696 1620.19 581.129 1600.62C601.473 1571.01 622.495 1540.33 635.606 1506.68C640.514 1494.05 643.711 1474.71 631.44 1464.77C625.046 1459.6 616.618 1457.98 609.74 1463.47C603.798 1468.29 601.021 1477.75 605.639 1484.75Z" fill="#2B2B2B"/>
</svg>
