<svg width="1924" height="2075" viewBox="0 0 1924 2075" fill="none" xmlns="http://www.w3.org/2000/svg">
<path d="M1756.39 791.804C1702.52 785.107 1645.09 797.446 1590.1 805.744C1553.63 811.24 1518.61 824.925 1469.37 838.719C1500.78 788.456 1526.66 750.822 1548.42 711.296C1586.71 641.889 1629.29 573.537 1657.76 500.672C1701.61 388.282 1652.08 288.557 1539.65 240.987C1474.65 213.472 1409.9 217.075 1346.06 243.935C1229.01 293.142 1146.97 375.434 1088.01 478.835C1069.23 511.81 1052.09 545.585 1029.34 587.986C1018.17 558.651 1011.91 539.071 1003.36 520.327C963.757 433.231 928.126 344.242 882.267 260.022C833.387 170.197 762.851 94.3111 668.222 41.2457C513.066 -45.7771 343.46 9.10822 280.277 166.303C234.09 281.168 244.099 394.323 299.276 504.203C355.944 617.03 434.305 716.173 531.227 802.468C547.46 816.918 568.897 826.453 587.932 838.246C584.111 844.469 580.253 850.693 576.431 856.917C549.243 860.629 522.128 864.596 494.904 868.054C354.889 885.779 214.91 904.486 86.723 963.957C-1.53734 1004.9 -19.7717 1056.22 19.9727 1139.13C97.8237 1301.49 282.024 1387.21 470.228 1345.13C529.771 1331.81 586.804 1309.06 645.256 1291.38C659.669 1287.01 675.101 1285.44 701.16 1280.42C680.851 1308.48 667.821 1325.88 655.483 1343.68C591.317 1436.12 542.546 1534.79 518.671 1642.71C502.729 1714.92 493.266 1788.07 515.686 1860.65C550.299 1972.71 655.629 2003.97 752.77 1929.54C785.926 1904.14 817.263 1874.08 840.411 1840.85C879.1 1785.34 910.437 1725.51 945.122 1667.64C952.802 1654.86 961.683 1642.71 973.475 1625.13C991.2 1697.56 1003.21 1762.38 1023.41 1825.01C1048.6 1903.16 1091.36 1973.22 1161.9 2025.63C1256.42 2095.87 1366.84 2090.52 1453.39 2011.69C1502.49 1966.99 1528.59 1911.2 1544.71 1850.35C1570.01 1754.81 1553.01 1662.14 1522.18 1570.86C1486.48 1465.13 1448.52 1360.05 1408.15 1245.08C1440.91 1241.26 1466.02 1238.42 1491.1 1235.36C1593.01 1222.88 1694.55 1209.27 1787.33 1164.1C1854.48 1131.42 1900.23 1083.74 1916.9 1013.97C1944.08 899.937 1881.81 807.418 1756.39 791.804ZM1835 996.241C1823.14 1043.19 1792.79 1079.73 1744.27 1095.27C1674.46 1117.66 1602.8 1136.37 1530.55 1150.67C1475.63 1161.55 1418.56 1162.97 1362.48 1168.9C1314.25 1174.03 1306.13 1182.77 1312.72 1228.16C1315.74 1248.87 1322.48 1269.32 1329.46 1289.34C1372.05 1410.72 1417.47 1531.33 1457.29 1653.48C1479.82 1722.63 1478.65 1794.51 1451.79 1863.12C1439.85 1893.66 1422.57 1924.41 1399.93 1948.98C1345.33 2008.16 1273.96 2011 1210.05 1960.63C1161.9 1922.66 1132.78 1873.24 1110.4 1819.41C1054.38 1684.78 1061.74 1545.42 1071.85 1405.7C1073.05 1389.28 1079.06 1371.56 1074.29 1356.78C1069.89 1343.17 1055.62 1325.48 1042.63 1322.89C1029.74 1320.35 1008.52 1331.23 999.098 1342.15C986.905 1356.34 983.047 1376.51 975.077 1393.9C928.162 1496.25 885.87 1600.74 832.222 1700.03C800.74 1758.26 756.409 1812.68 708.294 1860.65C656.83 1911.93 609.006 1897.95 595.83 1829.35C587.095 1783.74 586.986 1734.17 596.376 1688.67C631.207 1519.62 707.238 1369.92 852.022 1254.58C875.315 1236.02 910.328 1216.87 893.222 1178.66C881.684 1152.93 840.702 1143.9 788.729 1159.33C722.852 1178.91 658.795 1203.55 593.574 1225.06C547.751 1240.2 501.455 1254.18 455.123 1267.94C303.861 1312.92 121.772 1217.78 83.0469 1054.62C117.659 1039.22 150.562 1021.79 185.574 1009.6C306.7 967.415 434.341 953.257 561.763 938.808C607.622 933.603 654.1 931.565 699.268 923.267C716.192 920.173 739.158 905.578 742.979 892.257C746.91 878.427 733.771 857.972 722.852 843.814C714.518 833.005 697.739 827.982 685.292 819.647C546.95 727.201 445.078 607.131 373.596 465.077C330.831 380.093 324.498 291.323 356.636 202.225C401.403 78.115 519.945 41.7921 637.758 115.676C713.644 163.246 769.039 228.358 812.423 302.023C895.187 442.621 945.814 593.591 979.662 749.803C982.174 761.413 985.122 772.951 986.942 784.634C991.382 813.46 994.803 846.471 1037.31 842.504C1078.11 838.682 1077.2 804.616 1078.48 776.336C1084.01 651.279 1136.89 542.164 1213.36 441.929C1258.42 382.822 1318.4 338.929 1391.67 310.831C1451.17 288.011 1502.82 300.822 1547.99 338.893C1590.24 374.524 1600.18 419.91 1580.63 468.753C1563.82 510.791 1547.26 553.774 1522.98 592.245C1458.52 694.445 1390.06 794.498 1322.95 895.278C1316.25 905.324 1307.77 914.386 1300.46 924.104C1285.32 944.194 1270.54 966.178 1293.07 987.979C1315.31 1009.45 1339.98 999.989 1361.97 984.412C1441.09 928.362 1534.12 900.774 1628.24 877.044C1662.2 868.491 1699.39 865.033 1734.48 867.29C1812.29 872.312 1852.69 926.288 1835 996.241Z" fill="#00a651"/>
<path d="M1082.95 1153.73C1005.57 1147.21 928.087 1120.35 927.833 1048.18C927.578 980.955 1000.15 921.011 1082.52 920.611C1151.52 920.283 1211.98 969.818 1211.18 1025.98C1210.27 1088.29 1145.63 1152.71 1082.95 1153.73Z" fill="#00a651"/>
</svg>
