<svg width="2891" height="3543" viewBox="0 0 2891 3543" fill="none" xmlns="http://www.w3.org/2000/svg">
<path d="M2862.58 928.024C2822.77 821.93 2730.54 769.265 2609.49 782.258C2576.29 785.825 2543.43 794.779 2511.4 804.169C2406.69 834.814 2313.44 885.914 2225 944.767C2146.71 996.886 2069.84 1050.9 1990.86 1102.14C1961.53 1121.18 1929.36 1137.99 1896.02 1150C1853.65 1165.25 1826.17 1155.39 1805.79 1117.79C1790.9 1090.35 1777.98 1059.85 1774.49 1029.71C1761.13 914.813 1750.83 799.583 1741.59 684.281C1733.58 584.446 1731.65 484.175 1721.35 384.559C1711.23 286.836 1688.7 190.678 1640.04 102.236C1589.85 11.0272 1501.45 -21.2925 1396.81 13.9388C1358.88 26.7138 1322.12 45.8581 1289.62 68.0233C1198.63 130.115 1146.04 216.883 1115.83 315.662C1077.18 442.101 1074.92 570.725 1096.29 699.603C1119.25 838.09 1149.35 975.703 1168.46 1114.59C1176.18 1170.53 1171.08 1230.58 1157.32 1285.69C1140.07 1354.77 1081.18 1380.43 1006.64 1363.72C919.475 1344.14 847.229 1299.96 786.048 1241.5C739.206 1196.74 699.826 1145.27 652.547 1100.98C598.681 1050.53 544.961 997.468 481.741 958.524C367.821 888.353 254.157 935.012 225.331 1059.49C214.849 1104.69 210.627 1152.59 213.429 1198.74C226.75 1418.79 294.993 1622.57 434.79 1803.75C501.977 1890.81 569.346 1977.76 635.951 2065.18C653.566 2088.29 668.634 2113.08 694.111 2150.78C656.114 2145.91 636.933 2144.92 618.553 2140.88C508.274 2116.72 398.976 2087.78 287.641 2068.93C229.771 2059.1 167.134 2059.25 109.082 2068.2C40.4029 2078.79 0.294482 2128.07 0.00331444 2192.09C-0.178666 2231.22 7.13708 2272.2 20.9676 2309.25C61.4399 2417.6 137.835 2504.04 235.267 2572.69C306.021 2622.51 381.725 2666.81 457.865 2709.57C655.168 2820.36 828.595 2958.16 991.43 3107.64C1106.26 3213.07 1182.4 3336.17 1176.47 3492.09C1175.45 3519.06 1184.88 3541.95 1219.71 3542.53C1250.86 3543.08 1259.34 3522 1262.43 3498.09C1273.64 3411.98 1322.89 3344.43 1387.6 3285.61C1493.84 3189.09 1625.7 3136.72 1767.25 3100.61C1871.78 3073.93 1978.02 3050.35 2078.76 3014.21C2262.2 2948.4 2388.93 2827.97 2444.36 2651.23C2483.67 2525.85 2433.22 2408.98 2313.37 2339.32C2283.01 2321.66 2249.06 2309 2216.05 2295.57C2187.4 2283.88 2157.05 2275.66 2128.59 2263.61C2050.84 2230.64 2032.9 2200.03 2064.89 2125.78C2089.53 2068.6 2121.38 2011.5 2162.51 1963.49C2232.64 1881.67 2311.37 1805.93 2388.71 1729.57C2494.11 1625.52 2605.27 1526.16 2706.77 1419.04C2761.73 1361.03 2806.5 1293.44 2847.41 1225.85C2905.02 1130.57 2900.33 1028.55 2862.58 928.024ZM1264.69 2406.98C1245.29 2653.3 1223.78 2899.49 1202.67 3145.71C1201.03 3164.7 1195.36 3183.41 1191.17 3204.08C1180.73 3199.06 1175.12 3198.08 1172.61 3194.95C980.803 2956.96 732.582 2778.98 461.905 2624.08C390.387 2583.13 321.526 2537.46 255.613 2489.09C192.72 2442.94 144.75 2383.57 111.594 2315.55C99.8376 2291.38 89.6104 2265.83 84.2238 2239.95C68.9738 2166.4 96.9624 2131.93 178.235 2135.1C240.181 2137.54 301.944 2151.04 363.09 2162.69C459.867 2181.14 555.989 2202.5 652.547 2221.97C689.162 2229.36 725.994 2230.64 752.454 2200.46C780.661 2168.29 772.072 2132.95 754.784 2099.79C742.3 2075.88 726.431 2053.24 709.871 2031.44C641.992 1942.09 574.441 1852.56 504.634 1764.48C376.884 1603.24 317.012 1419.41 295.357 1224.18C289.57 1172.21 296.995 1117.06 309.77 1065.82C325.93 1000.89 375.61 982.182 434.899 1020.98C493.205 1059.12 544.524 1107.2 594.86 1154.55C640.355 1197.39 678.388 1246.93 723.265 1290.35C787.285 1352.29 862.479 1400.15 951.54 1427.6C1105.75 1475.17 1221.45 1411.11 1249.26 1264.29C1266.69 1172.28 1249 1082.49 1233.35 992.445C1213.12 876.051 1188.92 760.202 1171.95 643.408C1155.76 532.072 1164.06 421.137 1202.42 313.478C1228.59 240.067 1270.59 175.974 1337.88 128.077C1350.26 119.269 1365.4 113.737 1391.06 100.707C1389.71 145.547 1386 180.268 1388 214.699C1414.61 669.722 1371.99 1121.91 1328.28 1574.42C1301.49 1851.46 1286.57 2129.49 1264.69 2406.98ZM2772.1 1196.37C2736.55 1254.13 2699.35 1312.84 2651.89 1362.16C2547.91 1470.25 2435.59 1571.54 2329.31 1677.82C2242.76 1764.4 2155.05 1850.7 2077.56 1943.98C2034.54 1995.74 2003.75 2059.1 1980.96 2121.45C1946.42 2215.97 1980.75 2279.74 2078 2324.32C2112.43 2340.12 2150.53 2349.07 2184.78 2365.12C2227.4 2385.1 2272.46 2404.17 2308.09 2432.6C2366.87 2479.48 2388.27 2542.15 2369.46 2613.81C2326.84 2776.21 2212.99 2881.8 2050.15 2943.93C1979.15 2971.04 1904.39 2991.71 1829.45 3007.73C1616.28 3053.3 1419.88 3125.76 1269.13 3283.14C1308.77 3022.14 1321.58 2762.24 1340.72 2502.7C1371.66 2083.16 1410.38 1664.1 1442.23 1244.6C1465.49 938.288 1487.14 631.725 1475.9 324.251C1472.99 244.58 1470.84 164.873 1468.22 81.7809C1519.39 75.8483 1545.38 97.8316 1561.36 128.113C1580.24 163.89 1596.04 201.56 1608.02 239.776C1645.76 360.538 1650.23 485.194 1657.37 609.741C1665.12 745.171 1674.66 880.601 1689 1015.52C1693.84 1060.98 1709.96 1107.42 1731.11 1149.02C1770.92 1227.42 1843.57 1252.6 1929.57 1219.05C1975.76 1201.03 2019.29 1175.66 2060.64 1149.13C2147.8 1093.23 2231.66 1032.92 2318.94 977.195C2404.76 922.419 2497.35 879.472 2600.61 859.491C2690.83 842.021 2757.98 876.124 2786.88 956.923C2815.82 1037.94 2819.02 1120.2 2772.1 1196.37Z" fill="#ffcc00"/>
</svg>
