<svg width="3653" height="2193" viewBox="0 0 3653 2193" fill="none" xmlns="http://www.w3.org/2000/svg">
<path d="M3546.76 570.873C3503.02 552.857 3454.25 543.576 3406.71 535.168C3270.96 511.111 3135.6 529.527 3000.28 542.266C2929.78 548.89 2859.17 554.349 2788.64 560.318C2786.71 556.059 2784.78 551.801 2782.88 547.543C2806.18 535.35 2829.25 522.794 2852.84 511.074C2932.47 471.475 3007.59 426.126 3065.32 360.759C3122.97 295.464 3166.83 223.109 3171.96 137.142C3177.53 43.4219 3092.76 -20.0163 2995.33 5.78843C2956.82 15.9793 2915.26 31.7388 2887.16 56.5609C2834.02 103.475 2782.85 154.794 2743.18 211.571C2680.36 301.506 2639.59 402.25 2619.14 507.798C2610.66 551.619 2584.82 579.571 2545.91 590.454C2477.05 609.707 2405.17 619.68 2334.56 633.547C2368.48 592.237 2407.35 562.065 2444.62 530.291C2517.52 468.127 2559.16 390.239 2566.51 299.613C2572.48 226.203 2557.92 156.249 2481.71 114.066C2419.07 79.3811 2341.98 89.6084 2271.7 154.139C2216.16 205.129 2166.96 264.782 2127.68 327.42C2059.19 436.681 2020.9 557.333 1996.66 681.662C1991.93 705.865 1996.48 735.019 1962.08 747.503C1888.93 774.072 1816.24 801.732 1726.34 835.326C1748.91 807.629 1760.52 793.507 1771.99 779.349C1850.75 681.99 1920.74 580.409 1946.18 458.628C1962.45 380.777 1934.49 310.059 1879.24 283.272C1823.89 256.448 1757.86 273.117 1693.33 332.661C1602.38 416.59 1537.3 516.169 1509.9 631.581C1489.73 716.42 1485.66 804.462 1472.45 890.794C1468.7 915.215 1466.33 949.464 1449.12 960.674C1392.59 997.47 1329.56 1025.75 1268.99 1057.31C1273.76 1022.44 1286.46 997.143 1299.24 971.848C1339.93 891.267 1362.86 807.374 1357.65 717.622C1352.45 627.942 1316.85 570.363 1249.92 553.73C1165.88 532.802 1106.45 570.727 1056.91 627.942C1045.74 640.862 1035.37 654.474 1026.05 668.596C981.537 735.965 950.601 808.32 936.552 886.208C917.48 992.011 917.699 1097.92 934.696 1204.16C937.717 1223.09 937.243 1251.81 924.869 1261.85C872.095 1304.69 814.225 1342.21 758.212 1381.67C759.813 1352.15 770.186 1328.71 780.45 1305.2C816.154 1223.31 842.578 1139.96 834.534 1049.92C828.092 977.744 794.972 917.618 738.012 869.866C665.693 809.23 575.977 817.456 517.416 889.338C497.653 913.614 481.02 941.311 469.118 969.664C420.166 1086.49 400.548 1207.51 423.769 1331.77C441.566 1427.05 464.532 1521.5 486.588 1622.83C438.509 1670.98 385.953 1723.68 333.397 1776.34C325.427 1756.14 328.229 1742.42 329.576 1728.59C336.782 1655.66 348.829 1582.75 349.23 1509.78C349.703 1425.81 326.227 1345.31 270.869 1276.3C233.272 1229.42 182.536 1203.69 117.351 1213.84C51.3285 1224.14 23.0487 1270.44 13.4038 1323.72C3.79524 1376.79 -5.3037 1433.09 3.68611 1485.29C34.9503 1666.68 58.2438 1850.56 148.615 2019.07C126.668 2052.08 104.43 2083.89 84.0849 2116.72C70.3636 2138.89 49.2174 2165.85 81.719 2185.55C117.278 2207.09 129.726 2174.26 144.539 2153.19C163.938 2125.53 182.791 2097.5 196.257 2077.81C263.772 2110.46 323.753 2149.26 390.394 2169.6C508.389 2205.6 625.039 2190.79 727.967 2123.56C820.995 2062.78 820.23 1958.03 727.202 1897.51C698.668 1878.95 663.546 1865.33 629.333 1858.67C558.434 1844.84 486.516 1845.53 416.053 1865.62C395.016 1871.63 373.797 1876.98 352.651 1882.62C349.776 1879.02 346.9 1875.41 344.025 1871.81C410.957 1802.48 477.926 1733.14 548.061 1660.5C570.299 1685.1 584.457 1701.44 599.452 1717.13C653.209 1773.43 717.302 1815.32 796.573 1835.67C905.033 1863.48 1009.34 1826.72 1062.96 1741.73C1107.32 1671.42 1096.84 1617.15 1027.14 1567.61C968.653 1526.05 902.34 1502.65 827.801 1501.45C800.94 1501.01 774.08 1501.37 741.615 1501.37C804.871 1426.94 926.98 1339.01 989.29 1320.48C1022.99 1398.01 1065.43 1470.84 1135.16 1526.27C1226.34 1598.77 1329.3 1631.89 1448.75 1595.24C1555.94 1562.34 1586.77 1492.53 1533.48 1401.07C1475.54 1301.7 1385.75 1239.5 1265.61 1215.37C1237.84 1209.8 1210.1 1204.02 1165.74 1194.96C1282.31 1131.7 1382.99 1077.07 1489.01 1019.53C1497.2 1043.22 1502.58 1058.62 1507.79 1074.05C1524.53 1123.73 1537.96 1174.57 1558.6 1222.83C1600.41 1320.67 1679.1 1380.39 1792.4 1397.24C1890.31 1411.84 1975 1359.14 1995.17 1273.02C2008.16 1217.59 1986.8 1169.77 1949.09 1128.5C1887.14 1060.65 1813.51 1006.24 1723.54 972.102C1704.25 964.787 1685.98 955.142 1657.81 942.294C1770.64 891.449 1872.91 851.013 1982.79 813.27C1985.19 837.437 1987.16 851.34 1987.85 865.28C1994.18 987.825 2054.31 1087.11 2145.92 1171.92C2188.32 1211.15 2240 1236.88 2299.25 1249.44C2392.57 1269.17 2490.92 1231.5 2537.87 1157.21C2578.23 1093.37 2568.4 1011.85 2500.38 949.027C2448.3 900.948 2387.19 860.403 2326.55 821.168C2285.39 794.562 2238.11 776.001 2182.75 748.485C2307.04 705.211 2425.62 682.79 2546.6 663.464C2568.15 776.765 2608.69 877.728 2681.81 965.915C2732.95 1027.61 2796.86 1074.41 2877.99 1097.49C2976 1125.37 3065.46 1083.47 3092.65 997.834C3110.63 941.129 3097.75 886.317 3054.22 845.626C2989.72 785.318 2918.42 731.161 2849.2 675.257C2832.38 661.681 2812.33 651.49 2786.71 635.294C2854.11 613.456 2914.75 618.806 2971.74 619.971C2993.22 640.826 3010.07 661.317 3031.21 676.894C3077.29 710.815 3123.22 745.792 3173.52 773.817C3234.56 807.811 3298.18 839.293 3364.27 863.533C3400.78 876.927 3445 878.565 3485.07 876.126C3561.14 871.54 3639.5 802.206 3650.49 737.239C3661.78 671.034 3622.61 602.137 3546.76 570.873ZM184.502 1931.36C170.307 1890.34 155.967 1857.91 148.032 1824.24C123.574 1720.4 96.3139 1616.78 80.6272 1511.71C71.7466 1452.24 75.1678 1388.62 88.1612 1329.69C101.628 1268.66 154.293 1260.25 202.044 1305.71C246.811 1348.33 265.81 1404.05 271.815 1460.32C287.866 1610.63 262.316 1756.91 206.921 1898.78C203.646 1907.19 196.439 1914.29 184.502 1931.36ZM540.709 1915.92C571.1 1916.32 602.255 1920.58 631.553 1928.08C674.901 1939.14 715.81 1958.8 721.16 2005.35C726.802 2054.77 683.782 2075.56 644.183 2092.01C544.749 2133.24 445.06 2132.26 348.502 2082.8C319.531 2067.95 292.561 2049.9 256.456 2028.42C344.535 1959.53 432.285 1914.47 540.709 1915.92ZM961.847 1607.36C1027.14 1643.86 1031.73 1681.46 979.499 1733.11C943.94 1768.26 898.955 1785.01 847.855 1776.75C743.362 1759.86 668.204 1704.94 612.7 1615.26C732.371 1567.03 845.962 1542.57 961.847 1607.36ZM683.563 1336.06C648.55 1405.54 600.508 1469.45 558.143 1535.8C552.392 1533.66 546.642 1531.55 540.891 1529.4C499.691 1382.32 464.678 1234.44 507.334 1082.24C520.036 1036.89 536.778 991.065 561.055 950.192C602.182 880.967 658.086 879.657 712.061 942.076C759.777 997.216 778.266 1061.85 760.25 1128.97C741.36 1199.61 716.757 1270.19 683.563 1336.06ZM1443.4 1396.63C1464.48 1423.27 1487.01 1464.14 1479.33 1491.36C1467.53 1533.15 1413.34 1539.48 1369.85 1541.99C1284.06 1546.94 1212.91 1512.58 1160.68 1453.62C1114.56 1401.54 1078.86 1341.63 1032.6 1276.88C1197.73 1261.67 1342.48 1268.91 1443.4 1396.63ZM1026.27 1172.43C1022.92 1174.54 1016.62 1172.68 1002.47 1172.68C990.964 1025.39 985.941 881.258 1062.63 747.83C1085.08 708.777 1112.78 669.761 1147.36 639.771C1201.55 592.747 1260.88 613.019 1278.75 680.352C1284.75 703.027 1289.59 727.448 1287.15 750.378C1268.48 926.534 1188.23 1071.17 1026.27 1172.43ZM1890.35 1168.09C1931.11 1212.1 1935.37 1253.66 1908.58 1291.11C1881.83 1328.49 1838.41 1340.9 1778.61 1326.24C1718.96 1311.6 1671.64 1280.01 1643.03 1229.35C1604.05 1160.31 1584.8 1085.33 1565.8 999.217C1704.73 1022.33 1807.98 1079.14 1890.35 1168.09ZM1576.68 856.945C1570.93 860.876 1563.04 862.114 1543.31 869.211C1553.14 681.917 1601.03 517.407 1740.32 384.089C1743.85 380.704 1747.38 377.21 1751.35 374.225C1776.86 354.972 1800.85 330.186 1838.85 342.015C1868.14 351.15 1882.92 387.328 1877.32 434.497C1875.1 453.059 1870.47 471.839 1863.67 489.455C1806.6 637.441 1715.17 762.898 1576.68 856.945ZM2437.23 983.494C2493.32 1036.01 2502.64 1083.26 2471.08 1128.57C2435.45 1179.74 2362.37 1203 2295.25 1178.36C2158.73 1128.2 2094.93 1024.11 2065.05 899.019C2058.17 870.266 2064.03 838.966 2064.03 798.894C2096.53 804.899 2119.57 806.719 2140.79 813.488C2253.47 849.302 2353.45 905.097 2437.23 983.494ZM2082.01 673.764C2113.13 505.433 2168.34 350.386 2293.9 224.346C2309.3 208.878 2327.9 195.266 2347.26 184.129C2418.85 142.929 2479.45 168.187 2492.08 246.038C2504.09 320.104 2480.83 387.91 2429.92 444.579C2336.82 548.089 2212.45 613.493 2082.01 673.764ZM2884.98 146.423C2916.02 116.651 2956.42 91.865 2997.48 75.0137C3060 49.3181 3106.34 82.9844 3097.27 145.549C3086.06 222.927 3044.13 287.639 2985.14 342.524C2906.23 415.935 2806.87 459.392 2690.15 511.147C2733.97 367.128 2783.14 244.182 2884.98 146.423ZM2991.32 878.783C3004.32 892.832 3014.8 910.265 3021.24 927.772C3044.06 989.754 2987.25 1049.81 2917.7 1037C2852.07 1024.91 2800.97 989.681 2757.33 944.514C2689.49 874.27 2637.41 764.973 2618.59 648.287C2772.66 694.583 2892.73 772.143 2991.32 878.783ZM3576.94 728.577C3566.56 776.947 3500.91 820.513 3441.73 811.559C3399.29 805.154 3357.1 792.16 3317.43 776.474C3222.37 738.877 3152.56 668.414 3053.38 607.633C3214.72 583.684 3356.3 581.719 3495.26 622.628C3555.72 640.389 3586.11 685.702 3576.94 728.577Z" fill="#fff8e7"/>
</svg>
