<svg width="149" height="250" viewBox="0 0 149 250" fill="none" xmlns="http://www.w3.org/2000/svg">
<path d="M120.947 153.955C130.475 165.247 134.595 181.407 129.033 195.717C127.55 199.536 125.514 202.749 123.207 206.14L118.95 212.397C114.859 218.41 109.895 226.776 111.664 234.362C112.214 236.717 112.981 238.837 114.151 241.001C114.562 241.76 114.909 243.609 113.633 243.89C109.726 244.751 105.679 245.157 101.881 246.641C101.018 246.978 100.44 247.466 99.5661 247.269C98.6114 247.052 98.2043 246.452 97.7493 245.456C96.1629 241.988 94.5649 238.638 93.6062 234.897C91.786 227.791 92.8467 220.567 95.864 213.9C99.9135 204.943 107.716 195.401 112.919 185.764C115.623 180.754 117.747 171.603 113.776 166.543C107.111 163.004 99.8352 161.643 92.3377 161.969L81.1929 162.451C70.687 162.906 61.7149 159.633 57.2397 149.677C49.8997 133.349 60.7739 126.718 71.7202 118.035C75.9523 114.676 82.6467 108.912 81.8868 102.756C77.2115 101.596 72.5879 102.154 67.8943 103.301C59.4997 105.349 48.3807 108.814 39.9942 107.615C33.1743 106.643 30.1186 100.043 28.1799 94.058C25.8748 86.9401 29.6254 81.292 35.2595 77.0215C21.5543 73.5735 15.019 58.9426 19.5916 46.6865C23.7191 35.6177 40.9968 25.369 33.1827 12.0839C30.9795 8.33845 27.6409 6.3673 27.8918 5.02661C28.1881 3.42599 37.3413 3.90303 42.7785 2.30852C44.4632 1.81574 45.6927 2.0515 46.8824 3.37254C56.1809 13.7102 54.6869 29.4509 46.2134 39.7475L35.4315 52.8511C33.7475 54.8988 32.303 57.0017 31.5011 59.6811C34.0768 62.3347 43.1469 60.8896 46.462 60.1354C54.3901 58.3289 64.0468 55.1855 72.211 57.7552C74.6716 58.5308 77.5514 59.8647 78.668 62.4059C80.4176 66.3828 81.4661 71.0957 80.7685 75.4823C80.4066 77.7473 77.1487 78.8031 75.1272 79.1443C66.3107 80.6224 50.4274 82.9067 44.2712 89.7855C56.2803 87.8332 61.905 83.8183 74.5032 83.8263C83.4185 83.83 90.7303 88.5492 94.7199 96.3384C100.492 107.611 96.2802 116.13 87.9601 124.271L78.2051 133.817C75.5236 136.442 73.5658 139.5 71.9625 143.012C74.0462 143.443 75.9213 143.304 77.9612 143.217L90.6055 142.677C96.265 142.435 101.643 142.843 107.103 144.424C112.743 146.058 117.139 149.447 120.95 153.963L120.947 153.955ZM49.6222 14.2942C49.302 12.613 48.5145 11.7026 47.8882 10.4806C46.9134 8.58484 46.3672 6.51039 44.4771 5.15969C40.5726 6.15957 36.7892 6.45316 32.821 6.61801C40.6344 13.4231 38.5045 25.1547 33.1761 32.1744L25.2265 42.6489C19.1614 50.6457 20.2398 58.3804 24.8706 66.6C25.4085 67.5568 26.5646 68.176 27.5591 68.8306C25.8959 61.2551 30.8132 53.7568 35.3804 48.3234C44.1921 37.8432 52.6167 29.9648 49.6187 14.2899L49.6222 14.2942ZM53.6427 61.3373L46.2738 62.8438L47.8756 63.4715L37.941 64.1052C35.3162 64.2724 33.033 63.6603 30.4368 62.457C29.4677 65.9092 29.9822 69.8669 32.6107 72.5454C33.6916 73.6465 36.7725 74.7043 38.2656 74.2715C41.8581 73.229 44.7063 71.3593 48.1548 70.0934C55.3926 67.4335 62.4493 65.4069 70.1299 64.5073C71.9931 64.2886 73.8674 63.637 75.1744 62.5268C69.594 58.2034 59.9386 60.0525 53.6466 61.3377L53.6427 61.3373ZM78.1618 75.4658C78.9393 74.0745 77.3045 65.2903 76.3234 64.7002C74.7899 66.1827 73.1202 66.8032 71.2647 67.1844L59.2669 69.6627C53.5422 70.8461 27.1889 79.911 31.3376 89.772L32.5193 85.3661L32.3404 89.6618C34.7358 90.7388 37.3788 90.747 40.1131 90.5117C46.9906 81.7309 54.6381 79.8849 65.1208 77.7425C69.4406 76.8586 73.8128 76.7652 78.1579 75.4654L78.1618 75.4658ZM69.8671 99.8095C77.2491 98.1701 84.5058 99.0835 90.8687 102.766C92.3456 103.618 93.3735 104.576 94.1878 106.136C94.2652 101.787 92.2403 98.4379 90.3315 94.9543C86.9386 88.767 77.6045 86.0384 70.9394 86.9001C69.09 87.1398 67.154 87.0948 65.3275 87.5421L59.3383 89.0031C51.559 90.9032 43.1454 95.0257 33.1195 92.5801C32.2473 92.3677 31.5299 92.3088 30.9757 91.4372C30.4706 92.6305 30.8524 93.6074 31.6374 94.1426C32.029 93.4985 31.6247 92.9101 32.275 92.848C31.8793 95.7766 32.5979 98.8665 34.838 100.796C35.7121 101.55 37.0413 101.416 37.711 102.319C37.2206 102.523 36.8724 102.086 36.333 102.226C36.1342 102.278 35.9735 102.625 36.3993 102.876C37.2578 102.866 37.3375 103.02 36.4415 103.37C40.5143 105.429 47.8856 105.02 52.2791 103.67C51.0886 103.079 49.9605 103.658 49.0699 102.951L54.1499 103.294L69.8714 99.8059L69.8671 99.8095ZM121.728 167.3C123.929 168.863 125.175 171.054 127.398 172.883C125.469 166.6 122.976 160.821 119.1 155.77C117.447 153.614 115.071 152.065 112.837 150.396C105.674 145.044 92.7752 145.441 83.9813 146.089C75.8444 146.687 64.5408 146.416 57.9011 141.333C58.6744 149.436 63.1134 155.474 70.4422 157.898C78.6974 160.627 89.9922 158.024 98.9207 159.295L88.3246 157.662C95.4215 157.952 102.513 158.296 108.736 159.755C106.289 159.999 104.195 158.711 101.938 159.637C108.113 159.938 116.915 163.889 121.728 167.304L121.728 167.3ZM89.2409 105.285L84.9652 103.119C85.1642 107.349 81.9196 112.996 79.3137 115.414L73.9796 120.369C69.4286 124.597 59.6635 128.76 59.8468 136.994C59.2228 136.309 60.1603 135.419 59.322 134.823C56.5284 139.504 65.6851 142.389 69.4582 142.599C71.0767 137.972 73.6716 133.623 77.4153 130.247C78.6691 129.116 79.6627 128.057 80.8005 126.82C82.89 124.548 85.8622 122.904 87.4972 120.231C88.2085 119.07 88.6764 118.454 89.711 117.541C91.5034 115.958 92.7081 113.161 92.8538 110.764C92.9998 108.363 91.3039 106.325 89.2413 105.281L89.2409 105.285ZM128.433 181.778C128.399 180.318 127.236 179.288 126.728 178.231C124.822 174.275 122.045 170.895 117.969 168.673C120.688 174.758 118.062 182.301 115.226 187.614C113.67 190.526 112.134 193.362 110.297 196.074C108.461 198.785 106.29 201.475 104.697 204.444C103.869 205.988 102.853 207.155 101.935 208.603C100.27 211.221 99.197 214.166 97.9892 217.034C94.6769 224.888 95.0848 233.369 99.0685 240.858C99.4919 241.654 99.5017 243.277 100.503 243.62L110.962 240.958C109.976 238.012 108.813 235.821 108.556 233.14C108.193 229.331 108.786 225.44 110.346 222.006C112.259 217.803 114.337 213.971 116.891 210.154C117.554 209.162 117.623 208.063 118.357 207.426C121.718 204.525 125.786 196.059 127.511 191.28C128.571 188.346 128.508 184.942 128.432 181.782L128.433 181.778Z" fill="#232323"/>
<path d="M128.433 181.778C128.509 184.939 128.572 188.343 127.512 191.277C125.784 196.055 121.719 204.525 118.359 207.422C117.62 208.055 117.555 209.154 116.892 210.15C114.338 213.967 112.26 217.799 110.348 222.003C108.788 225.436 108.194 229.328 108.557 233.136C108.81 235.817 109.977 238.012 110.963 240.955L100.504 243.616C99.5028 243.273 99.4969 241.65 99.0696 240.854C95.086 233.366 94.6741 224.884 97.9903 217.03C99.2024 214.158 100.271 211.217 101.936 208.599C102.858 207.151 103.87 205.984 104.698 204.44C106.291 201.472 108.397 198.878 110.298 196.07C112.2 193.262 113.671 190.527 115.227 187.61C118.063 182.302 120.689 174.755 117.97 168.67C122.046 170.895 124.823 174.275 126.729 178.228C127.237 179.284 128.4 180.315 128.434 181.774L128.433 181.778Z" fill="#3275CD"/>
<path d="M121.728 167.3C116.916 163.885 108.113 159.934 101.938 159.633C104.195 158.707 106.285 159.995 108.736 159.751C102.513 158.296 95.4215 157.952 88.325 157.658L98.9211 159.292C89.9891 158.016 78.6978 160.623 70.4426 157.894C63.1137 155.47 58.6747 149.432 57.9015 141.329C64.5411 146.412 75.8448 146.683 83.9817 146.085C92.7795 145.438 105.678 145.045 112.837 150.392C115.071 152.061 117.444 153.609 119.1 155.766C122.977 160.817 125.473 166.596 127.398 172.879C125.18 171.05 123.93 168.855 121.729 167.296L121.728 167.3Z" fill="#3275CD"/>
<path d="M49.6215 14.2937C52.6191 29.9725 44.195 37.847 35.3832 48.3272C30.816 53.7606 25.8949 61.2585 27.562 68.8343C26.5674 68.1798 25.4113 67.5605 24.8734 66.6037C20.2465 58.3846 19.1643 50.6494 25.2293 42.6527L33.179 32.1781C38.5077 25.1545 40.6376 13.4229 32.8238 6.62178C36.7921 6.45693 40.5755 6.16334 44.4799 5.16346C46.37 6.51416 46.9162 8.58861 47.891 10.4844C48.5174 11.7064 49.3053 12.6129 49.6251 14.298L49.6215 14.2937Z" fill="#3275CD"/>
<path d="M69.8674 99.8092L54.146 103.297L49.066 102.954C49.9565 103.661 51.089 103.079 52.2752 103.673C47.8817 105.023 40.5104 105.432 36.4375 103.373C37.3336 103.023 37.2539 102.87 36.3953 102.88C35.9692 102.632 36.1303 102.281 36.329 102.23C36.8685 102.09 37.2166 102.526 37.7071 102.322C37.037 101.424 35.7082 101.553 34.834 100.8C32.5983 98.8663 31.8757 95.776 32.271 92.8513C31.6207 92.9134 32.0251 93.5018 31.6335 94.1459C30.8485 93.6107 30.4667 92.6338 30.9717 91.4405C31.5263 92.3082 32.2433 92.371 33.1155 92.5834C43.1415 95.029 51.5512 90.9061 59.3344 89.0064L65.3235 87.5453C67.1539 87.0985 69.086 87.1431 70.9355 86.9034C77.6006 86.0417 86.9347 88.7703 90.3275 94.9576C92.2364 98.4412 94.2656 101.787 94.1838 106.139C93.3696 104.579 92.3378 103.621 90.8648 102.769C84.5018 99.0868 77.2452 98.1734 69.8631 99.8127L69.8674 99.8092Z" fill="#3275CD"/>
<path d="M78.1612 75.4656C73.8162 76.7653 69.444 76.8587 65.1242 77.7426C54.6415 79.885 46.9901 81.7307 40.1165 90.5119C37.3818 90.7511 34.7391 90.7389 32.3438 89.662L32.5227 85.3662L31.341 89.7722C27.1884 79.9108 53.5417 70.8458 59.2703 69.6629L71.2681 67.1846C73.124 66.7995 74.7933 66.1828 76.3267 64.7003C77.3079 65.2904 78.9431 74.0707 78.1651 75.466L78.1612 75.4656Z" fill="#3275CD"/>
<path d="M89.2411 105.284C91.2998 106.328 92.9996 108.366 92.8536 110.767C92.708 113.164 91.5032 115.962 89.7108 117.545C88.6763 118.457 88.2083 119.074 87.497 120.235C85.862 122.907 82.8898 124.551 80.8003 126.823C79.6625 128.061 78.6728 129.119 77.4151 130.25C73.6714 133.626 71.0769 137.971 69.458 142.603C65.6884 142.396 56.5282 139.507 59.3218 134.826C60.1601 135.422 59.2226 136.312 59.8466 136.997C59.6633 128.763 69.4285 124.6 73.9794 120.373L79.3135 115.418C81.9198 112.995 85.164 107.352 84.965 103.122L89.2407 105.288L89.2411 105.284Z" fill="#3275CD"/>
<path d="M53.6432 61.3376C59.9352 60.0524 69.591 58.1993 75.171 62.5267C73.864 63.6369 71.9896 64.2885 70.1264 64.5072C62.4498 65.4072 55.3931 67.4338 48.1514 70.0933C44.7028 71.3592 41.8582 73.2332 38.2622 74.2715C36.7691 74.7042 33.6882 73.6464 32.6073 72.5453C29.9748 69.8664 29.4643 65.9091 30.4333 62.4569C33.0296 63.6602 35.3127 64.2723 37.9375 64.1051L47.8722 63.4714L46.2703 62.8437L53.6393 61.3372L53.6432 61.3376Z" fill="#3275CD"/>
</svg>
