<svg width="207" height="192" viewBox="0 0 207 192" fill="none" xmlns="http://www.w3.org/2000/svg">
<path d="M68.7516 189.232C67.9735 189.261 67.2446 189.16 66.5651 188.93C65.8951 188.689 65.3049 188.341 64.7944 187.887C64.2935 187.423 63.8932 186.88 63.5935 186.26C63.3033 185.63 63.1439 184.936 63.1152 184.177C63.0864 183.419 63.1931 182.719 63.4352 182.079C63.6868 181.428 64.045 180.857 64.5097 180.366C64.984 179.865 65.5462 179.474 66.1965 179.193C66.8464 178.902 67.5653 178.741 68.3534 178.711C69.1315 178.682 69.8556 178.788 70.5257 179.029C71.1954 179.26 71.7805 179.603 72.281 180.057C72.7914 180.511 73.1918 181.054 73.4819 181.684C73.782 182.314 73.9464 183.008 73.9751 183.766C74.0038 184.525 73.8924 185.229 73.6408 185.88C73.3991 186.53 73.0409 187.101 72.5663 187.593C72.1015 188.084 71.5442 188.475 70.8943 188.766C70.244 189.047 69.5298 189.202 68.7516 189.232ZM68.7147 188.256C69.3353 188.233 69.9027 188.108 70.4169 187.881C70.9406 187.644 71.3873 187.327 71.7569 186.928C72.136 186.519 72.4242 186.054 72.6215 185.534C72.8185 185.004 72.9052 184.428 72.8817 183.808C72.8582 183.187 72.7284 182.625 72.4923 182.121C72.2559 181.607 71.9333 181.165 71.5248 180.796C71.1257 180.417 70.6563 180.134 70.1165 179.947C69.5863 179.75 69.0109 179.663 68.3903 179.687C67.7697 179.71 67.1976 179.84 66.6739 180.077C66.1498 180.304 65.6982 180.622 65.3191 181.031C64.9495 181.43 64.6613 181.894 64.4545 182.425C64.2572 182.945 64.1703 183.516 64.1938 184.137C64.2169 184.747 64.3467 185.31 64.5831 185.823C64.8295 186.337 65.1522 186.783 65.5512 187.163C65.9598 187.532 66.4341 187.815 66.9743 188.012C67.514 188.198 68.0942 188.28 68.7147 188.256Z" fill="black"/>
<path d="M79.2781 188.744L78.8866 178.401L79.7879 178.367L87.2645 187.081L86.7917 187.099L86.4516 178.115L87.5302 178.074L87.9217 188.417L87.0204 188.451L79.5586 179.737L80.0314 179.719L80.3715 188.703L79.2781 188.744Z" fill="black"/>
<path d="M100.476 187.942L100.085 177.599L103.956 177.452C104.833 177.419 105.592 177.533 106.233 177.795C106.874 178.047 107.372 178.433 107.727 178.952C108.091 179.461 108.288 180.09 108.316 180.838C108.344 181.567 108.195 182.204 107.87 182.749C107.555 183.284 107.088 183.706 106.468 184.016C105.848 184.315 105.1 184.482 104.223 184.515L100.958 184.639L101.427 184.118L101.57 187.9L100.476 187.942ZM107.539 187.674L104.737 184.022L105.919 183.977L108.736 187.629L107.539 187.674ZM101.43 184.206L100.923 183.708L104.159 183.585C105.193 183.546 105.967 183.29 106.482 182.817C107.007 182.343 107.254 181.697 107.223 180.88C107.191 180.052 106.896 179.422 106.337 178.99C105.788 178.557 104.996 178.36 103.962 178.399L100.726 178.522L101.194 177.986L101.43 184.206Z" fill="black"/>
<path d="M118.347 187.354C117.569 187.383 116.84 187.283 116.16 187.052C115.49 186.811 114.9 186.463 114.39 186.009C113.889 185.545 113.488 185.003 113.189 184.383C112.899 183.753 112.739 183.058 112.71 182.3C112.682 181.541 112.788 180.842 113.03 180.201C113.282 179.551 113.64 178.98 114.105 178.489C114.579 177.987 115.141 177.596 115.792 177.315C116.442 177.024 117.161 176.864 117.949 176.834C118.727 176.804 119.451 176.91 120.121 177.151C120.791 177.382 121.376 177.725 121.876 178.18C122.387 178.634 122.787 179.176 123.077 179.806C123.377 180.436 123.542 181.13 123.57 181.889C123.599 182.647 123.488 183.352 123.236 184.002C122.994 184.653 122.636 185.224 122.161 185.715C121.697 186.206 121.139 186.597 120.489 186.888C119.839 187.169 119.125 187.325 118.347 187.354ZM118.31 186.379C118.93 186.355 119.498 186.23 120.012 186.004C120.536 185.767 120.982 185.449 121.352 185.05C121.731 184.641 122.019 184.177 122.217 183.656C122.414 183.126 122.5 182.551 122.477 181.93C122.453 181.309 122.324 180.747 122.088 180.243C121.851 179.729 121.529 179.288 121.12 178.918C120.721 178.539 120.251 178.256 119.712 178.069C119.181 177.872 118.606 177.786 117.985 177.809C117.365 177.833 116.793 177.963 116.269 178.2C115.745 178.427 115.293 178.744 114.914 179.153C114.545 179.552 114.256 180.017 114.05 180.547C113.852 181.068 113.765 181.638 113.789 182.259C113.812 182.87 113.942 183.432 114.178 183.946C114.425 184.459 114.747 184.906 115.146 185.285C115.555 185.654 116.029 185.937 116.569 186.134C117.109 186.321 117.689 186.402 118.31 186.379Z" fill="black"/>
<path d="M127.218 186.929L131.555 176.408L132.634 176.367L137.753 186.53L136.601 186.574L131.889 177.031L132.333 177.014L128.356 186.886L127.218 186.929ZM128.976 184.096L129.267 183.197L135.281 182.969L135.639 183.844L128.976 184.096Z" fill="black"/>
<path d="M142.127 186.365L141.736 176.022L145.947 175.863C147.05 175.821 148.024 176.006 148.868 176.418C149.722 176.82 150.395 177.401 150.887 178.161C151.379 178.922 151.645 179.81 151.683 180.824C151.722 181.839 151.524 182.744 151.091 183.54C150.657 184.335 150.03 184.971 149.21 185.446C148.399 185.91 147.442 186.164 146.338 186.205L142.127 186.365ZM143.185 185.378L146.243 185.262C147.159 185.227 147.946 185.02 148.602 184.64C149.268 184.25 149.776 183.733 150.127 183.088C150.477 182.433 150.636 181.693 150.605 180.865C150.573 180.028 150.358 179.301 149.96 178.685C149.562 178.069 149.016 177.596 148.323 177.267C147.639 176.928 146.84 176.776 145.923 176.811L142.865 176.926L143.185 185.378Z" fill="black"/>
<path d="M15.8097 138.285C15.5627 138.342 15.3322 138.404 15.1191 138.475C14.4622 138.695 13.9075 139.012 13.5337 139.498C13.1493 139.998 13.0218 140.59 13.0555 141.22C13.0883 141.833 13.2742 142.516 13.5501 143.262L13.5501 143.263L21.0045 163.78L21.7452 165.818L22.3357 163.732L28.5236 141.891L28.5892 141.662L28.5007 141.44C28.0493 140.309 27.6097 139.4 26.9085 138.777C26.4247 138.348 25.8574 138.091 25.1755 137.941L34.7487 137.578C34.4999 137.635 34.2682 137.697 34.0542 137.769C33.3953 137.989 32.8398 138.306 32.4679 138.794C32.0856 139.297 31.9649 139.889 32.0024 140.517C32.039 141.129 32.2277 141.813 32.5039 142.559L39.9561 163.072L40.698 165.114L41.2883 163.024L47.2208 142C47.4384 141.228 47.5772 140.53 47.574 139.92C47.5706 139.295 47.4176 138.712 47.0071 138.239C46.607 137.778 46.0354 137.506 45.3722 137.338C45.1409 137.28 44.8901 137.233 44.6201 137.195L51.7547 136.925C51.0198 137.153 50.4081 137.513 49.8937 138.079C49.1687 138.877 48.7036 140.014 48.2557 141.509L48.2522 141.52L40.39 169.576L38.7252 169.639L29.8306 145.052L29.0873 142.997L28.4985 145.101L21.4485 170.293L19.7837 170.356L9.87353 142.975L9.8714 142.971L9.6768 142.451C9.22527 141.274 8.79083 140.34 8.15702 139.685C7.62821 139.139 6.99913 138.821 6.22188 138.648L15.8097 138.285Z" fill="black" stroke="black" stroke-width="1.4"/>
<path d="M70.35 135.506C75.0798 135.327 78.9441 136.952 81.678 139.805C84.4199 142.665 86.0702 146.809 86.2565 151.73C86.4427 156.652 85.1223 160.908 82.6113 163.966C80.1079 167.016 76.3783 168.93 71.6223 169.11C66.8664 169.29 63.016 167.663 60.3021 164.812C57.5797 161.952 55.9531 157.808 55.7666 152.884C55.5802 147.962 56.9007 143.706 59.4059 140.647C61.9034 137.597 65.6205 135.685 70.35 135.506ZM70.3752 136.169C66.2118 136.327 63.3838 138.172 61.6831 141.196C60.0139 144.164 59.4643 148.205 59.6359 152.738C59.8076 157.272 60.6706 161.248 62.5648 164.071C64.4943 166.947 67.4533 168.563 71.5956 168.406C75.7368 168.249 78.5745 166.418 80.2916 163.406C81.9779 160.449 82.5483 156.417 82.3764 151.877C82.2048 147.343 81.3414 143.356 79.4419 140.523C77.5071 137.637 74.5381 136.012 70.3752 136.169Z" fill="black" stroke="black" stroke-width="1.4"/>
<path d="M106.456 134.138C111.185 133.959 115.05 135.585 117.783 138.437C120.525 141.298 122.176 145.442 122.362 150.363C122.548 155.285 121.228 159.54 118.717 162.599C116.213 165.649 112.484 167.563 107.728 167.743C102.972 167.923 99.1215 166.296 96.4076 163.445C93.6851 160.585 92.0585 156.441 91.8721 151.517C91.6857 146.595 93.0062 142.338 95.5113 139.28C98.0089 136.23 101.726 134.317 106.456 134.138ZM106.49 134.802C102.327 134.959 99.499 136.804 97.7984 139.828C96.1291 142.797 95.5805 146.837 95.7521 151.37C95.9238 155.904 96.7867 159.881 98.681 162.704C100.61 165.58 103.569 167.195 107.711 167.038C111.852 166.881 114.69 165.05 116.407 162.039C118.093 159.081 118.664 155.05 118.492 150.509C118.32 145.975 117.457 141.988 115.557 139.155C113.622 136.269 110.653 134.644 106.49 134.802Z" fill="black" stroke="black" stroke-width="1.4"/>
<path d="M141.106 133.459C146.491 133.255 150.849 134.444 153.902 136.969C156.941 139.483 158.788 143.406 158.996 148.892C159.204 154.378 157.656 158.43 154.814 161.167C151.959 163.915 147.704 165.431 142.324 165.634L129.38 166.125C129.489 166.103 129.596 166.084 129.698 166.061C130.359 165.908 130.945 165.683 131.402 165.281C132.343 164.452 132.468 163.12 132.4 161.332L131.535 138.5C131.5 137.562 131.42 136.786 131.238 136.16C131.05 135.516 130.744 134.993 130.238 134.616C129.75 134.253 129.148 134.078 128.479 133.98C128.389 133.967 128.295 133.959 128.199 133.948L141.106 133.459ZM136.876 134.387C136.286 134.409 135.737 134.605 135.343 135.029C134.95 135.454 134.795 136.017 134.818 136.607L135.816 162.981C135.839 163.571 136.035 164.121 136.46 164.515C136.884 164.908 137.447 165.062 138.036 165.039L142.305 164.878C145.948 164.74 149.32 163.918 151.708 161.47C154.1 159.017 155.365 155.079 155.137 149.038C154.908 142.997 153.349 139.168 150.778 136.906C148.212 134.649 144.787 134.087 141.144 134.225L136.876 134.387Z" fill="black" stroke="black" stroke-width="1.4"/>
<path d="M166.937 131.849C167.967 131.81 168.86 132.543 168.91 133.855C168.949 134.891 168.666 135.998 168.296 137.712C167.961 139.266 167.588 141.211 167.428 143.825L167.351 143.828C166.994 141.234 166.475 139.325 166.024 137.808C165.525 136.132 165.162 135.064 165.123 134.049C165.071 132.678 165.915 131.888 166.937 131.849Z" fill="black" stroke="black" stroke-width="1.4"/>
<path d="M187.702 130.979C191.99 130.816 195.067 131.823 196.962 132.923L197.688 133.344L197.973 132.554L198.422 131.299L198.876 131.282L201.494 138.646C200.151 136.518 198.511 134.816 196.522 133.62C194.152 132.195 191.334 131.516 188.033 131.64C183.095 131.827 179.906 134.546 180.036 137.972C180.123 140.271 181.565 141.695 183.535 142.659C185.473 143.608 188.07 144.191 190.758 144.778L190.762 144.779C193.933 145.457 197.125 146.178 199.565 147.584C201.793 148.868 203.361 150.701 203.658 153.642L203.681 154.256C203.894 159.868 199.055 164.202 191.71 164.48C187.705 164.632 184.138 163.744 181.263 162.275L180.561 161.917L180.288 162.655L179.708 164.218L179.255 164.235L176.303 155.649C180.047 161.48 185.644 164.044 191.542 163.821C196.674 163.626 201.058 160.432 200.827 155.848C200.764 154.581 200.383 153.521 199.718 152.634C199.059 151.756 198.149 151.085 197.084 150.542C195.243 149.604 192.815 148.992 190.131 148.39L188.967 148.133L187.848 147.883C185.256 147.291 182.803 146.617 180.897 145.491C178.774 144.236 177.363 142.442 177.252 139.509C177.079 134.928 181.522 131.213 187.702 130.979Z" fill="black" stroke="black" stroke-width="1.4"/>
<path d="M174.614 101.485C172.593 101.561 171.456 103.658 169.622 104.35L100.515 106.997C92.4095 107.304 101.878 90.611 82.6474 89.7658C70.2779 89.2228 64.2555 101.342 46.6114 87.0337C39.6297 81.373 29.4331 80.4413 21.678 83.5135C7.11491 89.2951 8.49797 105.036 8.59903 118.506C8.27976 119.254 6.33059 119.072 5.48812 118.961C4.87669 109.831 4.94552 96.5281 10.2212 88.7178C14.6543 82.1449 22.3632 78.9315 30.1791 78.5436C44.0064 68.4483 61.5999 57.1173 77.6908 51.7273C78.6195 51.4163 79.6237 51.4804 79.994 50.7309C82.7934 45.0166 69.439 48.4336 69.5003 38.982C69.5214 36.029 71.8151 33.4291 75.2769 32.5217C77.9895 31.8061 81.0805 32.445 83.89 31.8585C84.5172 29.5261 83.4883 27.4606 83.3024 25.2509C82.8208 19.5485 83.0045 13.872 86.8337 9.43653C91.172 4.40974 103.993 3.10712 109.882 3.66056C113.77 4.03433 118.136 6.73961 119.456 10.0199L123.64 20.3629C124.61 22.7677 128.463 21.1099 129.994 19.6933C132.75 17.1577 136.236 16.0859 139.457 17.721C142.459 19.2521 144.837 22.4105 144.26 26.3347C142.816 35.9817 137.727 44.3978 129.801 50.7862C138.346 53.1903 152.252 57.8634 153.967 68.065C155.381 76.2554 156.901 85.8923 157.46 94.1661L157.993 102.053C162.06 99.8351 164.75 104.749 171.692 99.0925C173.259 97.8175 176.527 99.3487 178.04 98.2699C180.081 96.8136 177.759 93.8164 177.23 92.2633C176.552 90.2867 178.69 88.4487 180.285 88.7152C182.22 89.0506 184.402 90.5411 183.089 92.8484C182.476 93.9341 181.045 96.3582 182.304 97.4853C184.746 98.2612 187.671 97.2311 190.68 97.5871C192.879 91.9466 187.416 91.847 189.471 88.5922C190.078 87.6294 191.855 86.5099 192.974 86.8966C194.589 87.4382 195.908 89.0636 195.093 91.0149C194.484 92.4784 193.222 96.9698 195.087 97.0627L202.225 97.4156C203.766 101.403 203.947 105.911 203.877 110.265C202.765 110.594 201.866 110.617 200.773 110.362L200.182 100.425L174.574 101.507L174.614 101.485ZM99.6943 103.688L99.695 103.688L154.454 101.717C154.845 96.6657 153.777 91.9355 153.381 85.8008C153.058 80.7666 152.006 75.9337 151.419 70.9707C150.833 66.0078 148.022 62.2324 143.705 59.7398C138.354 56.6428 132.531 54.861 126.544 53.0548C126.52 53.0477 126.497 53.0406 126.473 53.0334C125.824 52.8382 125.042 52.6032 124.965 52.1135C124.884 51.6057 125.096 50.7294 125.591 50.2918L129.471 46.9271C135.181 41.9607 140.513 33.4741 140.992 25.8659C141.147 23.4901 139.846 20.9957 137.955 20.4441C132.042 18.7066 132.065 25.2743 125.339 24.7321C123.565 24.5848 120.833 23.1763 120.1 20.8238L118.445 15.4621C117.244 11.5542 114.364 7.56683 109.984 6.90519C104.813 6.1305 99.7136 7.52897 94.7009 8.51554C82.5341 10.8967 87.0408 26.5191 87.6848 33.2676C87.8529 35.0081 84.626 34.5582 83.4896 34.7851C76.8639 36.0983 73.3969 34.7075 72.925 38.4438C72.2728 43.6272 76.477 42.0788 81.7133 45.65C83.5499 46.9085 83.823 48.9923 83.2924 51.1781C82.9378 52.6115 81.4086 53.8033 79.5202 54.4162C65.4545 59.0247 48.035 69.5523 35.2671 78.7392C49.5726 80.4654 51.0631 92.024 65.0926 90.7777L76.5786 87.1557C79.7317 87.0057 82.8162 86.6641 85.9047 86.966C94.6135 87.8413 99.9493 94.8667 99.695 103.688C99.6949 103.691 99.6948 103.694 99.6947 103.698L99.6943 103.688Z" fill="#FFBE3B"/>
<path d="M99.695 103.688L154.454 101.717C154.845 96.6657 153.777 91.9355 153.381 85.8008C153.058 80.7666 152.006 75.9337 151.419 70.9707C150.833 66.0078 148.022 62.2324 143.705 59.7398C138.354 56.6428 132.531 54.861 126.544 53.0548L126.473 53.0334C125.824 52.8382 125.042 52.6032 124.965 52.1135C124.884 51.6057 125.096 50.7294 125.591 50.2918L129.471 46.9271C135.181 41.9607 140.513 33.4741 140.992 25.8659C141.147 23.4901 139.846 20.9957 137.955 20.4441C132.042 18.7066 132.065 25.2743 125.339 24.7321C123.565 24.5848 120.833 23.1763 120.1 20.8238L118.445 15.4621C117.244 11.5542 114.364 7.56683 109.984 6.90519C104.813 6.1305 99.7136 7.52897 94.7009 8.51554C82.5341 10.8967 87.0408 26.5191 87.6848 33.2676C87.8529 35.0081 84.626 34.5582 83.4896 34.7851C76.8639 36.0983 73.3969 34.7075 72.925 38.4438C72.2728 43.6272 76.477 42.0788 81.7133 45.65C83.5499 46.9085 83.823 48.9923 83.2924 51.1781C82.9378 52.6115 81.4086 53.8033 79.5202 54.4162C65.4545 59.0247 48.035 69.5523 35.2671 78.7392C49.5726 80.4654 51.0631 92.024 65.0926 90.7777L76.5786 87.1557C79.7317 87.0057 82.8162 86.6641 85.9047 86.966C94.6135 87.8413 99.9493 94.8667 99.695 103.688Z" fill="black"/>
<path d="M97.9119 5.14226C102.336 4.26922 106.944 4.08697 109.815 4.35645L109.815 4.35742C111.633 4.5322 113.59 5.25747 115.25 6.33681C116.916 7.42008 118.217 8.8161 118.807 10.2812L118.807 10.2822L122.991 20.6255C123.316 21.4289 123.906 21.9208 124.621 22.1411C125.304 22.3512 126.059 22.3043 126.762 22.144C128.164 21.8245 129.617 20.9937 130.468 20.2066C133.092 17.7931 136.267 16.8876 139.138 18.344L139.138 18.345C141.949 19.7783 144.089 22.6816 143.568 26.2309C142.152 35.6887 137.163 43.953 129.361 50.2416L128.305 51.0927L129.612 51.4605C133.876 52.6602 139.417 54.4104 144.095 57.1081C148.787 59.8131 152.471 63.3878 153.277 68.1807L153.277 68.1837C154.691 76.3723 156.205 85.9786 156.761 94.2131L157.295 102.1L157.369 103.191L158.328 102.668C159.202 102.191 159.994 102.095 160.828 102.149C161.256 102.177 161.692 102.243 162.169 102.323C162.636 102.401 163.148 102.493 163.681 102.557C164.765 102.686 165.979 102.705 167.387 102.302C168.79 101.901 170.342 101.094 172.134 99.6344C172.376 99.4371 172.72 99.3203 173.199 99.2745C173.682 99.2284 174.228 99.2607 174.835 99.3054C175.417 99.3483 176.068 99.4038 176.666 99.3729C177.264 99.342 177.909 99.223 178.446 98.8404L178.447 98.8393C179.123 98.3566 179.46 97.7162 179.544 97.0182C179.623 96.3549 179.47 95.6772 179.26 95.0725C179.048 94.4623 178.752 93.8602 178.493 93.3405C178.221 92.7953 178.005 92.3692 177.892 92.0371L177.892 92.0361L177.854 91.9095C177.69 91.275 177.923 90.639 178.41 90.1343C178.913 89.6123 179.572 89.3531 180.072 89.3932L180.169 89.4061C181.035 89.557 181.897 89.9602 182.382 90.5068C182.615 90.7702 182.749 91.0516 182.781 91.3507C182.813 91.6485 182.75 92.0288 182.481 92.5025L182.48 92.5045C182.183 93.029 181.63 93.9745 181.327 94.9415C181.038 95.8622 180.872 97.1436 181.837 98.0074L181.949 98.1067L182.091 98.1521C183.46 98.587 184.932 98.5065 186.337 98.3911C187.783 98.2723 189.18 98.1149 190.598 98.2826L191.136 98.3463L191.332 97.8414C191.919 96.3362 192.019 95.1346 191.816 94.1222C191.615 93.1165 191.128 92.3737 190.694 91.7811C190.463 91.4672 190.282 91.2397 190.107 90.9854C189.942 90.7444 189.83 90.5427 189.765 90.3524C189.657 90.0345 189.639 89.6368 190.062 88.9661C190.285 88.6129 190.777 88.1664 191.36 87.8557C191.966 87.5328 192.466 87.4616 192.745 87.5579L192.751 87.5606C193.424 87.7861 194.012 88.2312 194.345 88.7864C194.664 89.3196 194.766 89.9807 194.447 90.7448L194.446 90.7459C194.122 91.5238 193.635 93.0754 193.467 94.4691C193.385 95.1554 193.369 95.8856 193.544 96.4813C193.634 96.7866 193.786 97.1002 194.046 97.3458C194.284 97.5704 194.579 97.7057 194.909 97.749L195.052 97.7621L201.729 98.0908C203.016 101.679 203.226 105.708 203.183 109.718C202.576 109.848 202.034 109.866 201.439 109.776L200.881 100.383L200.84 99.6959L200.152 99.7259L174.593 100.805L174.588 100.786C173.33 100.833 172.383 101.515 171.608 102.142C170.813 102.786 170.204 103.35 169.465 103.655L100.488 106.297C99.5974 106.331 99.0316 106.131 98.6365 105.826C98.2291 105.51 97.9195 105.019 97.6666 104.316C97.4123 103.61 97.238 102.758 97.0583 101.777C96.882 100.813 96.7017 99.7321 96.4326 98.645C95.8915 96.4597 94.9694 94.1422 92.8698 92.328C90.7701 90.5139 87.5856 89.2824 82.6785 89.0667C79.4653 88.9257 76.6774 89.609 74.0638 90.4561C71.4132 91.3153 69.0428 92.3009 66.4547 92.8785C63.9129 93.4458 61.2373 93.5935 58.1302 92.7451C55.0117 91.8936 51.4131 90.0257 47.0526 86.4898C39.8532 80.6526 29.384 79.7085 21.4205 82.8632L21.4195 82.8632C13.873 85.8593 10.4575 91.4638 8.95769 97.9695C7.4925 104.325 7.83751 111.626 7.89544 118.234C7.88491 118.238 7.87383 118.244 7.86083 118.249C7.71154 118.303 7.48793 118.342 7.20233 118.357C6.85773 118.376 6.48335 118.356 6.15066 118.328C5.87418 113.895 5.77416 108.577 6.34271 103.421C6.93805 98.0224 8.25701 92.8762 10.8015 89.1092C15.077 82.77 22.5485 79.6231 30.2137 79.2428L30.4224 79.2319L30.5917 79.1092C44.4082 69.0217 61.9294 57.7447 77.9126 52.3907C78.1051 52.3262 78.3098 52.2789 78.5369 52.2302C78.7513 52.1843 79.0077 52.1338 79.2422 52.0677C79.7152 51.9343 80.3022 51.6868 80.6213 51.0412L80.6222 51.0392C81.0102 50.2472 81.1701 49.5112 81.0302 48.8317C80.8875 48.1387 80.4599 47.6314 79.9413 47.2497C79.4336 46.8762 78.7949 46.5902 78.136 46.3398C77.4814 46.0912 76.723 45.8476 76.0048 45.5967C74.5197 45.0778 73.0655 44.4786 71.9807 43.4857C70.9311 42.5249 70.1869 41.1571 70.2008 38.9873C70.2191 36.4258 72.2192 34.0465 75.4543 33.1985L75.4553 33.1984C76.7117 32.867 78.0751 32.8452 79.5483 32.8422C80.9897 32.8392 82.5441 32.8543 84.0333 32.5434L84.4542 32.4561L84.5655 32.0405C84.9191 30.7256 84.7986 29.5047 84.5891 28.3807C84.3705 27.2073 84.0898 26.2549 84.0003 25.1927L84.0003 25.1917C83.5203 19.5092 83.7358 14.0966 87.3634 9.89434C88.3524 8.74844 89.8618 7.77675 91.7143 6.97863C93.5599 6.18343 95.7027 5.57825 97.9119 5.14226ZM110.088 6.21266C105.429 5.51468 100.818 6.53208 96.4317 7.44796L94.5658 7.82839C91.3575 8.45641 89.1901 9.97655 87.7997 12.0483C86.425 14.0968 85.8511 16.623 85.6903 19.2104C85.5292 21.8018 85.7798 24.5149 86.1046 26.9796C86.3937 29.1736 86.7306 31.1086 86.9176 32.6824L86.9882 33.3345C86.9987 33.4428 86.9804 33.4958 86.9689 33.5199C86.9564 33.5458 86.9295 33.5847 86.8607 33.6325C86.702 33.7428 86.4126 33.8388 85.9767 33.9015C85.5558 33.962 85.0879 33.9806 84.622 33.9977C84.1892 34.0137 83.7053 34.0281 83.3524 34.0986C81.7313 34.4198 80.3 34.577 79.0474 34.6886C77.8145 34.7985 76.6976 34.8673 75.7879 35.0143C74.8762 35.1617 74.0361 35.4042 73.3927 35.9444C72.8068 36.4364 72.4578 37.1102 72.2909 37.9739L72.2302 38.3564C72.0574 39.7294 72.1887 40.7859 72.6868 41.6149C73.1838 42.4421 73.9748 42.9205 74.8319 43.2937C76.6079 44.067 78.7675 44.4883 81.3186 46.2281C82.806 47.2479 83.1107 48.9557 82.6128 51.0097C82.3446 52.0937 81.1031 53.1662 79.3039 53.7502L79.302 53.7512C65.1342 58.3932 47.6454 68.9698 34.8581 78.1708L33.4016 79.2188L35.1834 79.4338C42.1239 80.2713 45.932 83.471 49.862 86.4323C51.824 87.9107 53.8363 89.3423 56.2654 90.3149C58.5556 91.2318 61.1898 91.7308 64.4861 91.5253L65.1545 91.4746L65.2305 91.4678L65.303 91.4455L76.7024 87.8496C79.8802 87.6948 82.844 87.3705 85.8367 87.663L85.8366 87.6621C93.9123 88.4746 98.9745 94.8191 99.003 103.014L98.9679 103.015L98.9943 103.714L98.9739 104.414L99.7205 104.387L154.479 102.417L155.104 102.394L155.151 101.771C155.352 99.1809 155.178 96.6851 154.909 94.0926C154.672 91.8113 154.366 89.4741 154.161 86.8824L154.08 85.7557L154.01 84.8026C153.828 82.5843 153.521 80.4069 153.191 78.2527C152.812 75.7824 152.406 73.3542 152.115 70.8888L152.049 70.4036C151.311 65.4309 148.395 61.64 144.055 59.1335L144.056 59.1335C138.623 55.9895 132.723 54.188 126.746 52.385L126.746 52.3841C126.723 52.3769 126.699 52.3704 126.675 52.3633L126.202 52.2141C126.059 52.1648 125.93 52.1141 125.82 52.0585C125.724 52.0101 125.675 51.9734 125.652 51.9535C125.642 51.8234 125.659 51.6142 125.731 51.3837C125.812 51.1218 125.935 50.9226 126.055 50.8163L126.053 50.8154L129.929 47.4554L129.93 47.4554C135.733 42.4088 141.195 33.7623 141.69 25.9121C141.777 24.5883 141.46 23.2378 140.855 22.1343C140.254 21.0373 139.327 20.1152 138.15 19.7721L138.149 19.7721C136.545 19.3011 135.278 19.3791 134.181 19.8051C133.118 20.218 132.271 20.941 131.495 21.6101C130.694 22.3 129.949 22.9534 129.006 23.4194C128.143 23.8463 127.093 24.1238 125.682 24.0534L125.395 24.034L125.394 24.0341C124.64 23.9709 123.627 23.6292 122.717 23.0223C121.809 22.4164 121.073 21.5937 120.769 20.6158L120.768 20.6158L119.114 15.2556C117.879 11.2345 114.856 6.93294 110.089 6.21262L110.088 6.21266ZM94.8358 9.20197C99.9251 8.20031 104.862 6.8452 109.88 7.59654L109.88 7.59752C113.872 8.20056 116.61 11.8734 117.776 15.6678L117.777 15.6688L119.431 21.03L119.432 21.0319C119.86 22.4063 120.856 23.4641 121.941 24.1873C123.023 24.9089 124.261 25.3453 125.281 25.43L125.283 25.4299C127.089 25.5754 128.476 25.2434 129.627 24.6742C130.756 24.1156 131.636 23.337 132.409 22.67C133.207 21.9825 133.882 21.423 134.688 21.1101C135.459 20.8104 136.407 20.7191 137.758 21.116L137.759 21.116C138.473 21.3244 139.143 21.9253 139.627 22.8072C140.047 23.5735 140.295 24.5004 140.304 25.4251L140.293 25.8203L140.293 25.8223C139.844 32.9577 134.949 40.9941 129.536 45.9311L129.012 46.3986L125.132 49.7626L125.127 49.7677C124.753 50.0988 124.522 50.556 124.394 50.9681C124.266 51.3796 124.212 51.8376 124.273 52.2236C124.369 52.8273 124.871 53.1483 125.189 53.3089C125.365 53.3976 125.558 53.473 125.746 53.538L126.271 53.7038L126.343 53.7255L126.342 53.7245C132.34 55.5338 138.085 57.2958 143.354 60.3454L143.355 60.3464C147.507 62.7443 150.167 66.3387 150.724 71.0528C151.02 73.5501 151.432 76.0201 151.806 78.4654C152.136 80.6125 152.437 82.7503 152.615 84.916L152.683 85.8457C152.882 88.9307 153.252 91.683 153.517 94.2372C153.761 96.5888 153.917 98.7947 153.796 101.039L100.402 102.962C100.35 94.176 94.8519 87.1613 85.9745 86.2691L85.9725 86.2692C82.8169 85.9608 79.6392 86.3089 76.5451 86.4561L76.4544 86.4605L76.3685 86.4882L64.9563 90.0856C61.5898 90.3744 58.9991 89.901 56.786 89.015C54.5429 88.1169 52.6576 86.7849 50.7051 85.3137C47.1212 82.6132 43.3755 79.4878 37.0739 78.3097C49.6715 69.3867 66.2763 59.4917 79.7354 55.0815L79.7365 55.0824C81.6523 54.4606 83.4171 53.2104 83.9267 51.5122L83.9722 51.3462L83.973 51.3433C84.5352 49.0277 84.2927 46.5691 82.1085 45.0724L82.1075 45.0715C79.4227 43.2405 76.8621 42.6509 75.3902 42.0099C74.6235 41.6761 74.1584 41.3458 73.8869 40.8941C73.6503 40.5002 73.5061 39.9195 73.5764 38.9641L73.6196 38.5315C73.723 37.7129 73.9731 37.2854 74.2932 37.0166C74.6397 36.7258 75.169 36.5326 76.0113 36.3965C76.8554 36.2601 77.8774 36.1978 79.1725 36.0823C80.4478 35.9687 81.9344 35.8072 83.6253 35.472L83.6263 35.472C83.8414 35.429 84.1874 35.4141 84.6739 35.3962C85.1273 35.3795 85.6691 35.3594 86.1758 35.2865C86.6676 35.2158 87.2251 35.0837 87.6597 34.7818C87.8873 34.6236 88.0938 34.4102 88.23 34.1269C88.3672 33.8417 88.4131 33.527 88.3816 33.2006L88.3096 32.5369C88.118 30.925 87.7683 28.891 87.4922 26.7961C87.1711 24.3593 86.9345 21.7525 87.0871 19.2973C87.24 16.8379 87.7809 14.5904 88.9629 12.8291C90.0563 11.1998 91.7342 9.9323 94.3085 9.31673L94.8358 9.20295L94.8358 9.20197Z" stroke="black" stroke-width="1.4"/>
</svg>
